<svg width="1920" height="1085" viewBox="0 0 1920 1085" fill="none" xmlns="http://www.w3.org/2000/svg">
<rect y="5" width="1920" height="1080" fill="#A7A4A1" fill-opacity="0.5"/>
<rect y="5" width="1920" height="1080" fill="url(#paint0_linear)"/>
<path d="M118.312 165.031C118.312 163.323 117.833 161.969 116.875 160.969C115.938 159.948 114.333 159.01 112.062 158.156C109.792 157.302 107.833 156.458 106.188 155.625C104.542 154.771 103.125 153.802 101.938 152.719C100.771 151.615 99.8542 150.323 99.1875 148.844C98.5417 147.365 98.2188 145.604 98.2188 143.562C98.2188 140.042 99.3438 137.156 101.594 134.906C103.844 132.656 106.833 131.344 110.562 130.969V124.281H115.562V131.062C119.25 131.583 122.135 133.125 124.219 135.688C126.302 138.229 127.344 141.531 127.344 145.594H118.312C118.312 143.094 117.792 141.229 116.75 140C115.729 138.75 114.354 138.125 112.625 138.125C110.917 138.125 109.594 138.615 108.656 139.594C107.719 140.552 107.25 141.885 107.25 143.594C107.25 145.177 107.708 146.448 108.625 147.406C109.542 148.365 111.24 149.344 113.719 150.344C116.219 151.344 118.271 152.292 119.875 153.188C121.479 154.062 122.833 155.062 123.938 156.188C125.042 157.292 125.885 158.562 126.469 160C127.052 161.417 127.344 163.073 127.344 164.969C127.344 168.51 126.24 171.385 124.031 173.594C121.823 175.802 118.781 177.104 114.906 177.5V183.719H109.938V177.531C105.667 177.073 102.354 175.562 100 173C97.6667 170.417 96.5 166.99 96.5 162.719H105.531C105.531 165.198 106.115 167.104 107.281 168.438C108.469 169.75 110.167 170.406 112.375 170.406C114.208 170.406 115.656 169.927 116.719 168.969C117.781 167.99 118.312 166.677 118.312 165.031Z" fill="#BBBBBB"/>
<path d="M314.312 405.031C314.312 403.323 313.833 401.969 312.875 400.969C311.938 399.948 310.333 399.01 308.062 398.156C305.792 397.302 303.833 396.458 302.188 395.625C300.542 394.771 299.125 393.802 297.938 392.719C296.771 391.615 295.854 390.323 295.188 388.844C294.542 387.365 294.219 385.604 294.219 383.562C294.219 380.042 295.344 377.156 297.594 374.906C299.844 372.656 302.833 371.344 306.562 370.969V364.281H311.562V371.062C315.25 371.583 318.135 373.125 320.219 375.688C322.302 378.229 323.344 381.531 323.344 385.594H314.312C314.312 383.094 313.792 381.229 312.75 380C311.729 378.75 310.354 378.125 308.625 378.125C306.917 378.125 305.594 378.615 304.656 379.594C303.719 380.552 303.25 381.885 303.25 383.594C303.25 385.177 303.708 386.448 304.625 387.406C305.542 388.365 307.24 389.344 309.719 390.344C312.219 391.344 314.271 392.292 315.875 393.188C317.479 394.062 318.833 395.062 319.938 396.188C321.042 397.292 321.885 398.562 322.469 400C323.052 401.417 323.344 403.073 323.344 404.969C323.344 408.51 322.24 411.385 320.031 413.594C317.823 415.802 314.781 417.104 310.906 417.5V423.719H305.938V417.531C301.667 417.073 298.354 415.562 296 413C293.667 410.417 292.5 406.99 292.5 402.719H301.531C301.531 405.198 302.115 407.104 303.281 408.438C304.469 409.75 306.167 410.406 308.375 410.406C310.208 410.406 311.656 409.927 312.719 408.969C313.781 407.99 314.312 406.677 314.312 405.031Z" fill="#BBBBBB"/>
<path d="M228.312 883.031C228.312 881.323 227.833 879.969 226.875 878.969C225.938 877.948 224.333 877.01 222.062 876.156C219.792 875.302 217.833 874.458 216.188 873.625C214.542 872.771 213.125 871.802 211.938 870.719C210.771 869.615 209.854 868.323 209.188 866.844C208.542 865.365 208.219 863.604 208.219 861.562C208.219 858.042 209.344 855.156 211.594 852.906C213.844 850.656 216.833 849.344 220.562 848.969V842.281H225.562V849.062C229.25 849.583 232.135 851.125 234.219 853.688C236.302 856.229 237.344 859.531 237.344 863.594H228.312C228.312 861.094 227.792 859.229 226.75 858C225.729 856.75 224.354 856.125 222.625 856.125C220.917 856.125 219.594 856.615 218.656 857.594C217.719 858.552 217.25 859.885 217.25 861.594C217.25 863.177 217.708 864.448 218.625 865.406C219.542 866.365 221.24 867.344 223.719 868.344C226.219 869.344 228.271 870.292 229.875 871.188C231.479 872.062 232.833 873.062 233.938 874.188C235.042 875.292 235.885 876.562 236.469 878C237.052 879.417 237.344 881.073 237.344 882.969C237.344 886.51 236.24 889.385 234.031 891.594C231.823 893.802 228.781 895.104 224.906 895.5V901.719H219.938V895.531C215.667 895.073 212.354 893.562 210 891C207.667 888.417 206.5 884.99 206.5 880.719H215.531C215.531 883.198 216.115 885.104 217.281 886.438C218.469 887.75 220.167 888.406 222.375 888.406C224.208 888.406 225.656 887.927 226.719 886.969C227.781 885.99 228.312 884.677 228.312 883.031Z" fill="#BBBBBB"/>
<path d="M314.312 160.031C314.312 158.323 313.833 156.969 312.875 155.969C311.938 154.948 310.333 154.01 308.062 153.156C305.792 152.302 303.833 151.458 302.188 150.625C300.542 149.771 299.125 148.802 297.938 147.719C296.771 146.615 295.854 145.323 295.188 143.844C294.542 142.365 294.219 140.604 294.219 138.562C294.219 135.042 295.344 132.156 297.594 129.906C299.844 127.656 302.833 126.344 306.562 125.969V119.281H311.562V126.062C315.25 126.583 318.135 128.125 320.219 130.688C322.302 133.229 323.344 136.531 323.344 140.594H314.312C314.312 138.094 313.792 136.229 312.75 135C311.729 133.75 310.354 133.125 308.625 133.125C306.917 133.125 305.594 133.615 304.656 134.594C303.719 135.552 303.25 136.885 303.25 138.594C303.25 140.177 303.708 141.448 304.625 142.406C305.542 143.365 307.24 144.344 309.719 145.344C312.219 146.344 314.271 147.292 315.875 148.188C317.479 149.062 318.833 150.062 319.938 151.188C321.042 152.292 321.885 153.562 322.469 155C323.052 156.417 323.344 158.073 323.344 159.969C323.344 163.51 322.24 166.385 320.031 168.594C317.823 170.802 314.781 172.104 310.906 172.5V178.719H305.938V172.531C301.667 172.073 298.354 170.562 296 168C293.667 165.417 292.5 161.99 292.5 157.719H301.531C301.531 160.198 302.115 162.104 303.281 163.438C304.469 164.75 306.167 165.406 308.375 165.406C310.208 165.406 311.656 164.927 312.719 163.969C313.781 162.99 314.312 161.677 314.312 160.031Z" fill="#BBBBBB"/>
<path d="M246.312 587.031C246.312 585.323 245.833 583.969 244.875 582.969C243.938 581.948 242.333 581.01 240.062 580.156C237.792 579.302 235.833 578.458 234.188 577.625C232.542 576.771 231.125 575.802 229.938 574.719C228.771 573.615 227.854 572.323 227.188 570.844C226.542 569.365 226.219 567.604 226.219 565.562C226.219 562.042 227.344 559.156 229.594 556.906C231.844 554.656 234.833 553.344 238.562 552.969V546.281H243.562V553.062C247.25 553.583 250.135 555.125 252.219 557.688C254.302 560.229 255.344 563.531 255.344 567.594H246.312C246.312 565.094 245.792 563.229 244.75 562C243.729 560.75 242.354 560.125 240.625 560.125C238.917 560.125 237.594 560.615 236.656 561.594C235.719 562.552 235.25 563.885 235.25 565.594C235.25 567.177 235.708 568.448 236.625 569.406C237.542 570.365 239.24 571.344 241.719 572.344C244.219 573.344 246.271 574.292 247.875 575.188C249.479 576.062 250.833 577.062 251.938 578.188C253.042 579.292 253.885 580.562 254.469 582C255.052 583.417 255.344 585.073 255.344 586.969C255.344 590.51 254.24 593.385 252.031 595.594C249.823 597.802 246.781 599.104 242.906 599.5V605.719H237.938V599.531C233.667 599.073 230.354 597.562 228 595C225.667 592.417 224.5 588.99 224.5 584.719H233.531C233.531 587.198 234.115 589.104 235.281 590.438C236.469 591.75 238.167 592.406 240.375 592.406C242.208 592.406 243.656 591.927 244.719 590.969C245.781 589.99 246.312 588.677 246.312 587.031Z" fill="#BBBBBB"/>
<path d="M314.312 712.031C314.312 710.323 313.833 708.969 312.875 707.969C311.938 706.948 310.333 706.01 308.062 705.156C305.792 704.302 303.833 703.458 302.188 702.625C300.542 701.771 299.125 700.802 297.938 699.719C296.771 698.615 295.854 697.323 295.188 695.844C294.542 694.365 294.219 692.604 294.219 690.562C294.219 687.042 295.344 684.156 297.594 681.906C299.844 679.656 302.833 678.344 306.562 677.969V671.281H311.562V678.062C315.25 678.583 318.135 680.125 320.219 682.688C322.302 685.229 323.344 688.531 323.344 692.594H314.312C314.312 690.094 313.792 688.229 312.75 687C311.729 685.75 310.354 685.125 308.625 685.125C306.917 685.125 305.594 685.615 304.656 686.594C303.719 687.552 303.25 688.885 303.25 690.594C303.25 692.177 303.708 693.448 304.625 694.406C305.542 695.365 307.24 696.344 309.719 697.344C312.219 698.344 314.271 699.292 315.875 700.188C317.479 701.062 318.833 702.062 319.938 703.188C321.042 704.292 321.885 705.562 322.469 707C323.052 708.417 323.344 710.073 323.344 711.969C323.344 715.51 322.24 718.385 320.031 720.594C317.823 722.802 314.781 724.104 310.906 724.5V730.719H305.938V724.531C301.667 724.073 298.354 722.562 296 720C293.667 717.417 292.5 713.99 292.5 709.719H301.531C301.531 712.198 302.115 714.104 303.281 715.438C304.469 716.75 306.167 717.406 308.375 717.406C310.208 717.406 311.656 716.927 312.719 715.969C313.781 714.99 314.312 713.677 314.312 712.031Z" fill="#BBBBBB"/>
<path d="M228.312 47.0312C228.312 45.3229 227.833 43.9688 226.875 42.9688C225.938 41.9479 224.333 41.0104 222.062 40.1562C219.792 39.3021 217.833 38.4583 216.188 37.625C214.542 36.7708 213.125 35.8021 211.938 34.7188C210.771 33.6146 209.854 32.3229 209.188 30.8438C208.542 29.3646 208.219 27.6042 208.219 25.5625C208.219 22.0417 209.344 19.1562 211.594 16.9062C213.844 14.6562 216.833 13.3438 220.562 12.9688V6.28125H225.562V13.0625C229.25 13.5833 232.135 15.125 234.219 17.6875C236.302 20.2292 237.344 23.5312 237.344 27.5938H228.312C228.312 25.0938 227.792 23.2292 226.75 22C225.729 20.75 224.354 20.125 222.625 20.125C220.917 20.125 219.594 20.6146 218.656 21.5938C217.719 22.5521 217.25 23.8854 217.25 25.5938C217.25 27.1771 217.708 28.4479 218.625 29.4062C219.542 30.3646 221.24 31.3438 223.719 32.3438C226.219 33.3438 228.271 34.2917 229.875 35.1875C231.479 36.0625 232.833 37.0625 233.938 38.1875C235.042 39.2917 235.885 40.5625 236.469 42C237.052 43.4167 237.344 45.0729 237.344 46.9688C237.344 50.5104 236.24 53.3854 234.031 55.5938C231.823 57.8021 228.781 59.1042 224.906 59.5V65.7188H219.938V59.5312C215.667 59.0729 212.354 57.5625 210 55C207.667 52.4167 206.5 48.9896 206.5 44.7188H215.531C215.531 47.1979 216.115 49.1042 217.281 50.4375C218.469 51.75 220.167 52.4062 222.375 52.4062C224.208 52.4062 225.656 51.9271 226.719 50.9688C227.781 49.9896 228.312 48.6771 228.312 47.0312Z" fill="#BBBBBB"/>
<path d="M50.3125 592.031C50.3125 590.323 49.8333 588.969 48.875 587.969C47.9375 586.948 46.3333 586.01 44.0625 585.156C41.7917 584.302 39.8333 583.458 38.1875 582.625C36.5417 581.771 35.125 580.802 33.9375 579.719C32.7708 578.615 31.8542 577.323 31.1875 575.844C30.5417 574.365 30.2188 572.604 30.2188 570.562C30.2188 567.042 31.3438 564.156 33.5938 561.906C35.8438 559.656 38.8333 558.344 42.5625 557.969V551.281H47.5625V558.062C51.25 558.583 54.1354 560.125 56.2188 562.688C58.3021 565.229 59.3438 568.531 59.3438 572.594H50.3125C50.3125 570.094 49.7917 568.229 48.75 567C47.7292 565.75 46.3542 565.125 44.625 565.125C42.9167 565.125 41.5938 565.615 40.6562 566.594C39.7188 567.552 39.25 568.885 39.25 570.594C39.25 572.177 39.7083 573.448 40.625 574.406C41.5417 575.365 43.2396 576.344 45.7188 577.344C48.2188 578.344 50.2708 579.292 51.875 580.188C53.4792 581.062 54.8333 582.062 55.9375 583.188C57.0417 584.292 57.8854 585.562 58.4688 587C59.0521 588.417 59.3438 590.073 59.3438 591.969C59.3438 595.51 58.2396 598.385 56.0312 600.594C53.8229 602.802 50.7812 604.104 46.9062 604.5V610.719H41.9375V604.531C37.6667 604.073 34.3542 602.562 32 600C29.6667 597.417 28.5 593.99 28.5 589.719H37.5312C37.5312 592.198 38.1146 594.104 39.2812 595.438C40.4688 596.75 42.1667 597.406 44.375 597.406C46.2083 597.406 47.6562 596.927 48.7188 595.969C49.7812 594.99 50.3125 593.677 50.3125 592.031Z" fill="#BBBBBB"/>
<path d="M328.312 1022.03C328.312 1020.32 327.833 1018.97 326.875 1017.97C325.938 1016.95 324.333 1016.01 322.062 1015.16C319.792 1014.3 317.833 1013.46 316.188 1012.62C314.542 1011.77 313.125 1010.8 311.938 1009.72C310.771 1008.61 309.854 1007.32 309.188 1005.84C308.542 1004.36 308.219 1002.6 308.219 1000.56C308.219 997.042 309.344 994.156 311.594 991.906C313.844 989.656 316.833 988.344 320.562 987.969V981.281H325.562V988.062C329.25 988.583 332.135 990.125 334.219 992.688C336.302 995.229 337.344 998.531 337.344 1002.59H328.312C328.312 1000.09 327.792 998.229 326.75 997C325.729 995.75 324.354 995.125 322.625 995.125C320.917 995.125 319.594 995.615 318.656 996.594C317.719 997.552 317.25 998.885 317.25 1000.59C317.25 1002.18 317.708 1003.45 318.625 1004.41C319.542 1005.36 321.24 1006.34 323.719 1007.34C326.219 1008.34 328.271 1009.29 329.875 1010.19C331.479 1011.06 332.833 1012.06 333.938 1013.19C335.042 1014.29 335.885 1015.56 336.469 1017C337.052 1018.42 337.344 1020.07 337.344 1021.97C337.344 1025.51 336.24 1028.39 334.031 1030.59C331.823 1032.8 328.781 1034.1 324.906 1034.5V1040.72H319.938V1034.53C315.667 1034.07 312.354 1032.56 310 1030C307.667 1027.42 306.5 1023.99 306.5 1019.72H315.531C315.531 1022.2 316.115 1024.1 317.281 1025.44C318.469 1026.75 320.167 1027.41 322.375 1027.41C324.208 1027.41 325.656 1026.93 326.719 1025.97C327.781 1024.99 328.312 1023.68 328.312 1022.03Z" fill="#BBBBBB"/>
<path d="M50.3125 883.031C50.3125 881.323 49.8333 879.969 48.875 878.969C47.9375 877.948 46.3333 877.01 44.0625 876.156C41.7917 875.302 39.8333 874.458 38.1875 873.625C36.5417 872.771 35.125 871.802 33.9375 870.719C32.7708 869.615 31.8542 868.323 31.1875 866.844C30.5417 865.365 30.2188 863.604 30.2188 861.562C30.2188 858.042 31.3438 855.156 33.5938 852.906C35.8438 850.656 38.8333 849.344 42.5625 848.969V842.281H47.5625V849.062C51.25 849.583 54.1354 851.125 56.2188 853.688C58.3021 856.229 59.3438 859.531 59.3438 863.594H50.3125C50.3125 861.094 49.7917 859.229 48.75 858C47.7292 856.75 46.3542 856.125 44.625 856.125C42.9167 856.125 41.5938 856.615 40.6562 857.594C39.7188 858.552 39.25 859.885 39.25 861.594C39.25 863.177 39.7083 864.448 40.625 865.406C41.5417 866.365 43.2396 867.344 45.7188 868.344C48.2188 869.344 50.2708 870.292 51.875 871.188C53.4792 872.062 54.8333 873.062 55.9375 874.188C57.0417 875.292 57.8854 876.562 58.4688 878C59.0521 879.417 59.3438 881.073 59.3438 882.969C59.3438 886.51 58.2396 889.385 56.0312 891.594C53.8229 893.802 50.7812 895.104 46.9062 895.5V901.719H41.9375V895.531C37.6667 895.073 34.3542 893.562 32 891C29.6667 888.417 28.5 884.99 28.5 880.719H37.5312C37.5312 883.198 38.1146 885.104 39.2812 886.438C40.4688 887.75 42.1667 888.406 44.375 888.406C46.2083 888.406 47.6562 887.927 48.7188 886.969C49.7812 885.99 50.3125 884.677 50.3125 883.031Z" fill="#BBBBBB"/>
<path d="M132.312 1027.03C132.312 1025.32 131.833 1023.97 130.875 1022.97C129.938 1021.95 128.333 1021.01 126.062 1020.16C123.792 1019.3 121.833 1018.46 120.188 1017.62C118.542 1016.77 117.125 1015.8 115.938 1014.72C114.771 1013.61 113.854 1012.32 113.188 1010.84C112.542 1009.36 112.219 1007.6 112.219 1005.56C112.219 1002.04 113.344 999.156 115.594 996.906C117.844 994.656 120.833 993.344 124.562 992.969V986.281H129.562V993.062C133.25 993.583 136.135 995.125 138.219 997.688C140.302 1000.23 141.344 1003.53 141.344 1007.59H132.312C132.312 1005.09 131.792 1003.23 130.75 1002C129.729 1000.75 128.354 1000.12 126.625 1000.12C124.917 1000.12 123.594 1000.61 122.656 1001.59C121.719 1002.55 121.25 1003.89 121.25 1005.59C121.25 1007.18 121.708 1008.45 122.625 1009.41C123.542 1010.36 125.24 1011.34 127.719 1012.34C130.219 1013.34 132.271 1014.29 133.875 1015.19C135.479 1016.06 136.833 1017.06 137.938 1018.19C139.042 1019.29 139.885 1020.56 140.469 1022C141.052 1023.42 141.344 1025.07 141.344 1026.97C141.344 1030.51 140.24 1033.39 138.031 1035.59C135.823 1037.8 132.781 1039.1 128.906 1039.5V1045.72H123.938V1039.53C119.667 1039.07 116.354 1037.56 114 1035C111.667 1032.42 110.5 1028.99 110.5 1024.72H119.531C119.531 1027.2 120.115 1029.1 121.281 1030.44C122.469 1031.75 124.167 1032.41 126.375 1032.41C128.208 1032.41 129.656 1031.93 130.719 1030.97C131.781 1029.99 132.312 1028.68 132.312 1027.03Z" fill="#BBBBBB"/>
<path d="M118.312 410.031C118.312 408.323 117.833 406.969 116.875 405.969C115.938 404.948 114.333 404.01 112.062 403.156C109.792 402.302 107.833 401.458 106.188 400.625C104.542 399.771 103.125 398.802 101.938 397.719C100.771 396.615 99.8542 395.323 99.1875 393.844C98.5417 392.365 98.2188 390.604 98.2188 388.562C98.2188 385.042 99.3438 382.156 101.594 379.906C103.844 377.656 106.833 376.344 110.562 375.969V369.281H115.562V376.062C119.25 376.583 122.135 378.125 124.219 380.688C126.302 383.229 127.344 386.531 127.344 390.594H118.312C118.312 388.094 117.792 386.229 116.75 385C115.729 383.75 114.354 383.125 112.625 383.125C110.917 383.125 109.594 383.615 108.656 384.594C107.719 385.552 107.25 386.885 107.25 388.594C107.25 390.177 107.708 391.448 108.625 392.406C109.542 393.365 111.24 394.344 113.719 395.344C116.219 396.344 118.271 397.292 119.875 398.188C121.479 399.062 122.833 400.062 123.938 401.188C125.042 402.292 125.885 403.562 126.469 405C127.052 406.417 127.344 408.073 127.344 409.969C127.344 413.51 126.24 416.385 124.031 418.594C121.823 420.802 118.781 422.104 114.906 422.5V428.719H109.938V422.531C105.667 422.073 102.354 420.562 100 418C97.6667 415.417 96.5 411.99 96.5 407.719H105.531C105.531 410.198 106.115 412.104 107.281 413.438C108.469 414.75 110.167 415.406 112.375 415.406C114.208 415.406 115.656 414.927 116.719 413.969C117.781 412.99 118.312 411.677 118.312 410.031Z" fill="#BBBBBB"/>
<path d="M50.3125 275.031C50.3125 273.323 49.8333 271.969 48.875 270.969C47.9375 269.948 46.3333 269.01 44.0625 268.156C41.7917 267.302 39.8333 266.458 38.1875 265.625C36.5417 264.771 35.125 263.802 33.9375 262.719C32.7708 261.615 31.8542 260.323 31.1875 258.844C30.5417 257.365 30.2188 255.604 30.2188 253.562C30.2188 250.042 31.3438 247.156 33.5938 244.906C35.8438 242.656 38.8333 241.344 42.5625 240.969V234.281H47.5625V241.062C51.25 241.583 54.1354 243.125 56.2188 245.688C58.3021 248.229 59.3438 251.531 59.3438 255.594H50.3125C50.3125 253.094 49.7917 251.229 48.75 250C47.7292 248.75 46.3542 248.125 44.625 248.125C42.9167 248.125 41.5938 248.615 40.6562 249.594C39.7188 250.552 39.25 251.885 39.25 253.594C39.25 255.177 39.7083 256.448 40.625 257.406C41.5417 258.365 43.2396 259.344 45.7188 260.344C48.2188 261.344 50.2708 262.292 51.875 263.188C53.4792 264.062 54.8333 265.062 55.9375 266.188C57.0417 267.292 57.8854 268.562 58.4688 270C59.0521 271.417 59.3438 273.073 59.3438 274.969C59.3438 278.51 58.2396 281.385 56.0312 283.594C53.8229 285.802 50.7812 287.104 46.9062 287.5V293.719H41.9375V287.531C37.6667 287.073 34.3542 285.562 32 283C29.6667 280.417 28.5 276.99 28.5 272.719H37.5312C37.5312 275.198 38.1146 277.104 39.2812 278.438C40.4688 279.75 42.1667 280.406 44.375 280.406C46.2083 280.406 47.6562 279.927 48.7188 278.969C49.7812 277.99 50.3125 276.677 50.3125 275.031Z" fill="#BBBBBB"/>
<path d="M228.312 270.031C228.312 268.323 227.833 266.969 226.875 265.969C225.938 264.948 224.333 264.01 222.062 263.156C219.792 262.302 217.833 261.458 216.188 260.625C214.542 259.771 213.125 258.802 211.938 257.719C210.771 256.615 209.854 255.323 209.188 253.844C208.542 252.365 208.219 250.604 208.219 248.562C208.219 245.042 209.344 242.156 211.594 239.906C213.844 237.656 216.833 236.344 220.562 235.969V229.281H225.562V236.062C229.25 236.583 232.135 238.125 234.219 240.688C236.302 243.229 237.344 246.531 237.344 250.594H228.312C228.312 248.094 227.792 246.229 226.75 245C225.729 243.75 224.354 243.125 222.625 243.125C220.917 243.125 219.594 243.615 218.656 244.594C217.719 245.552 217.25 246.885 217.25 248.594C217.25 250.177 217.708 251.448 218.625 252.406C219.542 253.365 221.24 254.344 223.719 255.344C226.219 256.344 228.271 257.292 229.875 258.188C231.479 259.062 232.833 260.062 233.938 261.188C235.042 262.292 235.885 263.562 236.469 265C237.052 266.417 237.344 268.073 237.344 269.969C237.344 273.51 236.24 276.385 234.031 278.594C231.823 280.802 228.781 282.104 224.906 282.5V288.719H219.938V282.531C215.667 282.073 212.354 280.562 210 278C207.667 275.417 206.5 271.99 206.5 267.719H215.531C215.531 270.198 216.115 272.104 217.281 273.438C218.469 274.75 220.167 275.406 222.375 275.406C224.208 275.406 225.656 274.927 226.719 273.969C227.781 272.99 228.312 271.677 228.312 270.031Z" fill="#BBBBBB"/>
<path d="M132.312 717.031C132.312 715.323 131.833 713.969 130.875 712.969C129.938 711.948 128.333 711.01 126.062 710.156C123.792 709.302 121.833 708.458 120.188 707.625C118.542 706.771 117.125 705.802 115.938 704.719C114.771 703.615 113.854 702.323 113.188 700.844C112.542 699.365 112.219 697.604 112.219 695.562C112.219 692.042 113.344 689.156 115.594 686.906C117.844 684.656 120.833 683.344 124.562 682.969V676.281H129.562V683.062C133.25 683.583 136.135 685.125 138.219 687.688C140.302 690.229 141.344 693.531 141.344 697.594H132.312C132.312 695.094 131.792 693.229 130.75 692C129.729 690.75 128.354 690.125 126.625 690.125C124.917 690.125 123.594 690.615 122.656 691.594C121.719 692.552 121.25 693.885 121.25 695.594C121.25 697.177 121.708 698.448 122.625 699.406C123.542 700.365 125.24 701.344 127.719 702.344C130.219 703.344 132.271 704.292 133.875 705.188C135.479 706.062 136.833 707.062 137.938 708.188C139.042 709.292 139.885 710.562 140.469 712C141.052 713.417 141.344 715.073 141.344 716.969C141.344 720.51 140.24 723.385 138.031 725.594C135.823 727.802 132.781 729.104 128.906 729.5V735.719H123.938V729.531C119.667 729.073 116.354 727.562 114 725C111.667 722.417 110.5 718.99 110.5 714.719H119.531C119.531 717.198 120.115 719.104 121.281 720.438C122.469 721.75 124.167 722.406 126.375 722.406C128.208 722.406 129.656 721.927 130.719 720.969C131.781 719.99 132.312 718.677 132.312 717.031Z" fill="#BBBBBB"/>
<path d="M50.3125 52.0312C50.3125 50.3229 49.8333 48.9688 48.875 47.9688C47.9375 46.9479 46.3333 46.0104 44.0625 45.1562C41.7917 44.3021 39.8333 43.4583 38.1875 42.625C36.5417 41.7708 35.125 40.8021 33.9375 39.7188C32.7708 38.6146 31.8542 37.3229 31.1875 35.8438C30.5417 34.3646 30.2188 32.6042 30.2188 30.5625C30.2188 27.0417 31.3438 24.1562 33.5938 21.9062C35.8438 19.6562 38.8333 18.3438 42.5625 17.9688V11.2812H47.5625V18.0625C51.25 18.5833 54.1354 20.125 56.2188 22.6875C58.3021 25.2292 59.3438 28.5312 59.3438 32.5938H50.3125C50.3125 30.0938 49.7917 28.2292 48.75 27C47.7292 25.75 46.3542 25.125 44.625 25.125C42.9167 25.125 41.5938 25.6146 40.6562 26.5938C39.7188 27.5521 39.25 28.8854 39.25 30.5938C39.25 32.1771 39.7083 33.4479 40.625 34.4062C41.5417 35.3646 43.2396 36.3438 45.7188 37.3438C48.2188 38.3438 50.2708 39.2917 51.875 40.1875C53.4792 41.0625 54.8333 42.0625 55.9375 43.1875C57.0417 44.2917 57.8854 45.5625 58.4688 47C59.0521 48.4167 59.3438 50.0729 59.3438 51.9688C59.3438 55.5104 58.2396 58.3854 56.0312 60.5938C53.8229 62.8021 50.7812 64.1042 46.9062 64.5V70.7188H41.9375V64.5312C37.6667 64.0729 34.3542 62.5625 32 60C29.6667 57.4167 28.5 53.9896 28.5 49.7188H37.5312C37.5312 52.1979 38.1146 54.1042 39.2812 55.4375C40.4688 56.75 42.1667 57.4062 44.375 57.4062C46.2083 57.4062 47.6562 56.9271 48.7188 55.9688C49.7812 54.9896 50.3125 53.6771 50.3125 52.0312Z" fill="#BBBBBB"/>
<path d="M1836.31 726.031C1836.31 724.323 1835.83 722.969 1834.88 721.969C1833.94 720.948 1832.33 720.01 1830.06 719.156C1827.79 718.302 1825.83 717.458 1824.19 716.625C1822.54 715.771 1821.12 714.802 1819.94 713.719C1818.77 712.615 1817.85 711.323 1817.19 709.844C1816.54 708.365 1816.22 706.604 1816.22 704.562C1816.22 701.042 1817.34 698.156 1819.59 695.906C1821.84 693.656 1824.83 692.344 1828.56 691.969V685.281H1833.56V692.062C1837.25 692.583 1840.14 694.125 1842.22 696.688C1844.3 699.229 1845.34 702.531 1845.34 706.594H1836.31C1836.31 704.094 1835.79 702.229 1834.75 701C1833.73 699.75 1832.35 699.125 1830.62 699.125C1828.92 699.125 1827.59 699.615 1826.66 700.594C1825.72 701.552 1825.25 702.885 1825.25 704.594C1825.25 706.177 1825.71 707.448 1826.62 708.406C1827.54 709.365 1829.24 710.344 1831.72 711.344C1834.22 712.344 1836.27 713.292 1837.88 714.188C1839.48 715.062 1840.83 716.062 1841.94 717.188C1843.04 718.292 1843.89 719.562 1844.47 721C1845.05 722.417 1845.34 724.073 1845.34 725.969C1845.34 729.51 1844.24 732.385 1842.03 734.594C1839.82 736.802 1836.78 738.104 1832.91 738.5V744.719H1827.94V738.531C1823.67 738.073 1820.35 736.562 1818 734C1815.67 731.417 1814.5 727.99 1814.5 723.719H1823.53C1823.53 726.198 1824.11 728.104 1825.28 729.438C1826.47 730.75 1828.17 731.406 1830.38 731.406C1832.21 731.406 1833.66 730.927 1834.72 729.969C1835.78 728.99 1836.31 727.677 1836.31 726.031Z" fill="#BBBBBB"/>
<path d="M1836.31 1017.03C1836.31 1015.32 1835.83 1013.97 1834.88 1012.97C1833.94 1011.95 1832.33 1011.01 1830.06 1010.16C1827.79 1009.3 1825.83 1008.46 1824.19 1007.62C1822.54 1006.77 1821.12 1005.8 1819.94 1004.72C1818.77 1003.61 1817.85 1002.32 1817.19 1000.84C1816.54 999.365 1816.22 997.604 1816.22 995.562C1816.22 992.042 1817.34 989.156 1819.59 986.906C1821.84 984.656 1824.83 983.344 1828.56 982.969V976.281H1833.56V983.062C1837.25 983.583 1840.14 985.125 1842.22 987.688C1844.3 990.229 1845.34 993.531 1845.34 997.594H1836.31C1836.31 995.094 1835.79 993.229 1834.75 992C1833.73 990.75 1832.35 990.125 1830.62 990.125C1828.92 990.125 1827.59 990.615 1826.66 991.594C1825.72 992.552 1825.25 993.885 1825.25 995.594C1825.25 997.177 1825.71 998.448 1826.62 999.406C1827.54 1000.36 1829.24 1001.34 1831.72 1002.34C1834.22 1003.34 1836.27 1004.29 1837.88 1005.19C1839.48 1006.06 1840.83 1007.06 1841.94 1008.19C1843.04 1009.29 1843.89 1010.56 1844.47 1012C1845.05 1013.42 1845.34 1015.07 1845.34 1016.97C1845.34 1020.51 1844.24 1023.39 1842.03 1025.59C1839.82 1027.8 1836.78 1029.1 1832.91 1029.5V1035.72H1827.94V1029.53C1823.67 1029.07 1820.35 1027.56 1818 1025C1815.67 1022.42 1814.5 1018.99 1814.5 1014.72H1823.53C1823.53 1017.2 1824.11 1019.1 1825.28 1020.44C1826.47 1021.75 1828.17 1022.41 1830.38 1022.41C1832.21 1022.41 1833.66 1021.93 1834.72 1020.97C1835.78 1019.99 1836.31 1018.68 1836.31 1017.03Z" fill="#BBBBBB"/>
<path d="M1836.31 409.031C1836.31 407.323 1835.83 405.969 1834.88 404.969C1833.94 403.948 1832.33 403.01 1830.06 402.156C1827.79 401.302 1825.83 400.458 1824.19 399.625C1822.54 398.771 1821.12 397.802 1819.94 396.719C1818.77 395.615 1817.85 394.323 1817.19 392.844C1816.54 391.365 1816.22 389.604 1816.22 387.562C1816.22 384.042 1817.34 381.156 1819.59 378.906C1821.84 376.656 1824.83 375.344 1828.56 374.969V368.281H1833.56V375.062C1837.25 375.583 1840.14 377.125 1842.22 379.688C1844.3 382.229 1845.34 385.531 1845.34 389.594H1836.31C1836.31 387.094 1835.79 385.229 1834.75 384C1833.73 382.75 1832.35 382.125 1830.62 382.125C1828.92 382.125 1827.59 382.615 1826.66 383.594C1825.72 384.552 1825.25 385.885 1825.25 387.594C1825.25 389.177 1825.71 390.448 1826.62 391.406C1827.54 392.365 1829.24 393.344 1831.72 394.344C1834.22 395.344 1836.27 396.292 1837.88 397.188C1839.48 398.062 1840.83 399.062 1841.94 400.188C1843.04 401.292 1843.89 402.562 1844.47 404C1845.05 405.417 1845.34 407.073 1845.34 408.969C1845.34 412.51 1844.24 415.385 1842.03 417.594C1839.82 419.802 1836.78 421.104 1832.91 421.5V427.719H1827.94V421.531C1823.67 421.073 1820.35 419.562 1818 417C1815.67 414.417 1814.5 410.99 1814.5 406.719H1823.53C1823.53 409.198 1824.11 411.104 1825.28 412.438C1826.47 413.75 1828.17 414.406 1830.38 414.406C1832.21 414.406 1833.66 413.927 1834.72 412.969C1835.78 411.99 1836.31 410.677 1836.31 409.031Z" fill="#BBBBBB"/>
<path d="M1836.31 186.031C1836.31 184.323 1835.83 182.969 1834.88 181.969C1833.94 180.948 1832.33 180.01 1830.06 179.156C1827.79 178.302 1825.83 177.458 1824.19 176.625C1822.54 175.771 1821.12 174.802 1819.94 173.719C1818.77 172.615 1817.85 171.323 1817.19 169.844C1816.54 168.365 1816.22 166.604 1816.22 164.562C1816.22 161.042 1817.34 158.156 1819.59 155.906C1821.84 153.656 1824.83 152.344 1828.56 151.969V145.281H1833.56V152.062C1837.25 152.583 1840.14 154.125 1842.22 156.688C1844.3 159.229 1845.34 162.531 1845.34 166.594H1836.31C1836.31 164.094 1835.79 162.229 1834.75 161C1833.73 159.75 1832.35 159.125 1830.62 159.125C1828.92 159.125 1827.59 159.615 1826.66 160.594C1825.72 161.552 1825.25 162.885 1825.25 164.594C1825.25 166.177 1825.71 167.448 1826.62 168.406C1827.54 169.365 1829.24 170.344 1831.72 171.344C1834.22 172.344 1836.27 173.292 1837.88 174.188C1839.48 175.062 1840.83 176.062 1841.94 177.188C1843.04 178.292 1843.89 179.562 1844.47 181C1845.05 182.417 1845.34 184.073 1845.34 185.969C1845.34 189.51 1844.24 192.385 1842.03 194.594C1839.82 196.802 1836.78 198.104 1832.91 198.5V204.719H1827.94V198.531C1823.67 198.073 1820.35 196.562 1818 194C1815.67 191.417 1814.5 187.99 1814.5 183.719H1823.53C1823.53 186.198 1824.11 188.104 1825.28 189.438C1826.47 190.75 1828.17 191.406 1830.38 191.406C1832.21 191.406 1833.66 190.927 1834.72 189.969C1835.78 188.99 1836.31 187.677 1836.31 186.031Z" fill="#BBBBBB"/>
<path d="M1700.31 592.031C1700.31 590.323 1699.83 588.969 1698.88 587.969C1697.94 586.948 1696.33 586.01 1694.06 585.156C1691.79 584.302 1689.83 583.458 1688.19 582.625C1686.54 581.771 1685.12 580.802 1683.94 579.719C1682.77 578.615 1681.85 577.323 1681.19 575.844C1680.54 574.365 1680.22 572.604 1680.22 570.562C1680.22 567.042 1681.34 564.156 1683.59 561.906C1685.84 559.656 1688.83 558.344 1692.56 557.969V551.281H1697.56V558.062C1701.25 558.583 1704.14 560.125 1706.22 562.688C1708.3 565.229 1709.34 568.531 1709.34 572.594H1700.31C1700.31 570.094 1699.79 568.229 1698.75 567C1697.73 565.75 1696.35 565.125 1694.62 565.125C1692.92 565.125 1691.59 565.615 1690.66 566.594C1689.72 567.552 1689.25 568.885 1689.25 570.594C1689.25 572.177 1689.71 573.448 1690.62 574.406C1691.54 575.365 1693.24 576.344 1695.72 577.344C1698.22 578.344 1700.27 579.292 1701.88 580.188C1703.48 581.062 1704.83 582.062 1705.94 583.188C1707.04 584.292 1707.89 585.562 1708.47 587C1709.05 588.417 1709.34 590.073 1709.34 591.969C1709.34 595.51 1708.24 598.385 1706.03 600.594C1703.82 602.802 1700.78 604.104 1696.91 604.5V610.719H1691.94V604.531C1687.67 604.073 1684.35 602.562 1682 600C1679.67 597.417 1678.5 593.99 1678.5 589.719H1687.53C1687.53 592.198 1688.11 594.104 1689.28 595.438C1690.47 596.75 1692.17 597.406 1694.38 597.406C1696.21 597.406 1697.66 596.927 1698.72 595.969C1699.78 594.99 1700.31 593.677 1700.31 592.031Z" fill="#BBBBBB"/>
<path d="M1700.31 883.031C1700.31 881.323 1699.83 879.969 1698.88 878.969C1697.94 877.948 1696.33 877.01 1694.06 876.156C1691.79 875.302 1689.83 874.458 1688.19 873.625C1686.54 872.771 1685.12 871.802 1683.94 870.719C1682.77 869.615 1681.85 868.323 1681.19 866.844C1680.54 865.365 1680.22 863.604 1680.22 861.562C1680.22 858.042 1681.34 855.156 1683.59 852.906C1685.84 850.656 1688.83 849.344 1692.56 848.969V842.281H1697.56V849.062C1701.25 849.583 1704.14 851.125 1706.22 853.688C1708.3 856.229 1709.34 859.531 1709.34 863.594H1700.31C1700.31 861.094 1699.79 859.229 1698.75 858C1697.73 856.75 1696.35 856.125 1694.62 856.125C1692.92 856.125 1691.59 856.615 1690.66 857.594C1689.72 858.552 1689.25 859.885 1689.25 861.594C1689.25 863.177 1689.71 864.448 1690.62 865.406C1691.54 866.365 1693.24 867.344 1695.72 868.344C1698.22 869.344 1700.27 870.292 1701.88 871.188C1703.48 872.062 1704.83 873.062 1705.94 874.188C1707.04 875.292 1707.89 876.562 1708.47 878C1709.05 879.417 1709.34 881.073 1709.34 882.969C1709.34 886.51 1708.24 889.385 1706.03 891.594C1703.82 893.802 1700.78 895.104 1696.91 895.5V901.719H1691.94V895.531C1687.67 895.073 1684.35 893.562 1682 891C1679.67 888.417 1678.5 884.99 1678.5 880.719H1687.53C1687.53 883.198 1688.11 885.104 1689.28 886.438C1690.47 887.75 1692.17 888.406 1694.38 888.406C1696.21 888.406 1697.66 887.927 1698.72 886.969C1699.78 885.99 1700.31 884.677 1700.31 883.031Z" fill="#BBBBBB"/>
<path d="M1700.31 275.031C1700.31 273.323 1699.83 271.969 1698.88 270.969C1697.94 269.948 1696.33 269.01 1694.06 268.156C1691.79 267.302 1689.83 266.458 1688.19 265.625C1686.54 264.771 1685.12 263.802 1683.94 262.719C1682.77 261.615 1681.85 260.323 1681.19 258.844C1680.54 257.365 1680.22 255.604 1680.22 253.562C1680.22 250.042 1681.34 247.156 1683.59 244.906C1685.84 242.656 1688.83 241.344 1692.56 240.969V234.281H1697.56V241.062C1701.25 241.583 1704.14 243.125 1706.22 245.688C1708.3 248.229 1709.34 251.531 1709.34 255.594H1700.31C1700.31 253.094 1699.79 251.229 1698.75 250C1697.73 248.75 1696.35 248.125 1694.62 248.125C1692.92 248.125 1691.59 248.615 1690.66 249.594C1689.72 250.552 1689.25 251.885 1689.25 253.594C1689.25 255.177 1689.71 256.448 1690.62 257.406C1691.54 258.365 1693.24 259.344 1695.72 260.344C1698.22 261.344 1700.27 262.292 1701.88 263.188C1703.48 264.062 1704.83 265.062 1705.94 266.188C1707.04 267.292 1707.89 268.562 1708.47 270C1709.05 271.417 1709.34 273.073 1709.34 274.969C1709.34 278.51 1708.24 281.385 1706.03 283.594C1703.82 285.802 1700.78 287.104 1696.91 287.5V293.719H1691.94V287.531C1687.67 287.073 1684.35 285.562 1682 283C1679.67 280.417 1678.5 276.99 1678.5 272.719H1687.53C1687.53 275.198 1688.11 277.104 1689.28 278.438C1690.47 279.75 1692.17 280.406 1694.38 280.406C1696.21 280.406 1697.66 279.927 1698.72 278.969C1699.78 277.99 1700.31 276.677 1700.31 275.031Z" fill="#BBBBBB"/>
<path d="M1700.31 52.0312C1700.31 50.3229 1699.83 48.9688 1698.88 47.9688C1697.94 46.9479 1696.33 46.0104 1694.06 45.1562C1691.79 44.3021 1689.83 43.4583 1688.19 42.625C1686.54 41.7708 1685.12 40.8021 1683.94 39.7188C1682.77 38.6146 1681.85 37.3229 1681.19 35.8438C1680.54 34.3646 1680.22 32.6042 1680.22 30.5625C1680.22 27.0417 1681.34 24.1562 1683.59 21.9062C1685.84 19.6562 1688.83 18.3438 1692.56 17.9688V11.2812H1697.56V18.0625C1701.25 18.5833 1704.14 20.125 1706.22 22.6875C1708.3 25.2292 1709.34 28.5312 1709.34 32.5938H1700.31C1700.31 30.0938 1699.79 28.2292 1698.75 27C1697.73 25.75 1696.35 25.125 1694.62 25.125C1692.92 25.125 1691.59 25.6146 1690.66 26.5938C1689.72 27.5521 1689.25 28.8854 1689.25 30.5938C1689.25 32.1771 1689.71 33.4479 1690.62 34.4062C1691.54 35.3646 1693.24 36.3438 1695.72 37.3438C1698.22 38.3438 1700.27 39.2917 1701.88 40.1875C1703.48 41.0625 1704.83 42.0625 1705.94 43.1875C1707.04 44.2917 1707.89 45.5625 1708.47 47C1709.05 48.4167 1709.34 50.0729 1709.34 51.9688C1709.34 55.5104 1708.24 58.3854 1706.03 60.5938C1703.82 62.8021 1700.78 64.1042 1696.91 64.5V70.7188H1691.94V64.5312C1687.67 64.0729 1684.35 62.5625 1682 60C1679.67 57.4167 1678.5 53.9896 1678.5 49.7188H1687.53C1687.53 52.1979 1688.11 54.1042 1689.28 55.4375C1690.47 56.75 1692.17 57.4062 1694.38 57.4062C1696.21 57.4062 1697.66 56.9271 1698.72 55.9688C1699.78 54.9896 1700.31 53.6771 1700.31 52.0312Z" fill="#BBBBBB"/>
<path d="M1592.31 726.031C1592.31 724.323 1591.83 722.969 1590.88 721.969C1589.94 720.948 1588.33 720.01 1586.06 719.156C1583.79 718.302 1581.83 717.458 1580.19 716.625C1578.54 715.771 1577.12 714.802 1575.94 713.719C1574.77 712.615 1573.85 711.323 1573.19 709.844C1572.54 708.365 1572.22 706.604 1572.22 704.562C1572.22 701.042 1573.34 698.156 1575.59 695.906C1577.84 693.656 1580.83 692.344 1584.56 691.969V685.281H1589.56V692.062C1593.25 692.583 1596.14 694.125 1598.22 696.688C1600.3 699.229 1601.34 702.531 1601.34 706.594H1592.31C1592.31 704.094 1591.79 702.229 1590.75 701C1589.73 699.75 1588.35 699.125 1586.62 699.125C1584.92 699.125 1583.59 699.615 1582.66 700.594C1581.72 701.552 1581.25 702.885 1581.25 704.594C1581.25 706.177 1581.71 707.448 1582.62 708.406C1583.54 709.365 1585.24 710.344 1587.72 711.344C1590.22 712.344 1592.27 713.292 1593.88 714.188C1595.48 715.062 1596.83 716.062 1597.94 717.188C1599.04 718.292 1599.89 719.562 1600.47 721C1601.05 722.417 1601.34 724.073 1601.34 725.969C1601.34 729.51 1600.24 732.385 1598.03 734.594C1595.82 736.802 1592.78 738.104 1588.91 738.5V744.719H1583.94V738.531C1579.67 738.073 1576.35 736.562 1574 734C1571.67 731.417 1570.5 727.99 1570.5 723.719H1579.53C1579.53 726.198 1580.11 728.104 1581.28 729.438C1582.47 730.75 1584.17 731.406 1586.38 731.406C1588.21 731.406 1589.66 730.927 1590.72 729.969C1591.78 728.99 1592.31 727.677 1592.31 726.031Z" fill="#BBBBBB"/>
<path d="M1592.31 1017.03C1592.31 1015.32 1591.83 1013.97 1590.88 1012.97C1589.94 1011.95 1588.33 1011.01 1586.06 1010.16C1583.79 1009.3 1581.83 1008.46 1580.19 1007.62C1578.54 1006.77 1577.12 1005.8 1575.94 1004.72C1574.77 1003.61 1573.85 1002.32 1573.19 1000.84C1572.54 999.365 1572.22 997.604 1572.22 995.562C1572.22 992.042 1573.34 989.156 1575.59 986.906C1577.84 984.656 1580.83 983.344 1584.56 982.969V976.281H1589.56V983.062C1593.25 983.583 1596.14 985.125 1598.22 987.688C1600.3 990.229 1601.34 993.531 1601.34 997.594H1592.31C1592.31 995.094 1591.79 993.229 1590.75 992C1589.73 990.75 1588.35 990.125 1586.62 990.125C1584.92 990.125 1583.59 990.615 1582.66 991.594C1581.72 992.552 1581.25 993.885 1581.25 995.594C1581.25 997.177 1581.71 998.448 1582.62 999.406C1583.54 1000.36 1585.24 1001.34 1587.72 1002.34C1590.22 1003.34 1592.27 1004.29 1593.88 1005.19C1595.48 1006.06 1596.83 1007.06 1597.94 1008.19C1599.04 1009.29 1599.89 1010.56 1600.47 1012C1601.05 1013.42 1601.34 1015.07 1601.34 1016.97C1601.34 1020.51 1600.24 1023.39 1598.03 1025.59C1595.82 1027.8 1592.78 1029.1 1588.91 1029.5V1035.72H1583.94V1029.53C1579.67 1029.07 1576.35 1027.56 1574 1025C1571.67 1022.42 1570.5 1018.99 1570.5 1014.72H1579.53C1579.53 1017.2 1580.11 1019.1 1581.28 1020.44C1582.47 1021.75 1584.17 1022.41 1586.38 1022.41C1588.21 1022.41 1589.66 1021.93 1590.72 1020.97C1591.78 1019.99 1592.31 1018.68 1592.31 1017.03Z" fill="#BBBBBB"/>
<path d="M1592.31 409.031C1592.31 407.323 1591.83 405.969 1590.88 404.969C1589.94 403.948 1588.33 403.01 1586.06 402.156C1583.79 401.302 1581.83 400.458 1580.19 399.625C1578.54 398.771 1577.12 397.802 1575.94 396.719C1574.77 395.615 1573.85 394.323 1573.19 392.844C1572.54 391.365 1572.22 389.604 1572.22 387.562C1572.22 384.042 1573.34 381.156 1575.59 378.906C1577.84 376.656 1580.83 375.344 1584.56 374.969V368.281H1589.56V375.062C1593.25 375.583 1596.14 377.125 1598.22 379.688C1600.3 382.229 1601.34 385.531 1601.34 389.594H1592.31C1592.31 387.094 1591.79 385.229 1590.75 384C1589.73 382.75 1588.35 382.125 1586.62 382.125C1584.92 382.125 1583.59 382.615 1582.66 383.594C1581.72 384.552 1581.25 385.885 1581.25 387.594C1581.25 389.177 1581.71 390.448 1582.62 391.406C1583.54 392.365 1585.24 393.344 1587.72 394.344C1590.22 395.344 1592.27 396.292 1593.88 397.188C1595.48 398.062 1596.83 399.062 1597.94 400.188C1599.04 401.292 1599.89 402.562 1600.47 404C1601.05 405.417 1601.34 407.073 1601.34 408.969C1601.34 412.51 1600.24 415.385 1598.03 417.594C1595.82 419.802 1592.78 421.104 1588.91 421.5V427.719H1583.94V421.531C1579.67 421.073 1576.35 419.562 1574 417C1571.67 414.417 1570.5 410.99 1570.5 406.719H1579.53C1579.53 409.198 1580.11 411.104 1581.28 412.438C1582.47 413.75 1584.17 414.406 1586.38 414.406C1588.21 414.406 1589.66 413.927 1590.72 412.969C1591.78 411.99 1592.31 410.677 1592.31 409.031Z" fill="#BBBBBB"/>
<path d="M1592.31 186.031C1592.31 184.323 1591.83 182.969 1590.88 181.969C1589.94 180.948 1588.33 180.01 1586.06 179.156C1583.79 178.302 1581.83 177.458 1580.19 176.625C1578.54 175.771 1577.12 174.802 1575.94 173.719C1574.77 172.615 1573.85 171.323 1573.19 169.844C1572.54 168.365 1572.22 166.604 1572.22 164.562C1572.22 161.042 1573.34 158.156 1575.59 155.906C1577.84 153.656 1580.83 152.344 1584.56 151.969V145.281H1589.56V152.062C1593.25 152.583 1596.14 154.125 1598.22 156.688C1600.3 159.229 1601.34 162.531 1601.34 166.594H1592.31C1592.31 164.094 1591.79 162.229 1590.75 161C1589.73 159.75 1588.35 159.125 1586.62 159.125C1584.92 159.125 1583.59 159.615 1582.66 160.594C1581.72 161.552 1581.25 162.885 1581.25 164.594C1581.25 166.177 1581.71 167.448 1582.62 168.406C1583.54 169.365 1585.24 170.344 1587.72 171.344C1590.22 172.344 1592.27 173.292 1593.88 174.188C1595.48 175.062 1596.83 176.062 1597.94 177.188C1599.04 178.292 1599.89 179.562 1600.47 181C1601.05 182.417 1601.34 184.073 1601.34 185.969C1601.34 189.51 1600.24 192.385 1598.03 194.594C1595.82 196.802 1592.78 198.104 1588.91 198.5V204.719H1583.94V198.531C1579.67 198.073 1576.35 196.562 1574 194C1571.67 191.417 1570.5 187.99 1570.5 183.719H1579.53C1579.53 186.198 1580.11 188.104 1581.28 189.438C1582.47 190.75 1584.17 191.406 1586.38 191.406C1588.21 191.406 1589.66 190.927 1590.72 189.969C1591.78 188.99 1592.31 187.677 1592.31 186.031Z" fill="#BBBBBB"/>
<path d="M1484.31 592.031C1484.31 590.323 1483.83 588.969 1482.88 587.969C1481.94 586.948 1480.33 586.01 1478.06 585.156C1475.79 584.302 1473.83 583.458 1472.19 582.625C1470.54 581.771 1469.12 580.802 1467.94 579.719C1466.77 578.615 1465.85 577.323 1465.19 575.844C1464.54 574.365 1464.22 572.604 1464.22 570.562C1464.22 567.042 1465.34 564.156 1467.59 561.906C1469.84 559.656 1472.83 558.344 1476.56 557.969V551.281H1481.56V558.062C1485.25 558.583 1488.14 560.125 1490.22 562.688C1492.3 565.229 1493.34 568.531 1493.34 572.594H1484.31C1484.31 570.094 1483.79 568.229 1482.75 567C1481.73 565.75 1480.35 565.125 1478.62 565.125C1476.92 565.125 1475.59 565.615 1474.66 566.594C1473.72 567.552 1473.25 568.885 1473.25 570.594C1473.25 572.177 1473.71 573.448 1474.62 574.406C1475.54 575.365 1477.24 576.344 1479.72 577.344C1482.22 578.344 1484.27 579.292 1485.88 580.188C1487.48 581.062 1488.83 582.062 1489.94 583.188C1491.04 584.292 1491.89 585.562 1492.47 587C1493.05 588.417 1493.34 590.073 1493.34 591.969C1493.34 595.51 1492.24 598.385 1490.03 600.594C1487.82 602.802 1484.78 604.104 1480.91 604.5V610.719H1475.94V604.531C1471.67 604.073 1468.35 602.562 1466 600C1463.67 597.417 1462.5 593.99 1462.5 589.719H1471.53C1471.53 592.198 1472.11 594.104 1473.28 595.438C1474.47 596.75 1476.17 597.406 1478.38 597.406C1480.21 597.406 1481.66 596.927 1482.72 595.969C1483.78 594.99 1484.31 593.677 1484.31 592.031Z" fill="#BBBBBB"/>
<path d="M1484.31 883.031C1484.31 881.323 1483.83 879.969 1482.88 878.969C1481.94 877.948 1480.33 877.01 1478.06 876.156C1475.79 875.302 1473.83 874.458 1472.19 873.625C1470.54 872.771 1469.12 871.802 1467.94 870.719C1466.77 869.615 1465.85 868.323 1465.19 866.844C1464.54 865.365 1464.22 863.604 1464.22 861.562C1464.22 858.042 1465.34 855.156 1467.59 852.906C1469.84 850.656 1472.83 849.344 1476.56 848.969V842.281H1481.56V849.062C1485.25 849.583 1488.14 851.125 1490.22 853.688C1492.3 856.229 1493.34 859.531 1493.34 863.594H1484.31C1484.31 861.094 1483.79 859.229 1482.75 858C1481.73 856.75 1480.35 856.125 1478.62 856.125C1476.92 856.125 1475.59 856.615 1474.66 857.594C1473.72 858.552 1473.25 859.885 1473.25 861.594C1473.25 863.177 1473.71 864.448 1474.62 865.406C1475.54 866.365 1477.24 867.344 1479.72 868.344C1482.22 869.344 1484.27 870.292 1485.88 871.188C1487.48 872.062 1488.83 873.062 1489.94 874.188C1491.04 875.292 1491.89 876.562 1492.47 878C1493.05 879.417 1493.34 881.073 1493.34 882.969C1493.34 886.51 1492.24 889.385 1490.03 891.594C1487.82 893.802 1484.78 895.104 1480.91 895.5V901.719H1475.94V895.531C1471.67 895.073 1468.35 893.562 1466 891C1463.67 888.417 1462.5 884.99 1462.5 880.719H1471.53C1471.53 883.198 1472.11 885.104 1473.28 886.438C1474.47 887.75 1476.17 888.406 1478.38 888.406C1480.21 888.406 1481.66 887.927 1482.72 886.969C1483.78 885.99 1484.31 884.677 1484.31 883.031Z" fill="#BBBBBB"/>
<path d="M1484.31 275.031C1484.31 273.323 1483.83 271.969 1482.88 270.969C1481.94 269.948 1480.33 269.01 1478.06 268.156C1475.79 267.302 1473.83 266.458 1472.19 265.625C1470.54 264.771 1469.12 263.802 1467.94 262.719C1466.77 261.615 1465.85 260.323 1465.19 258.844C1464.54 257.365 1464.22 255.604 1464.22 253.562C1464.22 250.042 1465.34 247.156 1467.59 244.906C1469.84 242.656 1472.83 241.344 1476.56 240.969V234.281H1481.56V241.062C1485.25 241.583 1488.14 243.125 1490.22 245.688C1492.3 248.229 1493.34 251.531 1493.34 255.594H1484.31C1484.31 253.094 1483.79 251.229 1482.75 250C1481.73 248.75 1480.35 248.125 1478.62 248.125C1476.92 248.125 1475.59 248.615 1474.66 249.594C1473.72 250.552 1473.25 251.885 1473.25 253.594C1473.25 255.177 1473.71 256.448 1474.62 257.406C1475.54 258.365 1477.24 259.344 1479.72 260.344C1482.22 261.344 1484.27 262.292 1485.88 263.188C1487.48 264.062 1488.83 265.062 1489.94 266.188C1491.04 267.292 1491.89 268.562 1492.47 270C1493.05 271.417 1493.34 273.073 1493.34 274.969C1493.34 278.51 1492.24 281.385 1490.03 283.594C1487.82 285.802 1484.78 287.104 1480.91 287.5V293.719H1475.94V287.531C1471.67 287.073 1468.35 285.562 1466 283C1463.67 280.417 1462.5 276.99 1462.5 272.719H1471.53C1471.53 275.198 1472.11 277.104 1473.28 278.438C1474.47 279.75 1476.17 280.406 1478.38 280.406C1480.21 280.406 1481.66 279.927 1482.72 278.969C1483.78 277.99 1484.31 276.677 1484.31 275.031Z" fill="#BBBBBB"/>
<path d="M1484.31 52.0312C1484.31 50.3229 1483.83 48.9688 1482.88 47.9688C1481.94 46.9479 1480.33 46.0104 1478.06 45.1562C1475.79 44.3021 1473.83 43.4583 1472.19 42.625C1470.54 41.7708 1469.12 40.8021 1467.94 39.7188C1466.77 38.6146 1465.85 37.3229 1465.19 35.8438C1464.54 34.3646 1464.22 32.6042 1464.22 30.5625C1464.22 27.0417 1465.34 24.1562 1467.59 21.9062C1469.84 19.6562 1472.83 18.3438 1476.56 17.9688V11.2812H1481.56V18.0625C1485.25 18.5833 1488.14 20.125 1490.22 22.6875C1492.3 25.2292 1493.34 28.5312 1493.34 32.5938H1484.31C1484.31 30.0938 1483.79 28.2292 1482.75 27C1481.73 25.75 1480.35 25.125 1478.62 25.125C1476.92 25.125 1475.59 25.6146 1474.66 26.5938C1473.72 27.5521 1473.25 28.8854 1473.25 30.5938C1473.25 32.1771 1473.71 33.4479 1474.62 34.4062C1475.54 35.3646 1477.24 36.3438 1479.72 37.3438C1482.22 38.3438 1484.27 39.2917 1485.88 40.1875C1487.48 41.0625 1488.83 42.0625 1489.94 43.1875C1491.04 44.2917 1491.89 45.5625 1492.47 47C1493.05 48.4167 1493.34 50.0729 1493.34 51.9688C1493.34 55.5104 1492.24 58.3854 1490.03 60.5938C1487.82 62.8021 1484.78 64.1042 1480.91 64.5V70.7188H1475.94V64.5312C1471.67 64.0729 1468.35 62.5625 1466 60C1463.67 57.4167 1462.5 53.9896 1462.5 49.7188H1471.53C1471.53 52.1979 1472.11 54.1042 1473.28 55.4375C1474.47 56.75 1476.17 57.4062 1478.38 57.4062C1480.21 57.4062 1481.66 56.9271 1482.72 55.9688C1483.78 54.9896 1484.31 53.6771 1484.31 52.0312Z" fill="#BBBBBB"/>
<path d="M1356.31 731.031C1356.31 729.323 1355.83 727.969 1354.88 726.969C1353.94 725.948 1352.33 725.01 1350.06 724.156C1347.79 723.302 1345.83 722.458 1344.19 721.625C1342.54 720.771 1341.12 719.802 1339.94 718.719C1338.77 717.615 1337.85 716.323 1337.19 714.844C1336.54 713.365 1336.22 711.604 1336.22 709.562C1336.22 706.042 1337.34 703.156 1339.59 700.906C1341.84 698.656 1344.83 697.344 1348.56 696.969V690.281H1353.56V697.062C1357.25 697.583 1360.14 699.125 1362.22 701.688C1364.3 704.229 1365.34 707.531 1365.34 711.594H1356.31C1356.31 709.094 1355.79 707.229 1354.75 706C1353.73 704.75 1352.35 704.125 1350.62 704.125C1348.92 704.125 1347.59 704.615 1346.66 705.594C1345.72 706.552 1345.25 707.885 1345.25 709.594C1345.25 711.177 1345.71 712.448 1346.62 713.406C1347.54 714.365 1349.24 715.344 1351.72 716.344C1354.22 717.344 1356.27 718.292 1357.88 719.188C1359.48 720.062 1360.83 721.062 1361.94 722.188C1363.04 723.292 1363.89 724.562 1364.47 726C1365.05 727.417 1365.34 729.073 1365.34 730.969C1365.34 734.51 1364.24 737.385 1362.03 739.594C1359.82 741.802 1356.78 743.104 1352.91 743.5V749.719H1347.94V743.531C1343.67 743.073 1340.35 741.562 1338 739C1335.67 736.417 1334.5 732.99 1334.5 728.719H1343.53C1343.53 731.198 1344.11 733.104 1345.28 734.438C1346.47 735.75 1348.17 736.406 1350.38 736.406C1352.21 736.406 1353.66 735.927 1354.72 734.969C1355.78 733.99 1356.31 732.677 1356.31 731.031Z" fill="#BBBBBB"/>
<path d="M1356.31 1022.03C1356.31 1020.32 1355.83 1018.97 1354.88 1017.97C1353.94 1016.95 1352.33 1016.01 1350.06 1015.16C1347.79 1014.3 1345.83 1013.46 1344.19 1012.62C1342.54 1011.77 1341.12 1010.8 1339.94 1009.72C1338.77 1008.61 1337.85 1007.32 1337.19 1005.84C1336.54 1004.36 1336.22 1002.6 1336.22 1000.56C1336.22 997.042 1337.34 994.156 1339.59 991.906C1341.84 989.656 1344.83 988.344 1348.56 987.969V981.281H1353.56V988.062C1357.25 988.583 1360.14 990.125 1362.22 992.688C1364.3 995.229 1365.34 998.531 1365.34 1002.59H1356.31C1356.31 1000.09 1355.79 998.229 1354.75 997C1353.73 995.75 1352.35 995.125 1350.62 995.125C1348.92 995.125 1347.59 995.615 1346.66 996.594C1345.72 997.552 1345.25 998.885 1345.25 1000.59C1345.25 1002.18 1345.71 1003.45 1346.62 1004.41C1347.54 1005.36 1349.24 1006.34 1351.72 1007.34C1354.22 1008.34 1356.27 1009.29 1357.88 1010.19C1359.48 1011.06 1360.83 1012.06 1361.94 1013.19C1363.04 1014.29 1363.89 1015.56 1364.47 1017C1365.05 1018.42 1365.34 1020.07 1365.34 1021.97C1365.34 1025.51 1364.24 1028.39 1362.03 1030.59C1359.82 1032.8 1356.78 1034.1 1352.91 1034.5V1040.72H1347.94V1034.53C1343.67 1034.07 1340.35 1032.56 1338 1030C1335.67 1027.42 1334.5 1023.99 1334.5 1019.72H1343.53C1343.53 1022.2 1344.11 1024.1 1345.28 1025.44C1346.47 1026.75 1348.17 1027.41 1350.38 1027.41C1352.21 1027.41 1353.66 1026.93 1354.72 1025.97C1355.78 1024.99 1356.31 1023.68 1356.31 1022.03Z" fill="#BBBBBB"/>
<path d="M1356.31 414.031C1356.31 412.323 1355.83 410.969 1354.88 409.969C1353.94 408.948 1352.33 408.01 1350.06 407.156C1347.79 406.302 1345.83 405.458 1344.19 404.625C1342.54 403.771 1341.12 402.802 1339.94 401.719C1338.77 400.615 1337.85 399.323 1337.19 397.844C1336.54 396.365 1336.22 394.604 1336.22 392.562C1336.22 389.042 1337.34 386.156 1339.59 383.906C1341.84 381.656 1344.83 380.344 1348.56 379.969V373.281H1353.56V380.062C1357.25 380.583 1360.14 382.125 1362.22 384.688C1364.3 387.229 1365.34 390.531 1365.34 394.594H1356.31C1356.31 392.094 1355.79 390.229 1354.75 389C1353.73 387.75 1352.35 387.125 1350.62 387.125C1348.92 387.125 1347.59 387.615 1346.66 388.594C1345.72 389.552 1345.25 390.885 1345.25 392.594C1345.25 394.177 1345.71 395.448 1346.62 396.406C1347.54 397.365 1349.24 398.344 1351.72 399.344C1354.22 400.344 1356.27 401.292 1357.88 402.188C1359.48 403.062 1360.83 404.062 1361.94 405.188C1363.04 406.292 1363.89 407.562 1364.47 409C1365.05 410.417 1365.34 412.073 1365.34 413.969C1365.34 417.51 1364.24 420.385 1362.03 422.594C1359.82 424.802 1356.78 426.104 1352.91 426.5V432.719H1347.94V426.531C1343.67 426.073 1340.35 424.562 1338 422C1335.67 419.417 1334.5 415.99 1334.5 411.719H1343.53C1343.53 414.198 1344.11 416.104 1345.28 417.438C1346.47 418.75 1348.17 419.406 1350.38 419.406C1352.21 419.406 1353.66 418.927 1354.72 417.969C1355.78 416.99 1356.31 415.677 1356.31 414.031Z" fill="#BBBBBB"/>
<path d="M1356.31 191.031C1356.31 189.323 1355.83 187.969 1354.88 186.969C1353.94 185.948 1352.33 185.01 1350.06 184.156C1347.79 183.302 1345.83 182.458 1344.19 181.625C1342.54 180.771 1341.12 179.802 1339.94 178.719C1338.77 177.615 1337.85 176.323 1337.19 174.844C1336.54 173.365 1336.22 171.604 1336.22 169.562C1336.22 166.042 1337.34 163.156 1339.59 160.906C1341.84 158.656 1344.83 157.344 1348.56 156.969V150.281H1353.56V157.062C1357.25 157.583 1360.14 159.125 1362.22 161.688C1364.3 164.229 1365.34 167.531 1365.34 171.594H1356.31C1356.31 169.094 1355.79 167.229 1354.75 166C1353.73 164.75 1352.35 164.125 1350.62 164.125C1348.92 164.125 1347.59 164.615 1346.66 165.594C1345.72 166.552 1345.25 167.885 1345.25 169.594C1345.25 171.177 1345.71 172.448 1346.62 173.406C1347.54 174.365 1349.24 175.344 1351.72 176.344C1354.22 177.344 1356.27 178.292 1357.88 179.188C1359.48 180.062 1360.83 181.062 1361.94 182.188C1363.04 183.292 1363.89 184.562 1364.47 186C1365.05 187.417 1365.34 189.073 1365.34 190.969C1365.34 194.51 1364.24 197.385 1362.03 199.594C1359.82 201.802 1356.78 203.104 1352.91 203.5V209.719H1347.94V203.531C1343.67 203.073 1340.35 201.562 1338 199C1335.67 196.417 1334.5 192.99 1334.5 188.719H1343.53C1343.53 191.198 1344.11 193.104 1345.28 194.438C1346.47 195.75 1348.17 196.406 1350.38 196.406C1352.21 196.406 1353.66 195.927 1354.72 194.969C1355.78 193.99 1356.31 192.677 1356.31 191.031Z" fill="#BBBBBB"/>
<path d="M1228.31 592.031C1228.31 590.323 1227.83 588.969 1226.88 587.969C1225.94 586.948 1224.33 586.01 1222.06 585.156C1219.79 584.302 1217.83 583.458 1216.19 582.625C1214.54 581.771 1213.12 580.802 1211.94 579.719C1210.77 578.615 1209.85 577.323 1209.19 575.844C1208.54 574.365 1208.22 572.604 1208.22 570.562C1208.22 567.042 1209.34 564.156 1211.59 561.906C1213.84 559.656 1216.83 558.344 1220.56 557.969V551.281H1225.56V558.062C1229.25 558.583 1232.14 560.125 1234.22 562.688C1236.3 565.229 1237.34 568.531 1237.34 572.594H1228.31C1228.31 570.094 1227.79 568.229 1226.75 567C1225.73 565.75 1224.35 565.125 1222.62 565.125C1220.92 565.125 1219.59 565.615 1218.66 566.594C1217.72 567.552 1217.25 568.885 1217.25 570.594C1217.25 572.177 1217.71 573.448 1218.62 574.406C1219.54 575.365 1221.24 576.344 1223.72 577.344C1226.22 578.344 1228.27 579.292 1229.88 580.188C1231.48 581.062 1232.83 582.062 1233.94 583.188C1235.04 584.292 1235.89 585.562 1236.47 587C1237.05 588.417 1237.34 590.073 1237.34 591.969C1237.34 595.51 1236.24 598.385 1234.03 600.594C1231.82 602.802 1228.78 604.104 1224.91 604.5V610.719H1219.94V604.531C1215.67 604.073 1212.35 602.562 1210 600C1207.67 597.417 1206.5 593.99 1206.5 589.719H1215.53C1215.53 592.198 1216.11 594.104 1217.28 595.438C1218.47 596.75 1220.17 597.406 1222.38 597.406C1224.21 597.406 1225.66 596.927 1226.72 595.969C1227.78 594.99 1228.31 593.677 1228.31 592.031Z" fill="#BBBBBB"/>
<path d="M1228.31 883.031C1228.31 881.323 1227.83 879.969 1226.88 878.969C1225.94 877.948 1224.33 877.01 1222.06 876.156C1219.79 875.302 1217.83 874.458 1216.19 873.625C1214.54 872.771 1213.12 871.802 1211.94 870.719C1210.77 869.615 1209.85 868.323 1209.19 866.844C1208.54 865.365 1208.22 863.604 1208.22 861.562C1208.22 858.042 1209.34 855.156 1211.59 852.906C1213.84 850.656 1216.83 849.344 1220.56 848.969V842.281H1225.56V849.062C1229.25 849.583 1232.14 851.125 1234.22 853.688C1236.3 856.229 1237.34 859.531 1237.34 863.594H1228.31C1228.31 861.094 1227.79 859.229 1226.75 858C1225.73 856.75 1224.35 856.125 1222.62 856.125C1220.92 856.125 1219.59 856.615 1218.66 857.594C1217.72 858.552 1217.25 859.885 1217.25 861.594C1217.25 863.177 1217.71 864.448 1218.62 865.406C1219.54 866.365 1221.24 867.344 1223.72 868.344C1226.22 869.344 1228.27 870.292 1229.88 871.188C1231.48 872.062 1232.83 873.062 1233.94 874.188C1235.04 875.292 1235.89 876.562 1236.47 878C1237.05 879.417 1237.34 881.073 1237.34 882.969C1237.34 886.51 1236.24 889.385 1234.03 891.594C1231.82 893.802 1228.78 895.104 1224.91 895.5V901.719H1219.94V895.531C1215.67 895.073 1212.35 893.562 1210 891C1207.67 888.417 1206.5 884.99 1206.5 880.719H1215.53C1215.53 883.198 1216.11 885.104 1217.28 886.438C1218.47 887.75 1220.17 888.406 1222.38 888.406C1224.21 888.406 1225.66 887.927 1226.72 886.969C1227.78 885.99 1228.31 884.677 1228.31 883.031Z" fill="#BBBBBB"/>
<path d="M1228.31 275.031C1228.31 273.323 1227.83 271.969 1226.88 270.969C1225.94 269.948 1224.33 269.01 1222.06 268.156C1219.79 267.302 1217.83 266.458 1216.19 265.625C1214.54 264.771 1213.12 263.802 1211.94 262.719C1210.77 261.615 1209.85 260.323 1209.19 258.844C1208.54 257.365 1208.22 255.604 1208.22 253.562C1208.22 250.042 1209.34 247.156 1211.59 244.906C1213.84 242.656 1216.83 241.344 1220.56 240.969V234.281H1225.56V241.062C1229.25 241.583 1232.14 243.125 1234.22 245.688C1236.3 248.229 1237.34 251.531 1237.34 255.594H1228.31C1228.31 253.094 1227.79 251.229 1226.75 250C1225.73 248.75 1224.35 248.125 1222.62 248.125C1220.92 248.125 1219.59 248.615 1218.66 249.594C1217.72 250.552 1217.25 251.885 1217.25 253.594C1217.25 255.177 1217.71 256.448 1218.62 257.406C1219.54 258.365 1221.24 259.344 1223.72 260.344C1226.22 261.344 1228.27 262.292 1229.88 263.188C1231.48 264.062 1232.83 265.062 1233.94 266.188C1235.04 267.292 1235.89 268.562 1236.47 270C1237.05 271.417 1237.34 273.073 1237.34 274.969C1237.34 278.51 1236.24 281.385 1234.03 283.594C1231.82 285.802 1228.78 287.104 1224.91 287.5V293.719H1219.94V287.531C1215.67 287.073 1212.35 285.562 1210 283C1207.67 280.417 1206.5 276.99 1206.5 272.719H1215.53C1215.53 275.198 1216.11 277.104 1217.28 278.438C1218.47 279.75 1220.17 280.406 1222.38 280.406C1224.21 280.406 1225.66 279.927 1226.72 278.969C1227.78 277.99 1228.31 276.677 1228.31 275.031Z" fill="#BBBBBB"/>
<path d="M1228.31 52.0312C1228.31 50.3229 1227.83 48.9688 1226.88 47.9688C1225.94 46.9479 1224.33 46.0104 1222.06 45.1562C1219.79 44.3021 1217.83 43.4583 1216.19 42.625C1214.54 41.7708 1213.12 40.8021 1211.94 39.7188C1210.77 38.6146 1209.85 37.3229 1209.19 35.8438C1208.54 34.3646 1208.22 32.6042 1208.22 30.5625C1208.22 27.0417 1209.34 24.1562 1211.59 21.9062C1213.84 19.6562 1216.83 18.3438 1220.56 17.9688V11.2812H1225.56V18.0625C1229.25 18.5833 1232.14 20.125 1234.22 22.6875C1236.3 25.2292 1237.34 28.5312 1237.34 32.5938H1228.31C1228.31 30.0938 1227.79 28.2292 1226.75 27C1225.73 25.75 1224.35 25.125 1222.62 25.125C1220.92 25.125 1219.59 25.6146 1218.66 26.5938C1217.72 27.5521 1217.25 28.8854 1217.25 30.5938C1217.25 32.1771 1217.71 33.4479 1218.62 34.4062C1219.54 35.3646 1221.24 36.3438 1223.72 37.3438C1226.22 38.3438 1228.27 39.2917 1229.88 40.1875C1231.48 41.0625 1232.83 42.0625 1233.94 43.1875C1235.04 44.2917 1235.89 45.5625 1236.47 47C1237.05 48.4167 1237.34 50.0729 1237.34 51.9688C1237.34 55.5104 1236.24 58.3854 1234.03 60.5938C1231.82 62.8021 1228.78 64.1042 1224.91 64.5V70.7188H1219.94V64.5312C1215.67 64.0729 1212.35 62.5625 1210 60C1207.67 57.4167 1206.5 53.9896 1206.5 49.7188H1215.53C1215.53 52.1979 1216.11 54.1042 1217.28 55.4375C1218.47 56.75 1220.17 57.4062 1222.38 57.4062C1224.21 57.4062 1225.66 56.9271 1226.72 55.9688C1227.78 54.9896 1228.31 53.6771 1228.31 52.0312Z" fill="#BBBBBB"/>
<path d="M1092.31 724.031C1092.31 722.323 1091.83 720.969 1090.88 719.969C1089.94 718.948 1088.33 718.01 1086.06 717.156C1083.79 716.302 1081.83 715.458 1080.19 714.625C1078.54 713.771 1077.12 712.802 1075.94 711.719C1074.77 710.615 1073.85 709.323 1073.19 707.844C1072.54 706.365 1072.22 704.604 1072.22 702.562C1072.22 699.042 1073.34 696.156 1075.59 693.906C1077.84 691.656 1080.83 690.344 1084.56 689.969V683.281H1089.56V690.062C1093.25 690.583 1096.14 692.125 1098.22 694.688C1100.3 697.229 1101.34 700.531 1101.34 704.594H1092.31C1092.31 702.094 1091.79 700.229 1090.75 699C1089.73 697.75 1088.35 697.125 1086.62 697.125C1084.92 697.125 1083.59 697.615 1082.66 698.594C1081.72 699.552 1081.25 700.885 1081.25 702.594C1081.25 704.177 1081.71 705.448 1082.62 706.406C1083.54 707.365 1085.24 708.344 1087.72 709.344C1090.22 710.344 1092.27 711.292 1093.88 712.188C1095.48 713.062 1096.83 714.062 1097.94 715.188C1099.04 716.292 1099.89 717.562 1100.47 719C1101.05 720.417 1101.34 722.073 1101.34 723.969C1101.34 727.51 1100.24 730.385 1098.03 732.594C1095.82 734.802 1092.78 736.104 1088.91 736.5V742.719H1083.94V736.531C1079.67 736.073 1076.35 734.562 1074 732C1071.67 729.417 1070.5 725.99 1070.5 721.719H1079.53C1079.53 724.198 1080.11 726.104 1081.28 727.438C1082.47 728.75 1084.17 729.406 1086.38 729.406C1088.21 729.406 1089.66 728.927 1090.72 727.969C1091.78 726.99 1092.31 725.677 1092.31 724.031Z" fill="#BBBBBB"/>
<path d="M1092.31 1015.03C1092.31 1013.32 1091.83 1011.97 1090.88 1010.97C1089.94 1009.95 1088.33 1009.01 1086.06 1008.16C1083.79 1007.3 1081.83 1006.46 1080.19 1005.62C1078.54 1004.77 1077.12 1003.8 1075.94 1002.72C1074.77 1001.61 1073.85 1000.32 1073.19 998.844C1072.54 997.365 1072.22 995.604 1072.22 993.562C1072.22 990.042 1073.34 987.156 1075.59 984.906C1077.84 982.656 1080.83 981.344 1084.56 980.969V974.281H1089.56V981.062C1093.25 981.583 1096.14 983.125 1098.22 985.688C1100.3 988.229 1101.34 991.531 1101.34 995.594H1092.31C1092.31 993.094 1091.79 991.229 1090.75 990C1089.73 988.75 1088.35 988.125 1086.62 988.125C1084.92 988.125 1083.59 988.615 1082.66 989.594C1081.72 990.552 1081.25 991.885 1081.25 993.594C1081.25 995.177 1081.71 996.448 1082.62 997.406C1083.54 998.365 1085.24 999.344 1087.72 1000.34C1090.22 1001.34 1092.27 1002.29 1093.88 1003.19C1095.48 1004.06 1096.83 1005.06 1097.94 1006.19C1099.04 1007.29 1099.89 1008.56 1100.47 1010C1101.05 1011.42 1101.34 1013.07 1101.34 1014.97C1101.34 1018.51 1100.24 1021.39 1098.03 1023.59C1095.82 1025.8 1092.78 1027.1 1088.91 1027.5V1033.72H1083.94V1027.53C1079.67 1027.07 1076.35 1025.56 1074 1023C1071.67 1020.42 1070.5 1016.99 1070.5 1012.72H1079.53C1079.53 1015.2 1080.11 1017.1 1081.28 1018.44C1082.47 1019.75 1084.17 1020.41 1086.38 1020.41C1088.21 1020.41 1089.66 1019.93 1090.72 1018.97C1091.78 1017.99 1092.31 1016.68 1092.31 1015.03Z" fill="#BBBBBB"/>
<path d="M1092.31 407.031C1092.31 405.323 1091.83 403.969 1090.88 402.969C1089.94 401.948 1088.33 401.01 1086.06 400.156C1083.79 399.302 1081.83 398.458 1080.19 397.625C1078.54 396.771 1077.12 395.802 1075.94 394.719C1074.77 393.615 1073.85 392.323 1073.19 390.844C1072.54 389.365 1072.22 387.604 1072.22 385.562C1072.22 382.042 1073.34 379.156 1075.59 376.906C1077.84 374.656 1080.83 373.344 1084.56 372.969V366.281H1089.56V373.062C1093.25 373.583 1096.14 375.125 1098.22 377.688C1100.3 380.229 1101.34 383.531 1101.34 387.594H1092.31C1092.31 385.094 1091.79 383.229 1090.75 382C1089.73 380.75 1088.35 380.125 1086.62 380.125C1084.92 380.125 1083.59 380.615 1082.66 381.594C1081.72 382.552 1081.25 383.885 1081.25 385.594C1081.25 387.177 1081.71 388.448 1082.62 389.406C1083.54 390.365 1085.24 391.344 1087.72 392.344C1090.22 393.344 1092.27 394.292 1093.88 395.188C1095.48 396.062 1096.83 397.062 1097.94 398.188C1099.04 399.292 1099.89 400.562 1100.47 402C1101.05 403.417 1101.34 405.073 1101.34 406.969C1101.34 410.51 1100.24 413.385 1098.03 415.594C1095.82 417.802 1092.78 419.104 1088.91 419.5V425.719H1083.94V419.531C1079.67 419.073 1076.35 417.562 1074 415C1071.67 412.417 1070.5 408.99 1070.5 404.719H1079.53C1079.53 407.198 1080.11 409.104 1081.28 410.438C1082.47 411.75 1084.17 412.406 1086.38 412.406C1088.21 412.406 1089.66 411.927 1090.72 410.969C1091.78 409.99 1092.31 408.677 1092.31 407.031Z" fill="#BBBBBB"/>
<path d="M1092.31 184.031C1092.31 182.323 1091.83 180.969 1090.88 179.969C1089.94 178.948 1088.33 178.01 1086.06 177.156C1083.79 176.302 1081.83 175.458 1080.19 174.625C1078.54 173.771 1077.12 172.802 1075.94 171.719C1074.77 170.615 1073.85 169.323 1073.19 167.844C1072.54 166.365 1072.22 164.604 1072.22 162.562C1072.22 159.042 1073.34 156.156 1075.59 153.906C1077.84 151.656 1080.83 150.344 1084.56 149.969V143.281H1089.56V150.062C1093.25 150.583 1096.14 152.125 1098.22 154.688C1100.3 157.229 1101.34 160.531 1101.34 164.594H1092.31C1092.31 162.094 1091.79 160.229 1090.75 159C1089.73 157.75 1088.35 157.125 1086.62 157.125C1084.92 157.125 1083.59 157.615 1082.66 158.594C1081.72 159.552 1081.25 160.885 1081.25 162.594C1081.25 164.177 1081.71 165.448 1082.62 166.406C1083.54 167.365 1085.24 168.344 1087.72 169.344C1090.22 170.344 1092.27 171.292 1093.88 172.188C1095.48 173.062 1096.83 174.062 1097.94 175.188C1099.04 176.292 1099.89 177.562 1100.47 179C1101.05 180.417 1101.34 182.073 1101.34 183.969C1101.34 187.51 1100.24 190.385 1098.03 192.594C1095.82 194.802 1092.78 196.104 1088.91 196.5V202.719H1083.94V196.531C1079.67 196.073 1076.35 194.562 1074 192C1071.67 189.417 1070.5 185.99 1070.5 181.719H1079.53C1079.53 184.198 1080.11 186.104 1081.28 187.438C1082.47 188.75 1084.17 189.406 1086.38 189.406C1088.21 189.406 1089.66 188.927 1090.72 187.969C1091.78 186.99 1092.31 185.677 1092.31 184.031Z" fill="#BBBBBB"/>
<path d="M956.312 592.031C956.312 590.323 955.833 588.969 954.875 587.969C953.938 586.948 952.333 586.01 950.062 585.156C947.792 584.302 945.833 583.458 944.188 582.625C942.542 581.771 941.125 580.802 939.938 579.719C938.771 578.615 937.854 577.323 937.188 575.844C936.542 574.365 936.219 572.604 936.219 570.562C936.219 567.042 937.344 564.156 939.594 561.906C941.844 559.656 944.833 558.344 948.562 557.969V551.281H953.562V558.062C957.25 558.583 960.135 560.125 962.219 562.688C964.302 565.229 965.344 568.531 965.344 572.594H956.312C956.312 570.094 955.792 568.229 954.75 567C953.729 565.75 952.354 565.125 950.625 565.125C948.917 565.125 947.594 565.615 946.656 566.594C945.719 567.552 945.25 568.885 945.25 570.594C945.25 572.177 945.708 573.448 946.625 574.406C947.542 575.365 949.24 576.344 951.719 577.344C954.219 578.344 956.271 579.292 957.875 580.188C959.479 581.062 960.833 582.062 961.938 583.188C963.042 584.292 963.885 585.562 964.469 587C965.052 588.417 965.344 590.073 965.344 591.969C965.344 595.51 964.24 598.385 962.031 600.594C959.823 602.802 956.781 604.104 952.906 604.5V610.719H947.938V604.531C943.667 604.073 940.354 602.562 938 600C935.667 597.417 934.5 593.99 934.5 589.719H943.531C943.531 592.198 944.115 594.104 945.281 595.438C946.469 596.75 948.167 597.406 950.375 597.406C952.208 597.406 953.656 596.927 954.719 595.969C955.781 594.99 956.312 593.677 956.312 592.031Z" fill="#BBBBBB"/>
<path d="M956.312 883.031C956.312 881.323 955.833 879.969 954.875 878.969C953.938 877.948 952.333 877.01 950.062 876.156C947.792 875.302 945.833 874.458 944.188 873.625C942.542 872.771 941.125 871.802 939.938 870.719C938.771 869.615 937.854 868.323 937.188 866.844C936.542 865.365 936.219 863.604 936.219 861.562C936.219 858.042 937.344 855.156 939.594 852.906C941.844 850.656 944.833 849.344 948.562 848.969V842.281H953.562V849.062C957.25 849.583 960.135 851.125 962.219 853.688C964.302 856.229 965.344 859.531 965.344 863.594H956.312C956.312 861.094 955.792 859.229 954.75 858C953.729 856.75 952.354 856.125 950.625 856.125C948.917 856.125 947.594 856.615 946.656 857.594C945.719 858.552 945.25 859.885 945.25 861.594C945.25 863.177 945.708 864.448 946.625 865.406C947.542 866.365 949.24 867.344 951.719 868.344C954.219 869.344 956.271 870.292 957.875 871.188C959.479 872.062 960.833 873.062 961.938 874.188C963.042 875.292 963.885 876.562 964.469 878C965.052 879.417 965.344 881.073 965.344 882.969C965.344 886.51 964.24 889.385 962.031 891.594C959.823 893.802 956.781 895.104 952.906 895.5V901.719H947.938V895.531C943.667 895.073 940.354 893.562 938 891C935.667 888.417 934.5 884.99 934.5 880.719H943.531C943.531 883.198 944.115 885.104 945.281 886.438C946.469 887.75 948.167 888.406 950.375 888.406C952.208 888.406 953.656 887.927 954.719 886.969C955.781 885.99 956.312 884.677 956.312 883.031Z" fill="#BBBBBB"/>
<path d="M956.312 275.031C956.312 273.323 955.833 271.969 954.875 270.969C953.938 269.948 952.333 269.01 950.062 268.156C947.792 267.302 945.833 266.458 944.188 265.625C942.542 264.771 941.125 263.802 939.938 262.719C938.771 261.615 937.854 260.323 937.188 258.844C936.542 257.365 936.219 255.604 936.219 253.562C936.219 250.042 937.344 247.156 939.594 244.906C941.844 242.656 944.833 241.344 948.562 240.969V234.281H953.562V241.062C957.25 241.583 960.135 243.125 962.219 245.688C964.302 248.229 965.344 251.531 965.344 255.594H956.312C956.312 253.094 955.792 251.229 954.75 250C953.729 248.75 952.354 248.125 950.625 248.125C948.917 248.125 947.594 248.615 946.656 249.594C945.719 250.552 945.25 251.885 945.25 253.594C945.25 255.177 945.708 256.448 946.625 257.406C947.542 258.365 949.24 259.344 951.719 260.344C954.219 261.344 956.271 262.292 957.875 263.188C959.479 264.062 960.833 265.062 961.938 266.188C963.042 267.292 963.885 268.562 964.469 270C965.052 271.417 965.344 273.073 965.344 274.969C965.344 278.51 964.24 281.385 962.031 283.594C959.823 285.802 956.781 287.104 952.906 287.5V293.719H947.938V287.531C943.667 287.073 940.354 285.562 938 283C935.667 280.417 934.5 276.99 934.5 272.719H943.531C943.531 275.198 944.115 277.104 945.281 278.438C946.469 279.75 948.167 280.406 950.375 280.406C952.208 280.406 953.656 279.927 954.719 278.969C955.781 277.99 956.312 276.677 956.312 275.031Z" fill="#BBBBBB"/>
<path d="M956.312 52.0312C956.312 50.3229 955.833 48.9688 954.875 47.9688C953.938 46.9479 952.333 46.0104 950.062 45.1562C947.792 44.3021 945.833 43.4583 944.188 42.625C942.542 41.7708 941.125 40.8021 939.938 39.7188C938.771 38.6146 937.854 37.3229 937.188 35.8438C936.542 34.3646 936.219 32.6042 936.219 30.5625C936.219 27.0417 937.344 24.1562 939.594 21.9062C941.844 19.6562 944.833 18.3438 948.562 17.9688V11.2812H953.562V18.0625C957.25 18.5833 960.135 20.125 962.219 22.6875C964.302 25.2292 965.344 28.5312 965.344 32.5938H956.312C956.312 30.0938 955.792 28.2292 954.75 27C953.729 25.75 952.354 25.125 950.625 25.125C948.917 25.125 947.594 25.6146 946.656 26.5938C945.719 27.5521 945.25 28.8854 945.25 30.5938C945.25 32.1771 945.708 33.4479 946.625 34.4062C947.542 35.3646 949.24 36.3438 951.719 37.3438C954.219 38.3438 956.271 39.2917 957.875 40.1875C959.479 41.0625 960.833 42.0625 961.938 43.1875C963.042 44.2917 963.885 45.5625 964.469 47C965.052 48.4167 965.344 50.0729 965.344 51.9688C965.344 55.5104 964.24 58.3854 962.031 60.5938C959.823 62.8021 956.781 64.1042 952.906 64.5V70.7188H947.938V64.5312C943.667 64.0729 940.354 62.5625 938 60C935.667 57.4167 934.5 53.9896 934.5 49.7188H943.531C943.531 52.1979 944.115 54.1042 945.281 55.4375C946.469 56.75 948.167 57.4062 950.375 57.4062C952.208 57.4062 953.656 56.9271 954.719 55.9688C955.781 54.9896 956.312 53.6771 956.312 52.0312Z" fill="#BBBBBB"/>
<path d="M442.312 592.031C442.312 590.323 441.833 588.969 440.875 587.969C439.938 586.948 438.333 586.01 436.062 585.156C433.792 584.302 431.833 583.458 430.188 582.625C428.542 581.771 427.125 580.802 425.938 579.719C424.771 578.615 423.854 577.323 423.188 575.844C422.542 574.365 422.219 572.604 422.219 570.562C422.219 567.042 423.344 564.156 425.594 561.906C427.844 559.656 430.833 558.344 434.562 557.969V551.281H439.562V558.062C443.25 558.583 446.135 560.125 448.219 562.688C450.302 565.229 451.344 568.531 451.344 572.594H442.312C442.312 570.094 441.792 568.229 440.75 567C439.729 565.75 438.354 565.125 436.625 565.125C434.917 565.125 433.594 565.615 432.656 566.594C431.719 567.552 431.25 568.885 431.25 570.594C431.25 572.177 431.708 573.448 432.625 574.406C433.542 575.365 435.24 576.344 437.719 577.344C440.219 578.344 442.271 579.292 443.875 580.188C445.479 581.062 446.833 582.062 447.938 583.188C449.042 584.292 449.885 585.562 450.469 587C451.052 588.417 451.344 590.073 451.344 591.969C451.344 595.51 450.24 598.385 448.031 600.594C445.823 602.802 442.781 604.104 438.906 604.5V610.719H433.938V604.531C429.667 604.073 426.354 602.562 424 600C421.667 597.417 420.5 593.99 420.5 589.719H429.531C429.531 592.198 430.115 594.104 431.281 595.438C432.469 596.75 434.167 597.406 436.375 597.406C438.208 597.406 439.656 596.927 440.719 595.969C441.781 594.99 442.312 593.677 442.312 592.031Z" fill="#BBBBBB"/>
<path d="M442.312 883.031C442.312 881.323 441.833 879.969 440.875 878.969C439.938 877.948 438.333 877.01 436.062 876.156C433.792 875.302 431.833 874.458 430.188 873.625C428.542 872.771 427.125 871.802 425.938 870.719C424.771 869.615 423.854 868.323 423.188 866.844C422.542 865.365 422.219 863.604 422.219 861.562C422.219 858.042 423.344 855.156 425.594 852.906C427.844 850.656 430.833 849.344 434.562 848.969V842.281H439.562V849.062C443.25 849.583 446.135 851.125 448.219 853.688C450.302 856.229 451.344 859.531 451.344 863.594H442.312C442.312 861.094 441.792 859.229 440.75 858C439.729 856.75 438.354 856.125 436.625 856.125C434.917 856.125 433.594 856.615 432.656 857.594C431.719 858.552 431.25 859.885 431.25 861.594C431.25 863.177 431.708 864.448 432.625 865.406C433.542 866.365 435.24 867.344 437.719 868.344C440.219 869.344 442.271 870.292 443.875 871.188C445.479 872.062 446.833 873.062 447.938 874.188C449.042 875.292 449.885 876.562 450.469 878C451.052 879.417 451.344 881.073 451.344 882.969C451.344 886.51 450.24 889.385 448.031 891.594C445.823 893.802 442.781 895.104 438.906 895.5V901.719H433.938V895.531C429.667 895.073 426.354 893.562 424 891C421.667 888.417 420.5 884.99 420.5 880.719H429.531C429.531 883.198 430.115 885.104 431.281 886.438C432.469 887.75 434.167 888.406 436.375 888.406C438.208 888.406 439.656 887.927 440.719 886.969C441.781 885.99 442.312 884.677 442.312 883.031Z" fill="#BBBBBB"/>
<path d="M442.312 275.031C442.312 273.323 441.833 271.969 440.875 270.969C439.938 269.948 438.333 269.01 436.062 268.156C433.792 267.302 431.833 266.458 430.188 265.625C428.542 264.771 427.125 263.802 425.938 262.719C424.771 261.615 423.854 260.323 423.188 258.844C422.542 257.365 422.219 255.604 422.219 253.562C422.219 250.042 423.344 247.156 425.594 244.906C427.844 242.656 430.833 241.344 434.562 240.969V234.281H439.562V241.062C443.25 241.583 446.135 243.125 448.219 245.688C450.302 248.229 451.344 251.531 451.344 255.594H442.312C442.312 253.094 441.792 251.229 440.75 250C439.729 248.75 438.354 248.125 436.625 248.125C434.917 248.125 433.594 248.615 432.656 249.594C431.719 250.552 431.25 251.885 431.25 253.594C431.25 255.177 431.708 256.448 432.625 257.406C433.542 258.365 435.24 259.344 437.719 260.344C440.219 261.344 442.271 262.292 443.875 263.188C445.479 264.062 446.833 265.062 447.938 266.188C449.042 267.292 449.885 268.562 450.469 270C451.052 271.417 451.344 273.073 451.344 274.969C451.344 278.51 450.24 281.385 448.031 283.594C445.823 285.802 442.781 287.104 438.906 287.5V293.719H433.938V287.531C429.667 287.073 426.354 285.562 424 283C421.667 280.417 420.5 276.99 420.5 272.719H429.531C429.531 275.198 430.115 277.104 431.281 278.438C432.469 279.75 434.167 280.406 436.375 280.406C438.208 280.406 439.656 279.927 440.719 278.969C441.781 277.99 442.312 276.677 442.312 275.031Z" fill="#BBBBBB"/>
<path d="M442.312 52.0312C442.312 50.3229 441.833 48.9688 440.875 47.9688C439.938 46.9479 438.333 46.0104 436.062 45.1562C433.792 44.3021 431.833 43.4583 430.188 42.625C428.542 41.7708 427.125 40.8021 425.938 39.7188C424.771 38.6146 423.854 37.3229 423.188 35.8438C422.542 34.3646 422.219 32.6042 422.219 30.5625C422.219 27.0417 423.344 24.1562 425.594 21.9062C427.844 19.6562 430.833 18.3438 434.562 17.9688V11.2812H439.562V18.0625C443.25 18.5833 446.135 20.125 448.219 22.6875C450.302 25.2292 451.344 28.5312 451.344 32.5938H442.312C442.312 30.0938 441.792 28.2292 440.75 27C439.729 25.75 438.354 25.125 436.625 25.125C434.917 25.125 433.594 25.6146 432.656 26.5938C431.719 27.5521 431.25 28.8854 431.25 30.5938C431.25 32.1771 431.708 33.4479 432.625 34.4062C433.542 35.3646 435.24 36.3438 437.719 37.3438C440.219 38.3438 442.271 39.2917 443.875 40.1875C445.479 41.0625 446.833 42.0625 447.938 43.1875C449.042 44.2917 449.885 45.5625 450.469 47C451.052 48.4167 451.344 50.0729 451.344 51.9688C451.344 55.5104 450.24 58.3854 448.031 60.5938C445.823 62.8021 442.781 64.1042 438.906 64.5V70.7188H433.938V64.5312C429.667 64.0729 426.354 62.5625 424 60C421.667 57.4167 420.5 53.9896 420.5 49.7188H429.531C429.531 52.1979 430.115 54.1042 431.281 55.4375C432.469 56.75 434.167 57.4062 436.375 57.4062C438.208 57.4062 439.656 56.9271 440.719 55.9688C441.781 54.9896 442.312 53.6771 442.312 52.0312Z" fill="#BBBBBB"/>
<path d="M806.312 724.031C806.312 722.323 805.833 720.969 804.875 719.969C803.938 718.948 802.333 718.01 800.062 717.156C797.792 716.302 795.833 715.458 794.188 714.625C792.542 713.771 791.125 712.802 789.938 711.719C788.771 710.615 787.854 709.323 787.188 707.844C786.542 706.365 786.219 704.604 786.219 702.562C786.219 699.042 787.344 696.156 789.594 693.906C791.844 691.656 794.833 690.344 798.562 689.969V683.281H803.562V690.062C807.25 690.583 810.135 692.125 812.219 694.688C814.302 697.229 815.344 700.531 815.344 704.594H806.312C806.312 702.094 805.792 700.229 804.75 699C803.729 697.75 802.354 697.125 800.625 697.125C798.917 697.125 797.594 697.615 796.656 698.594C795.719 699.552 795.25 700.885 795.25 702.594C795.25 704.177 795.708 705.448 796.625 706.406C797.542 707.365 799.24 708.344 801.719 709.344C804.219 710.344 806.271 711.292 807.875 712.188C809.479 713.062 810.833 714.062 811.938 715.188C813.042 716.292 813.885 717.562 814.469 719C815.052 720.417 815.344 722.073 815.344 723.969C815.344 727.51 814.24 730.385 812.031 732.594C809.823 734.802 806.781 736.104 802.906 736.5V742.719H797.938V736.531C793.667 736.073 790.354 734.562 788 732C785.667 729.417 784.5 725.99 784.5 721.719H793.531C793.531 724.198 794.115 726.104 795.281 727.438C796.469 728.75 798.167 729.406 800.375 729.406C802.208 729.406 803.656 728.927 804.719 727.969C805.781 726.99 806.312 725.677 806.312 724.031Z" fill="#BBBBBB"/>
<path d="M806.312 1015.03C806.312 1013.32 805.833 1011.97 804.875 1010.97C803.938 1009.95 802.333 1009.01 800.062 1008.16C797.792 1007.3 795.833 1006.46 794.188 1005.62C792.542 1004.77 791.125 1003.8 789.938 1002.72C788.771 1001.61 787.854 1000.32 787.188 998.844C786.542 997.365 786.219 995.604 786.219 993.562C786.219 990.042 787.344 987.156 789.594 984.906C791.844 982.656 794.833 981.344 798.562 980.969V974.281H803.562V981.062C807.25 981.583 810.135 983.125 812.219 985.688C814.302 988.229 815.344 991.531 815.344 995.594H806.312C806.312 993.094 805.792 991.229 804.75 990C803.729 988.75 802.354 988.125 800.625 988.125C798.917 988.125 797.594 988.615 796.656 989.594C795.719 990.552 795.25 991.885 795.25 993.594C795.25 995.177 795.708 996.448 796.625 997.406C797.542 998.365 799.24 999.344 801.719 1000.34C804.219 1001.34 806.271 1002.29 807.875 1003.19C809.479 1004.06 810.833 1005.06 811.938 1006.19C813.042 1007.29 813.885 1008.56 814.469 1010C815.052 1011.42 815.344 1013.07 815.344 1014.97C815.344 1018.51 814.24 1021.39 812.031 1023.59C809.823 1025.8 806.781 1027.1 802.906 1027.5V1033.72H797.938V1027.53C793.667 1027.07 790.354 1025.56 788 1023C785.667 1020.42 784.5 1016.99 784.5 1012.72H793.531C793.531 1015.2 794.115 1017.1 795.281 1018.44C796.469 1019.75 798.167 1020.41 800.375 1020.41C802.208 1020.41 803.656 1019.93 804.719 1018.97C805.781 1017.99 806.312 1016.68 806.312 1015.03Z" fill="#BBBBBB"/>
<path d="M806.312 407.031C806.312 405.323 805.833 403.969 804.875 402.969C803.938 401.948 802.333 401.01 800.062 400.156C797.792 399.302 795.833 398.458 794.188 397.625C792.542 396.771 791.125 395.802 789.938 394.719C788.771 393.615 787.854 392.323 787.188 390.844C786.542 389.365 786.219 387.604 786.219 385.562C786.219 382.042 787.344 379.156 789.594 376.906C791.844 374.656 794.833 373.344 798.562 372.969V366.281H803.562V373.062C807.25 373.583 810.135 375.125 812.219 377.688C814.302 380.229 815.344 383.531 815.344 387.594H806.312C806.312 385.094 805.792 383.229 804.75 382C803.729 380.75 802.354 380.125 800.625 380.125C798.917 380.125 797.594 380.615 796.656 381.594C795.719 382.552 795.25 383.885 795.25 385.594C795.25 387.177 795.708 388.448 796.625 389.406C797.542 390.365 799.24 391.344 801.719 392.344C804.219 393.344 806.271 394.292 807.875 395.188C809.479 396.062 810.833 397.062 811.938 398.188C813.042 399.292 813.885 400.562 814.469 402C815.052 403.417 815.344 405.073 815.344 406.969C815.344 410.51 814.24 413.385 812.031 415.594C809.823 417.802 806.781 419.104 802.906 419.5V425.719H797.938V419.531C793.667 419.073 790.354 417.562 788 415C785.667 412.417 784.5 408.99 784.5 404.719H793.531C793.531 407.198 794.115 409.104 795.281 410.438C796.469 411.75 798.167 412.406 800.375 412.406C802.208 412.406 803.656 411.927 804.719 410.969C805.781 409.99 806.312 408.677 806.312 407.031Z" fill="#BBBBBB"/>
<path d="M806.312 184.031C806.312 182.323 805.833 180.969 804.875 179.969C803.938 178.948 802.333 178.01 800.062 177.156C797.792 176.302 795.833 175.458 794.188 174.625C792.542 173.771 791.125 172.802 789.938 171.719C788.771 170.615 787.854 169.323 787.188 167.844C786.542 166.365 786.219 164.604 786.219 162.562C786.219 159.042 787.344 156.156 789.594 153.906C791.844 151.656 794.833 150.344 798.562 149.969V143.281H803.562V150.062C807.25 150.583 810.135 152.125 812.219 154.688C814.302 157.229 815.344 160.531 815.344 164.594H806.312C806.312 162.094 805.792 160.229 804.75 159C803.729 157.75 802.354 157.125 800.625 157.125C798.917 157.125 797.594 157.615 796.656 158.594C795.719 159.552 795.25 160.885 795.25 162.594C795.25 164.177 795.708 165.448 796.625 166.406C797.542 167.365 799.24 168.344 801.719 169.344C804.219 170.344 806.271 171.292 807.875 172.188C809.479 173.062 810.833 174.062 811.938 175.188C813.042 176.292 813.885 177.562 814.469 179C815.052 180.417 815.344 182.073 815.344 183.969C815.344 187.51 814.24 190.385 812.031 192.594C809.823 194.802 806.781 196.104 802.906 196.5V202.719H797.938V196.531C793.667 196.073 790.354 194.562 788 192C785.667 189.417 784.5 185.99 784.5 181.719H793.531C793.531 184.198 794.115 186.104 795.281 187.438C796.469 188.75 798.167 189.406 800.375 189.406C802.208 189.406 803.656 188.927 804.719 187.969C805.781 186.99 806.312 185.677 806.312 184.031Z" fill="#BBBBBB"/>
<path d="M692.312 592.031C692.312 590.323 691.833 588.969 690.875 587.969C689.938 586.948 688.333 586.01 686.062 585.156C683.792 584.302 681.833 583.458 680.188 582.625C678.542 581.771 677.125 580.802 675.938 579.719C674.771 578.615 673.854 577.323 673.188 575.844C672.542 574.365 672.219 572.604 672.219 570.562C672.219 567.042 673.344 564.156 675.594 561.906C677.844 559.656 680.833 558.344 684.562 557.969V551.281H689.562V558.062C693.25 558.583 696.135 560.125 698.219 562.688C700.302 565.229 701.344 568.531 701.344 572.594H692.312C692.312 570.094 691.792 568.229 690.75 567C689.729 565.75 688.354 565.125 686.625 565.125C684.917 565.125 683.594 565.615 682.656 566.594C681.719 567.552 681.25 568.885 681.25 570.594C681.25 572.177 681.708 573.448 682.625 574.406C683.542 575.365 685.24 576.344 687.719 577.344C690.219 578.344 692.271 579.292 693.875 580.188C695.479 581.062 696.833 582.062 697.938 583.188C699.042 584.292 699.885 585.562 700.469 587C701.052 588.417 701.344 590.073 701.344 591.969C701.344 595.51 700.24 598.385 698.031 600.594C695.823 602.802 692.781 604.104 688.906 604.5V610.719H683.938V604.531C679.667 604.073 676.354 602.562 674 600C671.667 597.417 670.5 593.99 670.5 589.719H679.531C679.531 592.198 680.115 594.104 681.281 595.438C682.469 596.75 684.167 597.406 686.375 597.406C688.208 597.406 689.656 596.927 690.719 595.969C691.781 594.99 692.312 593.677 692.312 592.031Z" fill="#BBBBBB"/>
<path d="M692.312 883.031C692.312 881.323 691.833 879.969 690.875 878.969C689.938 877.948 688.333 877.01 686.062 876.156C683.792 875.302 681.833 874.458 680.188 873.625C678.542 872.771 677.125 871.802 675.938 870.719C674.771 869.615 673.854 868.323 673.188 866.844C672.542 865.365 672.219 863.604 672.219 861.562C672.219 858.042 673.344 855.156 675.594 852.906C677.844 850.656 680.833 849.344 684.562 848.969V842.281H689.562V849.062C693.25 849.583 696.135 851.125 698.219 853.688C700.302 856.229 701.344 859.531 701.344 863.594H692.312C692.312 861.094 691.792 859.229 690.75 858C689.729 856.75 688.354 856.125 686.625 856.125C684.917 856.125 683.594 856.615 682.656 857.594C681.719 858.552 681.25 859.885 681.25 861.594C681.25 863.177 681.708 864.448 682.625 865.406C683.542 866.365 685.24 867.344 687.719 868.344C690.219 869.344 692.271 870.292 693.875 871.188C695.479 872.062 696.833 873.062 697.938 874.188C699.042 875.292 699.885 876.562 700.469 878C701.052 879.417 701.344 881.073 701.344 882.969C701.344 886.51 700.24 889.385 698.031 891.594C695.823 893.802 692.781 895.104 688.906 895.5V901.719H683.938V895.531C679.667 895.073 676.354 893.562 674 891C671.667 888.417 670.5 884.99 670.5 880.719H679.531C679.531 883.198 680.115 885.104 681.281 886.438C682.469 887.75 684.167 888.406 686.375 888.406C688.208 888.406 689.656 887.927 690.719 886.969C691.781 885.99 692.312 884.677 692.312 883.031Z" fill="#BBBBBB"/>
<path d="M692.312 275.031C692.312 273.323 691.833 271.969 690.875 270.969C689.938 269.948 688.333 269.01 686.062 268.156C683.792 267.302 681.833 266.458 680.188 265.625C678.542 264.771 677.125 263.802 675.938 262.719C674.771 261.615 673.854 260.323 673.188 258.844C672.542 257.365 672.219 255.604 672.219 253.562C672.219 250.042 673.344 247.156 675.594 244.906C677.844 242.656 680.833 241.344 684.562 240.969V234.281H689.562V241.062C693.25 241.583 696.135 243.125 698.219 245.688C700.302 248.229 701.344 251.531 701.344 255.594H692.312C692.312 253.094 691.792 251.229 690.75 250C689.729 248.75 688.354 248.125 686.625 248.125C684.917 248.125 683.594 248.615 682.656 249.594C681.719 250.552 681.25 251.885 681.25 253.594C681.25 255.177 681.708 256.448 682.625 257.406C683.542 258.365 685.24 259.344 687.719 260.344C690.219 261.344 692.271 262.292 693.875 263.188C695.479 264.062 696.833 265.062 697.938 266.188C699.042 267.292 699.885 268.562 700.469 270C701.052 271.417 701.344 273.073 701.344 274.969C701.344 278.51 700.24 281.385 698.031 283.594C695.823 285.802 692.781 287.104 688.906 287.5V293.719H683.938V287.531C679.667 287.073 676.354 285.562 674 283C671.667 280.417 670.5 276.99 670.5 272.719H679.531C679.531 275.198 680.115 277.104 681.281 278.438C682.469 279.75 684.167 280.406 686.375 280.406C688.208 280.406 689.656 279.927 690.719 278.969C691.781 277.99 692.312 276.677 692.312 275.031Z" fill="#BBBBBB"/>
<path d="M692.312 52.0312C692.312 50.3229 691.833 48.9688 690.875 47.9688C689.938 46.9479 688.333 46.0104 686.062 45.1562C683.792 44.3021 681.833 43.4583 680.188 42.625C678.542 41.7708 677.125 40.8021 675.938 39.7188C674.771 38.6146 673.854 37.3229 673.188 35.8438C672.542 34.3646 672.219 32.6042 672.219 30.5625C672.219 27.0417 673.344 24.1562 675.594 21.9062C677.844 19.6562 680.833 18.3438 684.562 17.9688V11.2812H689.562V18.0625C693.25 18.5833 696.135 20.125 698.219 22.6875C700.302 25.2292 701.344 28.5312 701.344 32.5938H692.312C692.312 30.0938 691.792 28.2292 690.75 27C689.729 25.75 688.354 25.125 686.625 25.125C684.917 25.125 683.594 25.6146 682.656 26.5938C681.719 27.5521 681.25 28.8854 681.25 30.5938C681.25 32.1771 681.708 33.4479 682.625 34.4062C683.542 35.3646 685.24 36.3438 687.719 37.3438C690.219 38.3438 692.271 39.2917 693.875 40.1875C695.479 41.0625 696.833 42.0625 697.938 43.1875C699.042 44.2917 699.885 45.5625 700.469 47C701.052 48.4167 701.344 50.0729 701.344 51.9688C701.344 55.5104 700.24 58.3854 698.031 60.5938C695.823 62.8021 692.781 64.1042 688.906 64.5V70.7188H683.938V64.5312C679.667 64.0729 676.354 62.5625 674 60C671.667 57.4167 670.5 53.9896 670.5 49.7188H679.531C679.531 52.1979 680.115 54.1042 681.281 55.4375C682.469 56.75 684.167 57.4062 686.375 57.4062C688.208 57.4062 689.656 56.9271 690.719 55.9688C691.781 54.9896 692.312 53.6771 692.312 52.0312Z" fill="#BBBBBB"/>
<path d="M556.312 731.031C556.312 729.323 555.833 727.969 554.875 726.969C553.938 725.948 552.333 725.01 550.062 724.156C547.792 723.302 545.833 722.458 544.188 721.625C542.542 720.771 541.125 719.802 539.938 718.719C538.771 717.615 537.854 716.323 537.188 714.844C536.542 713.365 536.219 711.604 536.219 709.562C536.219 706.042 537.344 703.156 539.594 700.906C541.844 698.656 544.833 697.344 548.562 696.969V690.281H553.562V697.062C557.25 697.583 560.135 699.125 562.219 701.688C564.302 704.229 565.344 707.531 565.344 711.594H556.312C556.312 709.094 555.792 707.229 554.75 706C553.729 704.75 552.354 704.125 550.625 704.125C548.917 704.125 547.594 704.615 546.656 705.594C545.719 706.552 545.25 707.885 545.25 709.594C545.25 711.177 545.708 712.448 546.625 713.406C547.542 714.365 549.24 715.344 551.719 716.344C554.219 717.344 556.271 718.292 557.875 719.188C559.479 720.062 560.833 721.062 561.938 722.188C563.042 723.292 563.885 724.562 564.469 726C565.052 727.417 565.344 729.073 565.344 730.969C565.344 734.51 564.24 737.385 562.031 739.594C559.823 741.802 556.781 743.104 552.906 743.5V749.719H547.938V743.531C543.667 743.073 540.354 741.562 538 739C535.667 736.417 534.5 732.99 534.5 728.719H543.531C543.531 731.198 544.115 733.104 545.281 734.438C546.469 735.75 548.167 736.406 550.375 736.406C552.208 736.406 553.656 735.927 554.719 734.969C555.781 733.99 556.312 732.677 556.312 731.031Z" fill="#BBBBBB"/>
<path d="M556.312 1022.03C556.312 1020.32 555.833 1018.97 554.875 1017.97C553.938 1016.95 552.333 1016.01 550.062 1015.16C547.792 1014.3 545.833 1013.46 544.188 1012.62C542.542 1011.77 541.125 1010.8 539.938 1009.72C538.771 1008.61 537.854 1007.32 537.188 1005.84C536.542 1004.36 536.219 1002.6 536.219 1000.56C536.219 997.042 537.344 994.156 539.594 991.906C541.844 989.656 544.833 988.344 548.562 987.969V981.281H553.562V988.062C557.25 988.583 560.135 990.125 562.219 992.688C564.302 995.229 565.344 998.531 565.344 1002.59H556.312C556.312 1000.09 555.792 998.229 554.75 997C553.729 995.75 552.354 995.125 550.625 995.125C548.917 995.125 547.594 995.615 546.656 996.594C545.719 997.552 545.25 998.885 545.25 1000.59C545.25 1002.18 545.708 1003.45 546.625 1004.41C547.542 1005.36 549.24 1006.34 551.719 1007.34C554.219 1008.34 556.271 1009.29 557.875 1010.19C559.479 1011.06 560.833 1012.06 561.938 1013.19C563.042 1014.29 563.885 1015.56 564.469 1017C565.052 1018.42 565.344 1020.07 565.344 1021.97C565.344 1025.51 564.24 1028.39 562.031 1030.59C559.823 1032.8 556.781 1034.1 552.906 1034.5V1040.72H547.938V1034.53C543.667 1034.07 540.354 1032.56 538 1030C535.667 1027.42 534.5 1023.99 534.5 1019.72H543.531C543.531 1022.2 544.115 1024.1 545.281 1025.44C546.469 1026.75 548.167 1027.41 550.375 1027.41C552.208 1027.41 553.656 1026.93 554.719 1025.97C555.781 1024.99 556.312 1023.68 556.312 1022.03Z" fill="#BBBBBB"/>
<path d="M556.312 414.031C556.312 412.323 555.833 410.969 554.875 409.969C553.938 408.948 552.333 408.01 550.062 407.156C547.792 406.302 545.833 405.458 544.188 404.625C542.542 403.771 541.125 402.802 539.938 401.719C538.771 400.615 537.854 399.323 537.188 397.844C536.542 396.365 536.219 394.604 536.219 392.562C536.219 389.042 537.344 386.156 539.594 383.906C541.844 381.656 544.833 380.344 548.562 379.969V373.281H553.562V380.062C557.25 380.583 560.135 382.125 562.219 384.688C564.302 387.229 565.344 390.531 565.344 394.594H556.312C556.312 392.094 555.792 390.229 554.75 389C553.729 387.75 552.354 387.125 550.625 387.125C548.917 387.125 547.594 387.615 546.656 388.594C545.719 389.552 545.25 390.885 545.25 392.594C545.25 394.177 545.708 395.448 546.625 396.406C547.542 397.365 549.24 398.344 551.719 399.344C554.219 400.344 556.271 401.292 557.875 402.188C559.479 403.062 560.833 404.062 561.938 405.188C563.042 406.292 563.885 407.562 564.469 409C565.052 410.417 565.344 412.073 565.344 413.969C565.344 417.51 564.24 420.385 562.031 422.594C559.823 424.802 556.781 426.104 552.906 426.5V432.719H547.938V426.531C543.667 426.073 540.354 424.562 538 422C535.667 419.417 534.5 415.99 534.5 411.719H543.531C543.531 414.198 544.115 416.104 545.281 417.438C546.469 418.75 548.167 419.406 550.375 419.406C552.208 419.406 553.656 418.927 554.719 417.969C555.781 416.99 556.312 415.677 556.312 414.031Z" fill="#BBBBBB"/>
<path d="M556.312 191.031C556.312 189.323 555.833 187.969 554.875 186.969C553.938 185.948 552.333 185.01 550.062 184.156C547.792 183.302 545.833 182.458 544.188 181.625C542.542 180.771 541.125 179.802 539.938 178.719C538.771 177.615 537.854 176.323 537.188 174.844C536.542 173.365 536.219 171.604 536.219 169.562C536.219 166.042 537.344 163.156 539.594 160.906C541.844 158.656 544.833 157.344 548.562 156.969V150.281H553.562V157.062C557.25 157.583 560.135 159.125 562.219 161.688C564.302 164.229 565.344 167.531 565.344 171.594H556.312C556.312 169.094 555.792 167.229 554.75 166C553.729 164.75 552.354 164.125 550.625 164.125C548.917 164.125 547.594 164.615 546.656 165.594C545.719 166.552 545.25 167.885 545.25 169.594C545.25 171.177 545.708 172.448 546.625 173.406C547.542 174.365 549.24 175.344 551.719 176.344C554.219 177.344 556.271 178.292 557.875 179.188C559.479 180.062 560.833 181.062 561.938 182.188C563.042 183.292 563.885 184.562 564.469 186C565.052 187.417 565.344 189.073 565.344 190.969C565.344 194.51 564.24 197.385 562.031 199.594C559.823 201.802 556.781 203.104 552.906 203.5V209.719H547.938V203.531C543.667 203.073 540.354 201.562 538 199C535.667 196.417 534.5 192.99 534.5 188.719H543.531C543.531 191.198 544.115 193.104 545.281 194.438C546.469 195.75 548.167 196.406 550.375 196.406C552.208 196.406 553.656 195.927 554.719 194.969C555.781 193.99 556.312 192.677 556.312 191.031Z" fill="#BBBBBB"/>
<defs>
<linearGradient id="paint0_linear" x1="960" y1="5" x2="960" y2="1085" gradientUnits="userSpaceOnUse">
<stop stop-color="white" stop-opacity="0"/>
<stop offset="1" stop-color="white"/>
</linearGradient>
</defs>
</svg>
