<svg width="1850" height="1046" viewBox="0 0 1850 1046" fill="none" xmlns="http://www.w3.org/2000/svg">
<path d="M106.312 165.031C106.312 163.323 105.833 161.969 104.875 160.969C103.938 159.948 102.333 159.01 100.062 158.156C97.7917 157.302 95.8333 156.458 94.1875 155.625C92.5417 154.771 91.125 153.802 89.9375 152.719C88.7708 151.615 87.8542 150.323 87.1875 148.844C86.5417 147.365 86.2188 145.604 86.2188 143.562C86.2188 140.042 87.3438 137.156 89.5938 134.906C91.8438 132.656 94.8333 131.344 98.5625 130.969V124.281H103.562V131.062C107.25 131.583 110.135 133.125 112.219 135.688C114.302 138.229 115.344 141.531 115.344 145.594H106.312C106.312 143.094 105.792 141.229 104.75 140C103.729 138.75 102.354 138.125 100.625 138.125C98.9167 138.125 97.5938 138.615 96.6562 139.594C95.7188 140.552 95.25 141.885 95.25 143.594C95.25 145.177 95.7083 146.448 96.625 147.406C97.5417 148.365 99.2396 149.344 101.719 150.344C104.219 151.344 106.271 152.292 107.875 153.188C109.479 154.062 110.833 155.062 111.938 156.188C113.042 157.292 113.885 158.562 114.469 160C115.052 161.417 115.344 163.073 115.344 164.969C115.344 168.51 114.24 171.385 112.031 173.594C109.823 175.802 106.781 177.104 102.906 177.5V183.719H97.9375V177.531C93.6667 177.073 90.3542 175.562 88 173C85.6667 170.417 84.5 166.99 84.5 162.719H93.5312C93.5312 165.198 94.1146 167.104 95.2812 168.438C96.4688 169.75 98.1667 170.406 100.375 170.406C102.208 170.406 103.656 169.927 104.719 168.969C105.781 167.99 106.312 166.677 106.312 165.031Z" fill="#BBBBBB" fill-opacity="0.2"/>
<path d="M302.312 405.031C302.312 403.323 301.833 401.969 300.875 400.969C299.938 399.948 298.333 399.01 296.062 398.156C293.792 397.302 291.833 396.458 290.188 395.625C288.542 394.771 287.125 393.802 285.938 392.719C284.771 391.615 283.854 390.323 283.188 388.844C282.542 387.365 282.219 385.604 282.219 383.562C282.219 380.042 283.344 377.156 285.594 374.906C287.844 372.656 290.833 371.344 294.562 370.969V364.281H299.562V371.062C303.25 371.583 306.135 373.125 308.219 375.688C310.302 378.229 311.344 381.531 311.344 385.594H302.312C302.312 383.094 301.792 381.229 300.75 380C299.729 378.75 298.354 378.125 296.625 378.125C294.917 378.125 293.594 378.615 292.656 379.594C291.719 380.552 291.25 381.885 291.25 383.594C291.25 385.177 291.708 386.448 292.625 387.406C293.542 388.365 295.24 389.344 297.719 390.344C300.219 391.344 302.271 392.292 303.875 393.188C305.479 394.062 306.833 395.062 307.938 396.188C309.042 397.292 309.885 398.562 310.469 400C311.052 401.417 311.344 403.073 311.344 404.969C311.344 408.51 310.24 411.385 308.031 413.594C305.823 415.802 302.781 417.104 298.906 417.5V423.719H293.938V417.531C289.667 417.073 286.354 415.562 284 413C281.667 410.417 280.5 406.99 280.5 402.719H289.531C289.531 405.198 290.115 407.104 291.281 408.438C292.469 409.75 294.167 410.406 296.375 410.406C298.208 410.406 299.656 409.927 300.719 408.969C301.781 407.99 302.312 406.677 302.312 405.031Z" fill="#BBBBBB" fill-opacity="0.2"/>
<path d="M216.312 883.031C216.312 881.323 215.833 879.969 214.875 878.969C213.938 877.948 212.333 877.01 210.062 876.156C207.792 875.302 205.833 874.458 204.188 873.625C202.542 872.771 201.125 871.802 199.938 870.719C198.771 869.615 197.854 868.323 197.188 866.844C196.542 865.365 196.219 863.604 196.219 861.562C196.219 858.042 197.344 855.156 199.594 852.906C201.844 850.656 204.833 849.344 208.562 848.969V842.281H213.562V849.062C217.25 849.583 220.135 851.125 222.219 853.688C224.302 856.229 225.344 859.531 225.344 863.594H216.312C216.312 861.094 215.792 859.229 214.75 858C213.729 856.75 212.354 856.125 210.625 856.125C208.917 856.125 207.594 856.615 206.656 857.594C205.719 858.552 205.25 859.885 205.25 861.594C205.25 863.177 205.708 864.448 206.625 865.406C207.542 866.365 209.24 867.344 211.719 868.344C214.219 869.344 216.271 870.292 217.875 871.188C219.479 872.062 220.833 873.062 221.938 874.188C223.042 875.292 223.885 876.562 224.469 878C225.052 879.417 225.344 881.073 225.344 882.969C225.344 886.51 224.24 889.385 222.031 891.594C219.823 893.802 216.781 895.104 212.906 895.5V901.719H207.938V895.531C203.667 895.073 200.354 893.562 198 891C195.667 888.417 194.5 884.99 194.5 880.719H203.531C203.531 883.198 204.115 885.104 205.281 886.438C206.469 887.75 208.167 888.406 210.375 888.406C212.208 888.406 213.656 887.927 214.719 886.969C215.781 885.99 216.312 884.677 216.312 883.031Z" fill="#BBBBBB" fill-opacity="0.2"/>
<path d="M302.312 160.031C302.312 158.323 301.833 156.969 300.875 155.969C299.938 154.948 298.333 154.01 296.062 153.156C293.792 152.302 291.833 151.458 290.188 150.625C288.542 149.771 287.125 148.802 285.938 147.719C284.771 146.615 283.854 145.323 283.188 143.844C282.542 142.365 282.219 140.604 282.219 138.562C282.219 135.042 283.344 132.156 285.594 129.906C287.844 127.656 290.833 126.344 294.562 125.969V119.281H299.562V126.062C303.25 126.583 306.135 128.125 308.219 130.688C310.302 133.229 311.344 136.531 311.344 140.594H302.312C302.312 138.094 301.792 136.229 300.75 135C299.729 133.75 298.354 133.125 296.625 133.125C294.917 133.125 293.594 133.615 292.656 134.594C291.719 135.552 291.25 136.885 291.25 138.594C291.25 140.177 291.708 141.448 292.625 142.406C293.542 143.365 295.24 144.344 297.719 145.344C300.219 146.344 302.271 147.292 303.875 148.188C305.479 149.062 306.833 150.062 307.938 151.188C309.042 152.292 309.885 153.562 310.469 155C311.052 156.417 311.344 158.073 311.344 159.969C311.344 163.51 310.24 166.385 308.031 168.594C305.823 170.802 302.781 172.104 298.906 172.5V178.719H293.938V172.531C289.667 172.073 286.354 170.562 284 168C281.667 165.417 280.5 161.99 280.5 157.719H289.531C289.531 160.198 290.115 162.104 291.281 163.438C292.469 164.75 294.167 165.406 296.375 165.406C298.208 165.406 299.656 164.927 300.719 163.969C301.781 162.99 302.312 161.677 302.312 160.031Z" fill="#BBBBBB" fill-opacity="0.2"/>
<path d="M234.312 587.031C234.312 585.323 233.833 583.969 232.875 582.969C231.938 581.948 230.333 581.01 228.062 580.156C225.792 579.302 223.833 578.458 222.188 577.625C220.542 576.771 219.125 575.802 217.938 574.719C216.771 573.615 215.854 572.323 215.188 570.844C214.542 569.365 214.219 567.604 214.219 565.562C214.219 562.042 215.344 559.156 217.594 556.906C219.844 554.656 222.833 553.344 226.562 552.969V546.281H231.562V553.062C235.25 553.583 238.135 555.125 240.219 557.688C242.302 560.229 243.344 563.531 243.344 567.594H234.312C234.312 565.094 233.792 563.229 232.75 562C231.729 560.75 230.354 560.125 228.625 560.125C226.917 560.125 225.594 560.615 224.656 561.594C223.719 562.552 223.25 563.885 223.25 565.594C223.25 567.177 223.708 568.448 224.625 569.406C225.542 570.365 227.24 571.344 229.719 572.344C232.219 573.344 234.271 574.292 235.875 575.188C237.479 576.062 238.833 577.062 239.938 578.188C241.042 579.292 241.885 580.562 242.469 582C243.052 583.417 243.344 585.073 243.344 586.969C243.344 590.51 242.24 593.385 240.031 595.594C237.823 597.802 234.781 599.104 230.906 599.5V605.719H225.938V599.531C221.667 599.073 218.354 597.562 216 595C213.667 592.417 212.5 588.99 212.5 584.719H221.531C221.531 587.198 222.115 589.104 223.281 590.438C224.469 591.75 226.167 592.406 228.375 592.406C230.208 592.406 231.656 591.927 232.719 590.969C233.781 589.99 234.312 588.677 234.312 587.031Z" fill="#BBBBBB" fill-opacity="0.2"/>
<path d="M302.312 712.031C302.312 710.323 301.833 708.969 300.875 707.969C299.938 706.948 298.333 706.01 296.062 705.156C293.792 704.302 291.833 703.458 290.188 702.625C288.542 701.771 287.125 700.802 285.938 699.719C284.771 698.615 283.854 697.323 283.188 695.844C282.542 694.365 282.219 692.604 282.219 690.562C282.219 687.042 283.344 684.156 285.594 681.906C287.844 679.656 290.833 678.344 294.562 677.969V671.281H299.562V678.062C303.25 678.583 306.135 680.125 308.219 682.688C310.302 685.229 311.344 688.531 311.344 692.594H302.312C302.312 690.094 301.792 688.229 300.75 687C299.729 685.75 298.354 685.125 296.625 685.125C294.917 685.125 293.594 685.615 292.656 686.594C291.719 687.552 291.25 688.885 291.25 690.594C291.25 692.177 291.708 693.448 292.625 694.406C293.542 695.365 295.24 696.344 297.719 697.344C300.219 698.344 302.271 699.292 303.875 700.188C305.479 701.062 306.833 702.062 307.938 703.188C309.042 704.292 309.885 705.562 310.469 707C311.052 708.417 311.344 710.073 311.344 711.969C311.344 715.51 310.24 718.385 308.031 720.594C305.823 722.802 302.781 724.104 298.906 724.5V730.719H293.938V724.531C289.667 724.073 286.354 722.562 284 720C281.667 717.417 280.5 713.99 280.5 709.719H289.531C289.531 712.198 290.115 714.104 291.281 715.438C292.469 716.75 294.167 717.406 296.375 717.406C298.208 717.406 299.656 716.927 300.719 715.969C301.781 714.99 302.312 713.677 302.312 712.031Z" fill="#BBBBBB" fill-opacity="0.2"/>
<path d="M216.312 47.0312C216.312 45.3229 215.833 43.9688 214.875 42.9688C213.938 41.9479 212.333 41.0104 210.062 40.1562C207.792 39.3021 205.833 38.4583 204.188 37.625C202.542 36.7708 201.125 35.8021 199.938 34.7188C198.771 33.6146 197.854 32.3229 197.188 30.8438C196.542 29.3646 196.219 27.6042 196.219 25.5625C196.219 22.0417 197.344 19.1562 199.594 16.9062C201.844 14.6562 204.833 13.3438 208.562 12.9688V6.28125H213.562V13.0625C217.25 13.5833 220.135 15.125 222.219 17.6875C224.302 20.2292 225.344 23.5312 225.344 27.5938H216.312C216.312 25.0938 215.792 23.2292 214.75 22C213.729 20.75 212.354 20.125 210.625 20.125C208.917 20.125 207.594 20.6146 206.656 21.5938C205.719 22.5521 205.25 23.8854 205.25 25.5938C205.25 27.1771 205.708 28.4479 206.625 29.4062C207.542 30.3646 209.24 31.3438 211.719 32.3438C214.219 33.3438 216.271 34.2917 217.875 35.1875C219.479 36.0625 220.833 37.0625 221.938 38.1875C223.042 39.2917 223.885 40.5625 224.469 42C225.052 43.4167 225.344 45.0729 225.344 46.9688C225.344 50.5104 224.24 53.3854 222.031 55.5938C219.823 57.8021 216.781 59.1042 212.906 59.5V65.7188H207.938V59.5312C203.667 59.0729 200.354 57.5625 198 55C195.667 52.4167 194.5 48.9896 194.5 44.7188H203.531C203.531 47.1979 204.115 49.1042 205.281 50.4375C206.469 51.75 208.167 52.4062 210.375 52.4062C212.208 52.4062 213.656 51.9271 214.719 50.9688C215.781 49.9896 216.312 48.6771 216.312 47.0312Z" fill="#BBBBBB" fill-opacity="0.2"/>
<path d="M38.3125 592.031C38.3125 590.323 37.8333 588.969 36.875 587.969C35.9375 586.948 34.3333 586.01 32.0625 585.156C29.7917 584.302 27.8333 583.458 26.1875 582.625C24.5417 581.771 23.125 580.802 21.9375 579.719C20.7708 578.615 19.8542 577.323 19.1875 575.844C18.5417 574.365 18.2188 572.604 18.2188 570.562C18.2188 567.042 19.3438 564.156 21.5938 561.906C23.8438 559.656 26.8333 558.344 30.5625 557.969V551.281H35.5625V558.062C39.25 558.583 42.1354 560.125 44.2188 562.688C46.3021 565.229 47.3438 568.531 47.3438 572.594H38.3125C38.3125 570.094 37.7917 568.229 36.75 567C35.7292 565.75 34.3542 565.125 32.625 565.125C30.9167 565.125 29.5938 565.615 28.6562 566.594C27.7188 567.552 27.25 568.885 27.25 570.594C27.25 572.177 27.7083 573.448 28.625 574.406C29.5417 575.365 31.2396 576.344 33.7188 577.344C36.2188 578.344 38.2708 579.292 39.875 580.188C41.4792 581.062 42.8333 582.062 43.9375 583.188C45.0417 584.292 45.8854 585.562 46.4688 587C47.0521 588.417 47.3438 590.073 47.3438 591.969C47.3438 595.51 46.2396 598.385 44.0312 600.594C41.8229 602.802 38.7812 604.104 34.9062 604.5V610.719H29.9375V604.531C25.6667 604.073 22.3542 602.562 20 600C17.6667 597.417 16.5 593.99 16.5 589.719H25.5312C25.5312 592.198 26.1146 594.104 27.2812 595.438C28.4688 596.75 30.1667 597.406 32.375 597.406C34.2083 597.406 35.6562 596.927 36.7188 595.969C37.7812 594.99 38.3125 593.677 38.3125 592.031Z" fill="#BBBBBB" fill-opacity="0.2"/>
<path d="M316.312 1022.03C316.312 1020.32 315.833 1018.97 314.875 1017.97C313.938 1016.95 312.333 1016.01 310.062 1015.16C307.792 1014.3 305.833 1013.46 304.188 1012.62C302.542 1011.77 301.125 1010.8 299.938 1009.72C298.771 1008.61 297.854 1007.32 297.188 1005.84C296.542 1004.36 296.219 1002.6 296.219 1000.56C296.219 997.042 297.344 994.156 299.594 991.906C301.844 989.656 304.833 988.344 308.562 987.969V981.281H313.562V988.062C317.25 988.583 320.135 990.125 322.219 992.688C324.302 995.229 325.344 998.531 325.344 1002.59H316.312C316.312 1000.09 315.792 998.229 314.75 997C313.729 995.75 312.354 995.125 310.625 995.125C308.917 995.125 307.594 995.615 306.656 996.594C305.719 997.552 305.25 998.885 305.25 1000.59C305.25 1002.18 305.708 1003.45 306.625 1004.41C307.542 1005.36 309.24 1006.34 311.719 1007.34C314.219 1008.34 316.271 1009.29 317.875 1010.19C319.479 1011.06 320.833 1012.06 321.938 1013.19C323.042 1014.29 323.885 1015.56 324.469 1017C325.052 1018.42 325.344 1020.07 325.344 1021.97C325.344 1025.51 324.24 1028.39 322.031 1030.59C319.823 1032.8 316.781 1034.1 312.906 1034.5V1040.72H307.938V1034.53C303.667 1034.07 300.354 1032.56 298 1030C295.667 1027.42 294.5 1023.99 294.5 1019.72H303.531C303.531 1022.2 304.115 1024.1 305.281 1025.44C306.469 1026.75 308.167 1027.41 310.375 1027.41C312.208 1027.41 313.656 1026.93 314.719 1025.97C315.781 1024.99 316.312 1023.68 316.312 1022.03Z" fill="#BBBBBB" fill-opacity="0.2"/>
<path d="M38.3125 883.031C38.3125 881.323 37.8333 879.969 36.875 878.969C35.9375 877.948 34.3333 877.01 32.0625 876.156C29.7917 875.302 27.8333 874.458 26.1875 873.625C24.5417 872.771 23.125 871.802 21.9375 870.719C20.7708 869.615 19.8542 868.323 19.1875 866.844C18.5417 865.365 18.2188 863.604 18.2188 861.562C18.2188 858.042 19.3438 855.156 21.5938 852.906C23.8438 850.656 26.8333 849.344 30.5625 848.969V842.281H35.5625V849.062C39.25 849.583 42.1354 851.125 44.2188 853.688C46.3021 856.229 47.3438 859.531 47.3438 863.594H38.3125C38.3125 861.094 37.7917 859.229 36.75 858C35.7292 856.75 34.3542 856.125 32.625 856.125C30.9167 856.125 29.5938 856.615 28.6562 857.594C27.7188 858.552 27.25 859.885 27.25 861.594C27.25 863.177 27.7083 864.448 28.625 865.406C29.5417 866.365 31.2396 867.344 33.7188 868.344C36.2188 869.344 38.2708 870.292 39.875 871.188C41.4792 872.062 42.8333 873.062 43.9375 874.188C45.0417 875.292 45.8854 876.562 46.4688 878C47.0521 879.417 47.3438 881.073 47.3438 882.969C47.3438 886.51 46.2396 889.385 44.0312 891.594C41.8229 893.802 38.7812 895.104 34.9062 895.5V901.719H29.9375V895.531C25.6667 895.073 22.3542 893.562 20 891C17.6667 888.417 16.5 884.99 16.5 880.719H25.5312C25.5312 883.198 26.1146 885.104 27.2812 886.438C28.4688 887.75 30.1667 888.406 32.375 888.406C34.2083 888.406 35.6562 887.927 36.7188 886.969C37.7812 885.99 38.3125 884.677 38.3125 883.031Z" fill="#BBBBBB" fill-opacity="0.2"/>
<path d="M120.312 1027.03C120.312 1025.32 119.833 1023.97 118.875 1022.97C117.938 1021.95 116.333 1021.01 114.062 1020.16C111.792 1019.3 109.833 1018.46 108.188 1017.62C106.542 1016.77 105.125 1015.8 103.938 1014.72C102.771 1013.61 101.854 1012.32 101.188 1010.84C100.542 1009.36 100.219 1007.6 100.219 1005.56C100.219 1002.04 101.344 999.156 103.594 996.906C105.844 994.656 108.833 993.344 112.562 992.969V986.281H117.562V993.062C121.25 993.583 124.135 995.125 126.219 997.688C128.302 1000.23 129.344 1003.53 129.344 1007.59H120.312C120.312 1005.09 119.792 1003.23 118.75 1002C117.729 1000.75 116.354 1000.12 114.625 1000.12C112.917 1000.12 111.594 1000.61 110.656 1001.59C109.719 1002.55 109.25 1003.89 109.25 1005.59C109.25 1007.18 109.708 1008.45 110.625 1009.41C111.542 1010.36 113.24 1011.34 115.719 1012.34C118.219 1013.34 120.271 1014.29 121.875 1015.19C123.479 1016.06 124.833 1017.06 125.938 1018.19C127.042 1019.29 127.885 1020.56 128.469 1022C129.052 1023.42 129.344 1025.07 129.344 1026.97C129.344 1030.51 128.24 1033.39 126.031 1035.59C123.823 1037.8 120.781 1039.1 116.906 1039.5V1045.72H111.938V1039.53C107.667 1039.07 104.354 1037.56 102 1035C99.6667 1032.42 98.5 1028.99 98.5 1024.72H107.531C107.531 1027.2 108.115 1029.1 109.281 1030.44C110.469 1031.75 112.167 1032.41 114.375 1032.41C116.208 1032.41 117.656 1031.93 118.719 1030.97C119.781 1029.99 120.312 1028.68 120.312 1027.03Z" fill="#BBBBBB" fill-opacity="0.2"/>
<path d="M106.312 410.031C106.312 408.323 105.833 406.969 104.875 405.969C103.938 404.948 102.333 404.01 100.062 403.156C97.7917 402.302 95.8333 401.458 94.1875 400.625C92.5417 399.771 91.125 398.802 89.9375 397.719C88.7708 396.615 87.8542 395.323 87.1875 393.844C86.5417 392.365 86.2188 390.604 86.2188 388.562C86.2188 385.042 87.3438 382.156 89.5938 379.906C91.8438 377.656 94.8333 376.344 98.5625 375.969V369.281H103.562V376.062C107.25 376.583 110.135 378.125 112.219 380.688C114.302 383.229 115.344 386.531 115.344 390.594H106.312C106.312 388.094 105.792 386.229 104.75 385C103.729 383.75 102.354 383.125 100.625 383.125C98.9167 383.125 97.5938 383.615 96.6562 384.594C95.7188 385.552 95.25 386.885 95.25 388.594C95.25 390.177 95.7083 391.448 96.625 392.406C97.5417 393.365 99.2396 394.344 101.719 395.344C104.219 396.344 106.271 397.292 107.875 398.188C109.479 399.062 110.833 400.062 111.938 401.188C113.042 402.292 113.885 403.562 114.469 405C115.052 406.417 115.344 408.073 115.344 409.969C115.344 413.51 114.24 416.385 112.031 418.594C109.823 420.802 106.781 422.104 102.906 422.5V428.719H97.9375V422.531C93.6667 422.073 90.3542 420.562 88 418C85.6667 415.417 84.5 411.99 84.5 407.719H93.5312C93.5312 410.198 94.1146 412.104 95.2812 413.438C96.4688 414.75 98.1667 415.406 100.375 415.406C102.208 415.406 103.656 414.927 104.719 413.969C105.781 412.99 106.312 411.677 106.312 410.031Z" fill="#BBBBBB" fill-opacity="0.2"/>
<path d="M38.3125 275.031C38.3125 273.323 37.8333 271.969 36.875 270.969C35.9375 269.948 34.3333 269.01 32.0625 268.156C29.7917 267.302 27.8333 266.458 26.1875 265.625C24.5417 264.771 23.125 263.802 21.9375 262.719C20.7708 261.615 19.8542 260.323 19.1875 258.844C18.5417 257.365 18.2188 255.604 18.2188 253.562C18.2188 250.042 19.3438 247.156 21.5938 244.906C23.8438 242.656 26.8333 241.344 30.5625 240.969V234.281H35.5625V241.062C39.25 241.583 42.1354 243.125 44.2188 245.688C46.3021 248.229 47.3438 251.531 47.3438 255.594H38.3125C38.3125 253.094 37.7917 251.229 36.75 250C35.7292 248.75 34.3542 248.125 32.625 248.125C30.9167 248.125 29.5938 248.615 28.6562 249.594C27.7188 250.552 27.25 251.885 27.25 253.594C27.25 255.177 27.7083 256.448 28.625 257.406C29.5417 258.365 31.2396 259.344 33.7188 260.344C36.2188 261.344 38.2708 262.292 39.875 263.188C41.4792 264.062 42.8333 265.062 43.9375 266.188C45.0417 267.292 45.8854 268.562 46.4688 270C47.0521 271.417 47.3438 273.073 47.3438 274.969C47.3438 278.51 46.2396 281.385 44.0312 283.594C41.8229 285.802 38.7812 287.104 34.9062 287.5V293.719H29.9375V287.531C25.6667 287.073 22.3542 285.562 20 283C17.6667 280.417 16.5 276.99 16.5 272.719H25.5312C25.5312 275.198 26.1146 277.104 27.2812 278.438C28.4688 279.75 30.1667 280.406 32.375 280.406C34.2083 280.406 35.6562 279.927 36.7188 278.969C37.7812 277.99 38.3125 276.677 38.3125 275.031Z" fill="#BBBBBB" fill-opacity="0.2"/>
<path d="M216.312 270.031C216.312 268.323 215.833 266.969 214.875 265.969C213.938 264.948 212.333 264.01 210.062 263.156C207.792 262.302 205.833 261.458 204.188 260.625C202.542 259.771 201.125 258.802 199.938 257.719C198.771 256.615 197.854 255.323 197.188 253.844C196.542 252.365 196.219 250.604 196.219 248.562C196.219 245.042 197.344 242.156 199.594 239.906C201.844 237.656 204.833 236.344 208.562 235.969V229.281H213.562V236.062C217.25 236.583 220.135 238.125 222.219 240.688C224.302 243.229 225.344 246.531 225.344 250.594H216.312C216.312 248.094 215.792 246.229 214.75 245C213.729 243.75 212.354 243.125 210.625 243.125C208.917 243.125 207.594 243.615 206.656 244.594C205.719 245.552 205.25 246.885 205.25 248.594C205.25 250.177 205.708 251.448 206.625 252.406C207.542 253.365 209.24 254.344 211.719 255.344C214.219 256.344 216.271 257.292 217.875 258.188C219.479 259.062 220.833 260.062 221.938 261.188C223.042 262.292 223.885 263.562 224.469 265C225.052 266.417 225.344 268.073 225.344 269.969C225.344 273.51 224.24 276.385 222.031 278.594C219.823 280.802 216.781 282.104 212.906 282.5V288.719H207.938V282.531C203.667 282.073 200.354 280.562 198 278C195.667 275.417 194.5 271.99 194.5 267.719H203.531C203.531 270.198 204.115 272.104 205.281 273.438C206.469 274.75 208.167 275.406 210.375 275.406C212.208 275.406 213.656 274.927 214.719 273.969C215.781 272.99 216.312 271.677 216.312 270.031Z" fill="#BBBBBB" fill-opacity="0.2"/>
<path d="M120.312 717.031C120.312 715.323 119.833 713.969 118.875 712.969C117.938 711.948 116.333 711.01 114.062 710.156C111.792 709.302 109.833 708.458 108.188 707.625C106.542 706.771 105.125 705.802 103.938 704.719C102.771 703.615 101.854 702.323 101.188 700.844C100.542 699.365 100.219 697.604 100.219 695.562C100.219 692.042 101.344 689.156 103.594 686.906C105.844 684.656 108.833 683.344 112.562 682.969V676.281H117.562V683.062C121.25 683.583 124.135 685.125 126.219 687.688C128.302 690.229 129.344 693.531 129.344 697.594H120.312C120.312 695.094 119.792 693.229 118.75 692C117.729 690.75 116.354 690.125 114.625 690.125C112.917 690.125 111.594 690.615 110.656 691.594C109.719 692.552 109.25 693.885 109.25 695.594C109.25 697.177 109.708 698.448 110.625 699.406C111.542 700.365 113.24 701.344 115.719 702.344C118.219 703.344 120.271 704.292 121.875 705.188C123.479 706.062 124.833 707.062 125.938 708.188C127.042 709.292 127.885 710.562 128.469 712C129.052 713.417 129.344 715.073 129.344 716.969C129.344 720.51 128.24 723.385 126.031 725.594C123.823 727.802 120.781 729.104 116.906 729.5V735.719H111.938V729.531C107.667 729.073 104.354 727.562 102 725C99.6667 722.417 98.5 718.99 98.5 714.719H107.531C107.531 717.198 108.115 719.104 109.281 720.438C110.469 721.75 112.167 722.406 114.375 722.406C116.208 722.406 117.656 721.927 118.719 720.969C119.781 719.99 120.312 718.677 120.312 717.031Z" fill="#BBBBBB" fill-opacity="0.2"/>
<path d="M38.3125 52.0312C38.3125 50.3229 37.8333 48.9688 36.875 47.9688C35.9375 46.9479 34.3333 46.0104 32.0625 45.1562C29.7917 44.3021 27.8333 43.4583 26.1875 42.625C24.5417 41.7708 23.125 40.8021 21.9375 39.7188C20.7708 38.6146 19.8542 37.3229 19.1875 35.8438C18.5417 34.3646 18.2188 32.6042 18.2188 30.5625C18.2188 27.0417 19.3438 24.1562 21.5938 21.9062C23.8438 19.6562 26.8333 18.3438 30.5625 17.9688V11.2812H35.5625V18.0625C39.25 18.5833 42.1354 20.125 44.2188 22.6875C46.3021 25.2292 47.3438 28.5312 47.3438 32.5938H38.3125C38.3125 30.0938 37.7917 28.2292 36.75 27C35.7292 25.75 34.3542 25.125 32.625 25.125C30.9167 25.125 29.5938 25.6146 28.6562 26.5938C27.7188 27.5521 27.25 28.8854 27.25 30.5938C27.25 32.1771 27.7083 33.4479 28.625 34.4062C29.5417 35.3646 31.2396 36.3438 33.7188 37.3438C36.2188 38.3438 38.2708 39.2917 39.875 40.1875C41.4792 41.0625 42.8333 42.0625 43.9375 43.1875C45.0417 44.2917 45.8854 45.5625 46.4688 47C47.0521 48.4167 47.3438 50.0729 47.3438 51.9688C47.3438 55.5104 46.2396 58.3854 44.0312 60.5938C41.8229 62.8021 38.7812 64.1042 34.9062 64.5V70.7188H29.9375V64.5312C25.6667 64.0729 22.3542 62.5625 20 60C17.6667 57.4167 16.5 53.9896 16.5 49.7188H25.5312C25.5312 52.1979 26.1146 54.1042 27.2812 55.4375C28.4688 56.75 30.1667 57.4062 32.375 57.4062C34.2083 57.4062 35.6562 56.9271 36.7188 55.9688C37.7812 54.9896 38.3125 53.6771 38.3125 52.0312Z" fill="#BBBBBB" fill-opacity="0.2"/>
<path d="M1824.31 726.031C1824.31 724.323 1823.83 722.969 1822.88 721.969C1821.94 720.948 1820.33 720.01 1818.06 719.156C1815.79 718.302 1813.83 717.458 1812.19 716.625C1810.54 715.771 1809.12 714.802 1807.94 713.719C1806.77 712.615 1805.85 711.323 1805.19 709.844C1804.54 708.365 1804.22 706.604 1804.22 704.562C1804.22 701.042 1805.34 698.156 1807.59 695.906C1809.84 693.656 1812.83 692.344 1816.56 691.969V685.281H1821.56V692.062C1825.25 692.583 1828.14 694.125 1830.22 696.688C1832.3 699.229 1833.34 702.531 1833.34 706.594H1824.31C1824.31 704.094 1823.79 702.229 1822.75 701C1821.73 699.75 1820.35 699.125 1818.62 699.125C1816.92 699.125 1815.59 699.615 1814.66 700.594C1813.72 701.552 1813.25 702.885 1813.25 704.594C1813.25 706.177 1813.71 707.448 1814.62 708.406C1815.54 709.365 1817.24 710.344 1819.72 711.344C1822.22 712.344 1824.27 713.292 1825.88 714.188C1827.48 715.062 1828.83 716.062 1829.94 717.188C1831.04 718.292 1831.89 719.562 1832.47 721C1833.05 722.417 1833.34 724.073 1833.34 725.969C1833.34 729.51 1832.24 732.385 1830.03 734.594C1827.82 736.802 1824.78 738.104 1820.91 738.5V744.719H1815.94V738.531C1811.67 738.073 1808.35 736.562 1806 734C1803.67 731.417 1802.5 727.99 1802.5 723.719H1811.53C1811.53 726.198 1812.11 728.104 1813.28 729.438C1814.47 730.75 1816.17 731.406 1818.38 731.406C1820.21 731.406 1821.66 730.927 1822.72 729.969C1823.78 728.99 1824.31 727.677 1824.31 726.031Z" fill="#BBBBBB" fill-opacity="0.2"/>
<path d="M1824.31 1017.03C1824.31 1015.32 1823.83 1013.97 1822.88 1012.97C1821.94 1011.95 1820.33 1011.01 1818.06 1010.16C1815.79 1009.3 1813.83 1008.46 1812.19 1007.62C1810.54 1006.77 1809.12 1005.8 1807.94 1004.72C1806.77 1003.61 1805.85 1002.32 1805.19 1000.84C1804.54 999.365 1804.22 997.604 1804.22 995.562C1804.22 992.042 1805.34 989.156 1807.59 986.906C1809.84 984.656 1812.83 983.344 1816.56 982.969V976.281H1821.56V983.062C1825.25 983.583 1828.14 985.125 1830.22 987.688C1832.3 990.229 1833.34 993.531 1833.34 997.594H1824.31C1824.31 995.094 1823.79 993.229 1822.75 992C1821.73 990.75 1820.35 990.125 1818.62 990.125C1816.92 990.125 1815.59 990.615 1814.66 991.594C1813.72 992.552 1813.25 993.885 1813.25 995.594C1813.25 997.177 1813.71 998.448 1814.62 999.406C1815.54 1000.36 1817.24 1001.34 1819.72 1002.34C1822.22 1003.34 1824.27 1004.29 1825.88 1005.19C1827.48 1006.06 1828.83 1007.06 1829.94 1008.19C1831.04 1009.29 1831.89 1010.56 1832.47 1012C1833.05 1013.42 1833.34 1015.07 1833.34 1016.97C1833.34 1020.51 1832.24 1023.39 1830.03 1025.59C1827.82 1027.8 1824.78 1029.1 1820.91 1029.5V1035.72H1815.94V1029.53C1811.67 1029.07 1808.35 1027.56 1806 1025C1803.67 1022.42 1802.5 1018.99 1802.5 1014.72H1811.53C1811.53 1017.2 1812.11 1019.1 1813.28 1020.44C1814.47 1021.75 1816.17 1022.41 1818.38 1022.41C1820.21 1022.41 1821.66 1021.93 1822.72 1020.97C1823.78 1019.99 1824.31 1018.68 1824.31 1017.03Z" fill="#BBBBBB" fill-opacity="0.2"/>
<path d="M1824.31 409.031C1824.31 407.323 1823.83 405.969 1822.88 404.969C1821.94 403.948 1820.33 403.01 1818.06 402.156C1815.79 401.302 1813.83 400.458 1812.19 399.625C1810.54 398.771 1809.12 397.802 1807.94 396.719C1806.77 395.615 1805.85 394.323 1805.19 392.844C1804.54 391.365 1804.22 389.604 1804.22 387.562C1804.22 384.042 1805.34 381.156 1807.59 378.906C1809.84 376.656 1812.83 375.344 1816.56 374.969V368.281H1821.56V375.062C1825.25 375.583 1828.14 377.125 1830.22 379.688C1832.3 382.229 1833.34 385.531 1833.34 389.594H1824.31C1824.31 387.094 1823.79 385.229 1822.75 384C1821.73 382.75 1820.35 382.125 1818.62 382.125C1816.92 382.125 1815.59 382.615 1814.66 383.594C1813.72 384.552 1813.25 385.885 1813.25 387.594C1813.25 389.177 1813.71 390.448 1814.62 391.406C1815.54 392.365 1817.24 393.344 1819.72 394.344C1822.22 395.344 1824.27 396.292 1825.88 397.188C1827.48 398.062 1828.83 399.062 1829.94 400.188C1831.04 401.292 1831.89 402.562 1832.47 404C1833.05 405.417 1833.34 407.073 1833.34 408.969C1833.34 412.51 1832.24 415.385 1830.03 417.594C1827.82 419.802 1824.78 421.104 1820.91 421.5V427.719H1815.94V421.531C1811.67 421.073 1808.35 419.562 1806 417C1803.67 414.417 1802.5 410.99 1802.5 406.719H1811.53C1811.53 409.198 1812.11 411.104 1813.28 412.438C1814.47 413.75 1816.17 414.406 1818.38 414.406C1820.21 414.406 1821.66 413.927 1822.72 412.969C1823.78 411.99 1824.31 410.677 1824.31 409.031Z" fill="#BBBBBB" fill-opacity="0.2"/>
<path d="M1824.31 186.031C1824.31 184.323 1823.83 182.969 1822.88 181.969C1821.94 180.948 1820.33 180.01 1818.06 179.156C1815.79 178.302 1813.83 177.458 1812.19 176.625C1810.54 175.771 1809.12 174.802 1807.94 173.719C1806.77 172.615 1805.85 171.323 1805.19 169.844C1804.54 168.365 1804.22 166.604 1804.22 164.562C1804.22 161.042 1805.34 158.156 1807.59 155.906C1809.84 153.656 1812.83 152.344 1816.56 151.969V145.281H1821.56V152.062C1825.25 152.583 1828.14 154.125 1830.22 156.688C1832.3 159.229 1833.34 162.531 1833.34 166.594H1824.31C1824.31 164.094 1823.79 162.229 1822.75 161C1821.73 159.75 1820.35 159.125 1818.62 159.125C1816.92 159.125 1815.59 159.615 1814.66 160.594C1813.72 161.552 1813.25 162.885 1813.25 164.594C1813.25 166.177 1813.71 167.448 1814.62 168.406C1815.54 169.365 1817.24 170.344 1819.72 171.344C1822.22 172.344 1824.27 173.292 1825.88 174.188C1827.48 175.062 1828.83 176.062 1829.94 177.188C1831.04 178.292 1831.89 179.562 1832.47 181C1833.05 182.417 1833.34 184.073 1833.34 185.969C1833.34 189.51 1832.24 192.385 1830.03 194.594C1827.82 196.802 1824.78 198.104 1820.91 198.5V204.719H1815.94V198.531C1811.67 198.073 1808.35 196.562 1806 194C1803.67 191.417 1802.5 187.99 1802.5 183.719H1811.53C1811.53 186.198 1812.11 188.104 1813.28 189.438C1814.47 190.75 1816.17 191.406 1818.38 191.406C1820.21 191.406 1821.66 190.927 1822.72 189.969C1823.78 188.99 1824.31 187.677 1824.31 186.031Z" fill="#BBBBBB" fill-opacity="0.2"/>
<path d="M1688.31 592.031C1688.31 590.323 1687.83 588.969 1686.88 587.969C1685.94 586.948 1684.33 586.01 1682.06 585.156C1679.79 584.302 1677.83 583.458 1676.19 582.625C1674.54 581.771 1673.12 580.802 1671.94 579.719C1670.77 578.615 1669.85 577.323 1669.19 575.844C1668.54 574.365 1668.22 572.604 1668.22 570.562C1668.22 567.042 1669.34 564.156 1671.59 561.906C1673.84 559.656 1676.83 558.344 1680.56 557.969V551.281H1685.56V558.062C1689.25 558.583 1692.14 560.125 1694.22 562.688C1696.3 565.229 1697.34 568.531 1697.34 572.594H1688.31C1688.31 570.094 1687.79 568.229 1686.75 567C1685.73 565.75 1684.35 565.125 1682.62 565.125C1680.92 565.125 1679.59 565.615 1678.66 566.594C1677.72 567.552 1677.25 568.885 1677.25 570.594C1677.25 572.177 1677.71 573.448 1678.62 574.406C1679.54 575.365 1681.24 576.344 1683.72 577.344C1686.22 578.344 1688.27 579.292 1689.88 580.188C1691.48 581.062 1692.83 582.062 1693.94 583.188C1695.04 584.292 1695.89 585.562 1696.47 587C1697.05 588.417 1697.34 590.073 1697.34 591.969C1697.34 595.51 1696.24 598.385 1694.03 600.594C1691.82 602.802 1688.78 604.104 1684.91 604.5V610.719H1679.94V604.531C1675.67 604.073 1672.35 602.562 1670 600C1667.67 597.417 1666.5 593.99 1666.5 589.719H1675.53C1675.53 592.198 1676.11 594.104 1677.28 595.438C1678.47 596.75 1680.17 597.406 1682.38 597.406C1684.21 597.406 1685.66 596.927 1686.72 595.969C1687.78 594.99 1688.31 593.677 1688.31 592.031Z" fill="#BBBBBB" fill-opacity="0.2"/>
<path d="M1688.31 883.031C1688.31 881.323 1687.83 879.969 1686.88 878.969C1685.94 877.948 1684.33 877.01 1682.06 876.156C1679.79 875.302 1677.83 874.458 1676.19 873.625C1674.54 872.771 1673.12 871.802 1671.94 870.719C1670.77 869.615 1669.85 868.323 1669.19 866.844C1668.54 865.365 1668.22 863.604 1668.22 861.562C1668.22 858.042 1669.34 855.156 1671.59 852.906C1673.84 850.656 1676.83 849.344 1680.56 848.969V842.281H1685.56V849.062C1689.25 849.583 1692.14 851.125 1694.22 853.688C1696.3 856.229 1697.34 859.531 1697.34 863.594H1688.31C1688.31 861.094 1687.79 859.229 1686.75 858C1685.73 856.75 1684.35 856.125 1682.62 856.125C1680.92 856.125 1679.59 856.615 1678.66 857.594C1677.72 858.552 1677.25 859.885 1677.25 861.594C1677.25 863.177 1677.71 864.448 1678.62 865.406C1679.54 866.365 1681.24 867.344 1683.72 868.344C1686.22 869.344 1688.27 870.292 1689.88 871.188C1691.48 872.062 1692.83 873.062 1693.94 874.188C1695.04 875.292 1695.89 876.562 1696.47 878C1697.05 879.417 1697.34 881.073 1697.34 882.969C1697.34 886.51 1696.24 889.385 1694.03 891.594C1691.82 893.802 1688.78 895.104 1684.91 895.5V901.719H1679.94V895.531C1675.67 895.073 1672.35 893.562 1670 891C1667.67 888.417 1666.5 884.99 1666.5 880.719H1675.53C1675.53 883.198 1676.11 885.104 1677.28 886.438C1678.47 887.75 1680.17 888.406 1682.38 888.406C1684.21 888.406 1685.66 887.927 1686.72 886.969C1687.78 885.99 1688.31 884.677 1688.31 883.031Z" fill="#BBBBBB" fill-opacity="0.2"/>
<path d="M1688.31 275.031C1688.31 273.323 1687.83 271.969 1686.88 270.969C1685.94 269.948 1684.33 269.01 1682.06 268.156C1679.79 267.302 1677.83 266.458 1676.19 265.625C1674.54 264.771 1673.12 263.802 1671.94 262.719C1670.77 261.615 1669.85 260.323 1669.19 258.844C1668.54 257.365 1668.22 255.604 1668.22 253.562C1668.22 250.042 1669.34 247.156 1671.59 244.906C1673.84 242.656 1676.83 241.344 1680.56 240.969V234.281H1685.56V241.062C1689.25 241.583 1692.14 243.125 1694.22 245.688C1696.3 248.229 1697.34 251.531 1697.34 255.594H1688.31C1688.31 253.094 1687.79 251.229 1686.75 250C1685.73 248.75 1684.35 248.125 1682.62 248.125C1680.92 248.125 1679.59 248.615 1678.66 249.594C1677.72 250.552 1677.25 251.885 1677.25 253.594C1677.25 255.177 1677.71 256.448 1678.62 257.406C1679.54 258.365 1681.24 259.344 1683.72 260.344C1686.22 261.344 1688.27 262.292 1689.88 263.188C1691.48 264.062 1692.83 265.062 1693.94 266.188C1695.04 267.292 1695.89 268.562 1696.47 270C1697.05 271.417 1697.34 273.073 1697.34 274.969C1697.34 278.51 1696.24 281.385 1694.03 283.594C1691.82 285.802 1688.78 287.104 1684.91 287.5V293.719H1679.94V287.531C1675.67 287.073 1672.35 285.562 1670 283C1667.67 280.417 1666.5 276.99 1666.5 272.719H1675.53C1675.53 275.198 1676.11 277.104 1677.28 278.438C1678.47 279.75 1680.17 280.406 1682.38 280.406C1684.21 280.406 1685.66 279.927 1686.72 278.969C1687.78 277.99 1688.31 276.677 1688.31 275.031Z" fill="#BBBBBB" fill-opacity="0.2"/>
<path d="M1688.31 52.0312C1688.31 50.3229 1687.83 48.9688 1686.88 47.9688C1685.94 46.9479 1684.33 46.0104 1682.06 45.1562C1679.79 44.3021 1677.83 43.4583 1676.19 42.625C1674.54 41.7708 1673.12 40.8021 1671.94 39.7188C1670.77 38.6146 1669.85 37.3229 1669.19 35.8438C1668.54 34.3646 1668.22 32.6042 1668.22 30.5625C1668.22 27.0417 1669.34 24.1562 1671.59 21.9062C1673.84 19.6562 1676.83 18.3438 1680.56 17.9688V11.2812H1685.56V18.0625C1689.25 18.5833 1692.14 20.125 1694.22 22.6875C1696.3 25.2292 1697.34 28.5312 1697.34 32.5938H1688.31C1688.31 30.0938 1687.79 28.2292 1686.75 27C1685.73 25.75 1684.35 25.125 1682.62 25.125C1680.92 25.125 1679.59 25.6146 1678.66 26.5938C1677.72 27.5521 1677.25 28.8854 1677.25 30.5938C1677.25 32.1771 1677.71 33.4479 1678.62 34.4062C1679.54 35.3646 1681.24 36.3438 1683.72 37.3438C1686.22 38.3438 1688.27 39.2917 1689.88 40.1875C1691.48 41.0625 1692.83 42.0625 1693.94 43.1875C1695.04 44.2917 1695.89 45.5625 1696.47 47C1697.05 48.4167 1697.34 50.0729 1697.34 51.9688C1697.34 55.5104 1696.24 58.3854 1694.03 60.5938C1691.82 62.8021 1688.78 64.1042 1684.91 64.5V70.7188H1679.94V64.5312C1675.67 64.0729 1672.35 62.5625 1670 60C1667.67 57.4167 1666.5 53.9896 1666.5 49.7188H1675.53C1675.53 52.1979 1676.11 54.1042 1677.28 55.4375C1678.47 56.75 1680.17 57.4062 1682.38 57.4062C1684.21 57.4062 1685.66 56.9271 1686.72 55.9688C1687.78 54.9896 1688.31 53.6771 1688.31 52.0312Z" fill="#BBBBBB" fill-opacity="0.2"/>
<path d="M1580.31 726.031C1580.31 724.323 1579.83 722.969 1578.88 721.969C1577.94 720.948 1576.33 720.01 1574.06 719.156C1571.79 718.302 1569.83 717.458 1568.19 716.625C1566.54 715.771 1565.12 714.802 1563.94 713.719C1562.77 712.615 1561.85 711.323 1561.19 709.844C1560.54 708.365 1560.22 706.604 1560.22 704.562C1560.22 701.042 1561.34 698.156 1563.59 695.906C1565.84 693.656 1568.83 692.344 1572.56 691.969V685.281H1577.56V692.062C1581.25 692.583 1584.14 694.125 1586.22 696.688C1588.3 699.229 1589.34 702.531 1589.34 706.594H1580.31C1580.31 704.094 1579.79 702.229 1578.75 701C1577.73 699.75 1576.35 699.125 1574.62 699.125C1572.92 699.125 1571.59 699.615 1570.66 700.594C1569.72 701.552 1569.25 702.885 1569.25 704.594C1569.25 706.177 1569.71 707.448 1570.62 708.406C1571.54 709.365 1573.24 710.344 1575.72 711.344C1578.22 712.344 1580.27 713.292 1581.88 714.188C1583.48 715.062 1584.83 716.062 1585.94 717.188C1587.04 718.292 1587.89 719.562 1588.47 721C1589.05 722.417 1589.34 724.073 1589.34 725.969C1589.34 729.51 1588.24 732.385 1586.03 734.594C1583.82 736.802 1580.78 738.104 1576.91 738.5V744.719H1571.94V738.531C1567.67 738.073 1564.35 736.562 1562 734C1559.67 731.417 1558.5 727.99 1558.5 723.719H1567.53C1567.53 726.198 1568.11 728.104 1569.28 729.438C1570.47 730.75 1572.17 731.406 1574.38 731.406C1576.21 731.406 1577.66 730.927 1578.72 729.969C1579.78 728.99 1580.31 727.677 1580.31 726.031Z" fill="#BBBBBB" fill-opacity="0.2"/>
<path d="M1580.31 1017.03C1580.31 1015.32 1579.83 1013.97 1578.88 1012.97C1577.94 1011.95 1576.33 1011.01 1574.06 1010.16C1571.79 1009.3 1569.83 1008.46 1568.19 1007.62C1566.54 1006.77 1565.12 1005.8 1563.94 1004.72C1562.77 1003.61 1561.85 1002.32 1561.19 1000.84C1560.54 999.365 1560.22 997.604 1560.22 995.562C1560.22 992.042 1561.34 989.156 1563.59 986.906C1565.84 984.656 1568.83 983.344 1572.56 982.969V976.281H1577.56V983.062C1581.25 983.583 1584.14 985.125 1586.22 987.688C1588.3 990.229 1589.34 993.531 1589.34 997.594H1580.31C1580.31 995.094 1579.79 993.229 1578.75 992C1577.73 990.75 1576.35 990.125 1574.62 990.125C1572.92 990.125 1571.59 990.615 1570.66 991.594C1569.72 992.552 1569.25 993.885 1569.25 995.594C1569.25 997.177 1569.71 998.448 1570.62 999.406C1571.54 1000.36 1573.24 1001.34 1575.72 1002.34C1578.22 1003.34 1580.27 1004.29 1581.88 1005.19C1583.48 1006.06 1584.83 1007.06 1585.94 1008.19C1587.04 1009.29 1587.89 1010.56 1588.47 1012C1589.05 1013.42 1589.34 1015.07 1589.34 1016.97C1589.34 1020.51 1588.24 1023.39 1586.03 1025.59C1583.82 1027.8 1580.78 1029.1 1576.91 1029.5V1035.72H1571.94V1029.53C1567.67 1029.07 1564.35 1027.56 1562 1025C1559.67 1022.42 1558.5 1018.99 1558.5 1014.72H1567.53C1567.53 1017.2 1568.11 1019.1 1569.28 1020.44C1570.47 1021.75 1572.17 1022.41 1574.38 1022.41C1576.21 1022.41 1577.66 1021.93 1578.72 1020.97C1579.78 1019.99 1580.31 1018.68 1580.31 1017.03Z" fill="#BBBBBB" fill-opacity="0.2"/>
<path d="M1580.31 409.031C1580.31 407.323 1579.83 405.969 1578.88 404.969C1577.94 403.948 1576.33 403.01 1574.06 402.156C1571.79 401.302 1569.83 400.458 1568.19 399.625C1566.54 398.771 1565.12 397.802 1563.94 396.719C1562.77 395.615 1561.85 394.323 1561.19 392.844C1560.54 391.365 1560.22 389.604 1560.22 387.562C1560.22 384.042 1561.34 381.156 1563.59 378.906C1565.84 376.656 1568.83 375.344 1572.56 374.969V368.281H1577.56V375.062C1581.25 375.583 1584.14 377.125 1586.22 379.688C1588.3 382.229 1589.34 385.531 1589.34 389.594H1580.31C1580.31 387.094 1579.79 385.229 1578.75 384C1577.73 382.75 1576.35 382.125 1574.62 382.125C1572.92 382.125 1571.59 382.615 1570.66 383.594C1569.72 384.552 1569.25 385.885 1569.25 387.594C1569.25 389.177 1569.71 390.448 1570.62 391.406C1571.54 392.365 1573.24 393.344 1575.72 394.344C1578.22 395.344 1580.27 396.292 1581.88 397.188C1583.48 398.062 1584.83 399.062 1585.94 400.188C1587.04 401.292 1587.89 402.562 1588.47 404C1589.05 405.417 1589.34 407.073 1589.34 408.969C1589.34 412.51 1588.24 415.385 1586.03 417.594C1583.82 419.802 1580.78 421.104 1576.91 421.5V427.719H1571.94V421.531C1567.67 421.073 1564.35 419.562 1562 417C1559.67 414.417 1558.5 410.99 1558.5 406.719H1567.53C1567.53 409.198 1568.11 411.104 1569.28 412.438C1570.47 413.75 1572.17 414.406 1574.38 414.406C1576.21 414.406 1577.66 413.927 1578.72 412.969C1579.78 411.99 1580.31 410.677 1580.31 409.031Z" fill="#BBBBBB" fill-opacity="0.2"/>
<path d="M1580.31 186.031C1580.31 184.323 1579.83 182.969 1578.88 181.969C1577.94 180.948 1576.33 180.01 1574.06 179.156C1571.79 178.302 1569.83 177.458 1568.19 176.625C1566.54 175.771 1565.12 174.802 1563.94 173.719C1562.77 172.615 1561.85 171.323 1561.19 169.844C1560.54 168.365 1560.22 166.604 1560.22 164.562C1560.22 161.042 1561.34 158.156 1563.59 155.906C1565.84 153.656 1568.83 152.344 1572.56 151.969V145.281H1577.56V152.062C1581.25 152.583 1584.14 154.125 1586.22 156.688C1588.3 159.229 1589.34 162.531 1589.34 166.594H1580.31C1580.31 164.094 1579.79 162.229 1578.75 161C1577.73 159.75 1576.35 159.125 1574.62 159.125C1572.92 159.125 1571.59 159.615 1570.66 160.594C1569.72 161.552 1569.25 162.885 1569.25 164.594C1569.25 166.177 1569.71 167.448 1570.62 168.406C1571.54 169.365 1573.24 170.344 1575.72 171.344C1578.22 172.344 1580.27 173.292 1581.88 174.188C1583.48 175.062 1584.83 176.062 1585.94 177.188C1587.04 178.292 1587.89 179.562 1588.47 181C1589.05 182.417 1589.34 184.073 1589.34 185.969C1589.34 189.51 1588.24 192.385 1586.03 194.594C1583.82 196.802 1580.78 198.104 1576.91 198.5V204.719H1571.94V198.531C1567.67 198.073 1564.35 196.562 1562 194C1559.67 191.417 1558.5 187.99 1558.5 183.719H1567.53C1567.53 186.198 1568.11 188.104 1569.28 189.438C1570.47 190.75 1572.17 191.406 1574.38 191.406C1576.21 191.406 1577.66 190.927 1578.72 189.969C1579.78 188.99 1580.31 187.677 1580.31 186.031Z" fill="#BBBBBB" fill-opacity="0.2"/>
<path d="M1472.31 592.031C1472.31 590.323 1471.83 588.969 1470.88 587.969C1469.94 586.948 1468.33 586.01 1466.06 585.156C1463.79 584.302 1461.83 583.458 1460.19 582.625C1458.54 581.771 1457.12 580.802 1455.94 579.719C1454.77 578.615 1453.85 577.323 1453.19 575.844C1452.54 574.365 1452.22 572.604 1452.22 570.562C1452.22 567.042 1453.34 564.156 1455.59 561.906C1457.84 559.656 1460.83 558.344 1464.56 557.969V551.281H1469.56V558.062C1473.25 558.583 1476.14 560.125 1478.22 562.688C1480.3 565.229 1481.34 568.531 1481.34 572.594H1472.31C1472.31 570.094 1471.79 568.229 1470.75 567C1469.73 565.75 1468.35 565.125 1466.62 565.125C1464.92 565.125 1463.59 565.615 1462.66 566.594C1461.72 567.552 1461.25 568.885 1461.25 570.594C1461.25 572.177 1461.71 573.448 1462.62 574.406C1463.54 575.365 1465.24 576.344 1467.72 577.344C1470.22 578.344 1472.27 579.292 1473.88 580.188C1475.48 581.062 1476.83 582.062 1477.94 583.188C1479.04 584.292 1479.89 585.562 1480.47 587C1481.05 588.417 1481.34 590.073 1481.34 591.969C1481.34 595.51 1480.24 598.385 1478.03 600.594C1475.82 602.802 1472.78 604.104 1468.91 604.5V610.719H1463.94V604.531C1459.67 604.073 1456.35 602.562 1454 600C1451.67 597.417 1450.5 593.99 1450.5 589.719H1459.53C1459.53 592.198 1460.11 594.104 1461.28 595.438C1462.47 596.75 1464.17 597.406 1466.38 597.406C1468.21 597.406 1469.66 596.927 1470.72 595.969C1471.78 594.99 1472.31 593.677 1472.31 592.031Z" fill="#BBBBBB" fill-opacity="0.2"/>
<path d="M1472.31 883.031C1472.31 881.323 1471.83 879.969 1470.88 878.969C1469.94 877.948 1468.33 877.01 1466.06 876.156C1463.79 875.302 1461.83 874.458 1460.19 873.625C1458.54 872.771 1457.12 871.802 1455.94 870.719C1454.77 869.615 1453.85 868.323 1453.19 866.844C1452.54 865.365 1452.22 863.604 1452.22 861.562C1452.22 858.042 1453.34 855.156 1455.59 852.906C1457.84 850.656 1460.83 849.344 1464.56 848.969V842.281H1469.56V849.062C1473.25 849.583 1476.14 851.125 1478.22 853.688C1480.3 856.229 1481.34 859.531 1481.34 863.594H1472.31C1472.31 861.094 1471.79 859.229 1470.75 858C1469.73 856.75 1468.35 856.125 1466.62 856.125C1464.92 856.125 1463.59 856.615 1462.66 857.594C1461.72 858.552 1461.25 859.885 1461.25 861.594C1461.25 863.177 1461.71 864.448 1462.62 865.406C1463.54 866.365 1465.24 867.344 1467.72 868.344C1470.22 869.344 1472.27 870.292 1473.88 871.188C1475.48 872.062 1476.83 873.062 1477.94 874.188C1479.04 875.292 1479.89 876.562 1480.47 878C1481.05 879.417 1481.34 881.073 1481.34 882.969C1481.34 886.51 1480.24 889.385 1478.03 891.594C1475.82 893.802 1472.78 895.104 1468.91 895.5V901.719H1463.94V895.531C1459.67 895.073 1456.35 893.562 1454 891C1451.67 888.417 1450.5 884.99 1450.5 880.719H1459.53C1459.53 883.198 1460.11 885.104 1461.28 886.438C1462.47 887.75 1464.17 888.406 1466.38 888.406C1468.21 888.406 1469.66 887.927 1470.72 886.969C1471.78 885.99 1472.31 884.677 1472.31 883.031Z" fill="#BBBBBB" fill-opacity="0.2"/>
<path d="M1472.31 275.031C1472.31 273.323 1471.83 271.969 1470.88 270.969C1469.94 269.948 1468.33 269.01 1466.06 268.156C1463.79 267.302 1461.83 266.458 1460.19 265.625C1458.54 264.771 1457.12 263.802 1455.94 262.719C1454.77 261.615 1453.85 260.323 1453.19 258.844C1452.54 257.365 1452.22 255.604 1452.22 253.562C1452.22 250.042 1453.34 247.156 1455.59 244.906C1457.84 242.656 1460.83 241.344 1464.56 240.969V234.281H1469.56V241.062C1473.25 241.583 1476.14 243.125 1478.22 245.688C1480.3 248.229 1481.34 251.531 1481.34 255.594H1472.31C1472.31 253.094 1471.79 251.229 1470.75 250C1469.73 248.75 1468.35 248.125 1466.62 248.125C1464.92 248.125 1463.59 248.615 1462.66 249.594C1461.72 250.552 1461.25 251.885 1461.25 253.594C1461.25 255.177 1461.71 256.448 1462.62 257.406C1463.54 258.365 1465.24 259.344 1467.72 260.344C1470.22 261.344 1472.27 262.292 1473.88 263.188C1475.48 264.062 1476.83 265.062 1477.94 266.188C1479.04 267.292 1479.89 268.562 1480.47 270C1481.05 271.417 1481.34 273.073 1481.34 274.969C1481.34 278.51 1480.24 281.385 1478.03 283.594C1475.82 285.802 1472.78 287.104 1468.91 287.5V293.719H1463.94V287.531C1459.67 287.073 1456.35 285.562 1454 283C1451.67 280.417 1450.5 276.99 1450.5 272.719H1459.53C1459.53 275.198 1460.11 277.104 1461.28 278.438C1462.47 279.75 1464.17 280.406 1466.38 280.406C1468.21 280.406 1469.66 279.927 1470.72 278.969C1471.78 277.99 1472.31 276.677 1472.31 275.031Z" fill="#BBBBBB" fill-opacity="0.2"/>
<path d="M1472.31 52.0312C1472.31 50.3229 1471.83 48.9688 1470.88 47.9688C1469.94 46.9479 1468.33 46.0104 1466.06 45.1562C1463.79 44.3021 1461.83 43.4583 1460.19 42.625C1458.54 41.7708 1457.12 40.8021 1455.94 39.7188C1454.77 38.6146 1453.85 37.3229 1453.19 35.8438C1452.54 34.3646 1452.22 32.6042 1452.22 30.5625C1452.22 27.0417 1453.34 24.1562 1455.59 21.9062C1457.84 19.6562 1460.83 18.3438 1464.56 17.9688V11.2812H1469.56V18.0625C1473.25 18.5833 1476.14 20.125 1478.22 22.6875C1480.3 25.2292 1481.34 28.5312 1481.34 32.5938H1472.31C1472.31 30.0938 1471.79 28.2292 1470.75 27C1469.73 25.75 1468.35 25.125 1466.62 25.125C1464.92 25.125 1463.59 25.6146 1462.66 26.5938C1461.72 27.5521 1461.25 28.8854 1461.25 30.5938C1461.25 32.1771 1461.71 33.4479 1462.62 34.4062C1463.54 35.3646 1465.24 36.3438 1467.72 37.3438C1470.22 38.3438 1472.27 39.2917 1473.88 40.1875C1475.48 41.0625 1476.83 42.0625 1477.94 43.1875C1479.04 44.2917 1479.89 45.5625 1480.47 47C1481.05 48.4167 1481.34 50.0729 1481.34 51.9688C1481.34 55.5104 1480.24 58.3854 1478.03 60.5938C1475.82 62.8021 1472.78 64.1042 1468.91 64.5V70.7188H1463.94V64.5312C1459.67 64.0729 1456.35 62.5625 1454 60C1451.67 57.4167 1450.5 53.9896 1450.5 49.7188H1459.53C1459.53 52.1979 1460.11 54.1042 1461.28 55.4375C1462.47 56.75 1464.17 57.4062 1466.38 57.4062C1468.21 57.4062 1469.66 56.9271 1470.72 55.9688C1471.78 54.9896 1472.31 53.6771 1472.31 52.0312Z" fill="#BBBBBB" fill-opacity="0.2"/>
<path d="M1344.31 731.031C1344.31 729.323 1343.83 727.969 1342.88 726.969C1341.94 725.948 1340.33 725.01 1338.06 724.156C1335.79 723.302 1333.83 722.458 1332.19 721.625C1330.54 720.771 1329.12 719.802 1327.94 718.719C1326.77 717.615 1325.85 716.323 1325.19 714.844C1324.54 713.365 1324.22 711.604 1324.22 709.562C1324.22 706.042 1325.34 703.156 1327.59 700.906C1329.84 698.656 1332.83 697.344 1336.56 696.969V690.281H1341.56V697.062C1345.25 697.583 1348.14 699.125 1350.22 701.688C1352.3 704.229 1353.34 707.531 1353.34 711.594H1344.31C1344.31 709.094 1343.79 707.229 1342.75 706C1341.73 704.75 1340.35 704.125 1338.62 704.125C1336.92 704.125 1335.59 704.615 1334.66 705.594C1333.72 706.552 1333.25 707.885 1333.25 709.594C1333.25 711.177 1333.71 712.448 1334.62 713.406C1335.54 714.365 1337.24 715.344 1339.72 716.344C1342.22 717.344 1344.27 718.292 1345.88 719.188C1347.48 720.062 1348.83 721.062 1349.94 722.188C1351.04 723.292 1351.89 724.562 1352.47 726C1353.05 727.417 1353.34 729.073 1353.34 730.969C1353.34 734.51 1352.24 737.385 1350.03 739.594C1347.82 741.802 1344.78 743.104 1340.91 743.5V749.719H1335.94V743.531C1331.67 743.073 1328.35 741.562 1326 739C1323.67 736.417 1322.5 732.99 1322.5 728.719H1331.53C1331.53 731.198 1332.11 733.104 1333.28 734.438C1334.47 735.75 1336.17 736.406 1338.38 736.406C1340.21 736.406 1341.66 735.927 1342.72 734.969C1343.78 733.99 1344.31 732.677 1344.31 731.031Z" fill="#BBBBBB" fill-opacity="0.2"/>
<path d="M1344.31 1022.03C1344.31 1020.32 1343.83 1018.97 1342.88 1017.97C1341.94 1016.95 1340.33 1016.01 1338.06 1015.16C1335.79 1014.3 1333.83 1013.46 1332.19 1012.62C1330.54 1011.77 1329.12 1010.8 1327.94 1009.72C1326.77 1008.61 1325.85 1007.32 1325.19 1005.84C1324.54 1004.36 1324.22 1002.6 1324.22 1000.56C1324.22 997.042 1325.34 994.156 1327.59 991.906C1329.84 989.656 1332.83 988.344 1336.56 987.969V981.281H1341.56V988.062C1345.25 988.583 1348.14 990.125 1350.22 992.688C1352.3 995.229 1353.34 998.531 1353.34 1002.59H1344.31C1344.31 1000.09 1343.79 998.229 1342.75 997C1341.73 995.75 1340.35 995.125 1338.62 995.125C1336.92 995.125 1335.59 995.615 1334.66 996.594C1333.72 997.552 1333.25 998.885 1333.25 1000.59C1333.25 1002.18 1333.71 1003.45 1334.62 1004.41C1335.54 1005.36 1337.24 1006.34 1339.72 1007.34C1342.22 1008.34 1344.27 1009.29 1345.88 1010.19C1347.48 1011.06 1348.83 1012.06 1349.94 1013.19C1351.04 1014.29 1351.89 1015.56 1352.47 1017C1353.05 1018.42 1353.34 1020.07 1353.34 1021.97C1353.34 1025.51 1352.24 1028.39 1350.03 1030.59C1347.82 1032.8 1344.78 1034.1 1340.91 1034.5V1040.72H1335.94V1034.53C1331.67 1034.07 1328.35 1032.56 1326 1030C1323.67 1027.42 1322.5 1023.99 1322.5 1019.72H1331.53C1331.53 1022.2 1332.11 1024.1 1333.28 1025.44C1334.47 1026.75 1336.17 1027.41 1338.38 1027.41C1340.21 1027.41 1341.66 1026.93 1342.72 1025.97C1343.78 1024.99 1344.31 1023.68 1344.31 1022.03Z" fill="#BBBBBB" fill-opacity="0.2"/>
<path d="M1344.31 414.031C1344.31 412.323 1343.83 410.969 1342.88 409.969C1341.94 408.948 1340.33 408.01 1338.06 407.156C1335.79 406.302 1333.83 405.458 1332.19 404.625C1330.54 403.771 1329.12 402.802 1327.94 401.719C1326.77 400.615 1325.85 399.323 1325.19 397.844C1324.54 396.365 1324.22 394.604 1324.22 392.562C1324.22 389.042 1325.34 386.156 1327.59 383.906C1329.84 381.656 1332.83 380.344 1336.56 379.969V373.281H1341.56V380.062C1345.25 380.583 1348.14 382.125 1350.22 384.688C1352.3 387.229 1353.34 390.531 1353.34 394.594H1344.31C1344.31 392.094 1343.79 390.229 1342.75 389C1341.73 387.75 1340.35 387.125 1338.62 387.125C1336.92 387.125 1335.59 387.615 1334.66 388.594C1333.72 389.552 1333.25 390.885 1333.25 392.594C1333.25 394.177 1333.71 395.448 1334.62 396.406C1335.54 397.365 1337.24 398.344 1339.72 399.344C1342.22 400.344 1344.27 401.292 1345.88 402.188C1347.48 403.062 1348.83 404.062 1349.94 405.188C1351.04 406.292 1351.89 407.562 1352.47 409C1353.05 410.417 1353.34 412.073 1353.34 413.969C1353.34 417.51 1352.24 420.385 1350.03 422.594C1347.82 424.802 1344.78 426.104 1340.91 426.5V432.719H1335.94V426.531C1331.67 426.073 1328.35 424.562 1326 422C1323.67 419.417 1322.5 415.99 1322.5 411.719H1331.53C1331.53 414.198 1332.11 416.104 1333.28 417.438C1334.47 418.75 1336.17 419.406 1338.38 419.406C1340.21 419.406 1341.66 418.927 1342.72 417.969C1343.78 416.99 1344.31 415.677 1344.31 414.031Z" fill="#BBBBBB" fill-opacity="0.2"/>
<path d="M1344.31 191.031C1344.31 189.323 1343.83 187.969 1342.88 186.969C1341.94 185.948 1340.33 185.01 1338.06 184.156C1335.79 183.302 1333.83 182.458 1332.19 181.625C1330.54 180.771 1329.12 179.802 1327.94 178.719C1326.77 177.615 1325.85 176.323 1325.19 174.844C1324.54 173.365 1324.22 171.604 1324.22 169.562C1324.22 166.042 1325.34 163.156 1327.59 160.906C1329.84 158.656 1332.83 157.344 1336.56 156.969V150.281H1341.56V157.062C1345.25 157.583 1348.14 159.125 1350.22 161.688C1352.3 164.229 1353.34 167.531 1353.34 171.594H1344.31C1344.31 169.094 1343.79 167.229 1342.75 166C1341.73 164.75 1340.35 164.125 1338.62 164.125C1336.92 164.125 1335.59 164.615 1334.66 165.594C1333.72 166.552 1333.25 167.885 1333.25 169.594C1333.25 171.177 1333.71 172.448 1334.62 173.406C1335.54 174.365 1337.24 175.344 1339.72 176.344C1342.22 177.344 1344.27 178.292 1345.88 179.188C1347.48 180.062 1348.83 181.062 1349.94 182.188C1351.04 183.292 1351.89 184.562 1352.47 186C1353.05 187.417 1353.34 189.073 1353.34 190.969C1353.34 194.51 1352.24 197.385 1350.03 199.594C1347.82 201.802 1344.78 203.104 1340.91 203.5V209.719H1335.94V203.531C1331.67 203.073 1328.35 201.562 1326 199C1323.67 196.417 1322.5 192.99 1322.5 188.719H1331.53C1331.53 191.198 1332.11 193.104 1333.28 194.438C1334.47 195.75 1336.17 196.406 1338.38 196.406C1340.21 196.406 1341.66 195.927 1342.72 194.969C1343.78 193.99 1344.31 192.677 1344.31 191.031Z" fill="#BBBBBB" fill-opacity="0.2"/>
<path d="M1216.31 592.031C1216.31 590.323 1215.83 588.969 1214.88 587.969C1213.94 586.948 1212.33 586.01 1210.06 585.156C1207.79 584.302 1205.83 583.458 1204.19 582.625C1202.54 581.771 1201.12 580.802 1199.94 579.719C1198.77 578.615 1197.85 577.323 1197.19 575.844C1196.54 574.365 1196.22 572.604 1196.22 570.562C1196.22 567.042 1197.34 564.156 1199.59 561.906C1201.84 559.656 1204.83 558.344 1208.56 557.969V551.281H1213.56V558.062C1217.25 558.583 1220.14 560.125 1222.22 562.688C1224.3 565.229 1225.34 568.531 1225.34 572.594H1216.31C1216.31 570.094 1215.79 568.229 1214.75 567C1213.73 565.75 1212.35 565.125 1210.62 565.125C1208.92 565.125 1207.59 565.615 1206.66 566.594C1205.72 567.552 1205.25 568.885 1205.25 570.594C1205.25 572.177 1205.71 573.448 1206.62 574.406C1207.54 575.365 1209.24 576.344 1211.72 577.344C1214.22 578.344 1216.27 579.292 1217.88 580.188C1219.48 581.062 1220.83 582.062 1221.94 583.188C1223.04 584.292 1223.89 585.562 1224.47 587C1225.05 588.417 1225.34 590.073 1225.34 591.969C1225.34 595.51 1224.24 598.385 1222.03 600.594C1219.82 602.802 1216.78 604.104 1212.91 604.5V610.719H1207.94V604.531C1203.67 604.073 1200.35 602.562 1198 600C1195.67 597.417 1194.5 593.99 1194.5 589.719H1203.53C1203.53 592.198 1204.11 594.104 1205.28 595.438C1206.47 596.75 1208.17 597.406 1210.38 597.406C1212.21 597.406 1213.66 596.927 1214.72 595.969C1215.78 594.99 1216.31 593.677 1216.31 592.031Z" fill="#BBBBBB" fill-opacity="0.2"/>
<path d="M1216.31 883.031C1216.31 881.323 1215.83 879.969 1214.88 878.969C1213.94 877.948 1212.33 877.01 1210.06 876.156C1207.79 875.302 1205.83 874.458 1204.19 873.625C1202.54 872.771 1201.12 871.802 1199.94 870.719C1198.77 869.615 1197.85 868.323 1197.19 866.844C1196.54 865.365 1196.22 863.604 1196.22 861.562C1196.22 858.042 1197.34 855.156 1199.59 852.906C1201.84 850.656 1204.83 849.344 1208.56 848.969V842.281H1213.56V849.062C1217.25 849.583 1220.14 851.125 1222.22 853.688C1224.3 856.229 1225.34 859.531 1225.34 863.594H1216.31C1216.31 861.094 1215.79 859.229 1214.75 858C1213.73 856.75 1212.35 856.125 1210.62 856.125C1208.92 856.125 1207.59 856.615 1206.66 857.594C1205.72 858.552 1205.25 859.885 1205.25 861.594C1205.25 863.177 1205.71 864.448 1206.62 865.406C1207.54 866.365 1209.24 867.344 1211.72 868.344C1214.22 869.344 1216.27 870.292 1217.88 871.188C1219.48 872.062 1220.83 873.062 1221.94 874.188C1223.04 875.292 1223.89 876.562 1224.47 878C1225.05 879.417 1225.34 881.073 1225.34 882.969C1225.34 886.51 1224.24 889.385 1222.03 891.594C1219.82 893.802 1216.78 895.104 1212.91 895.5V901.719H1207.94V895.531C1203.67 895.073 1200.35 893.562 1198 891C1195.67 888.417 1194.5 884.99 1194.5 880.719H1203.53C1203.53 883.198 1204.11 885.104 1205.28 886.438C1206.47 887.75 1208.17 888.406 1210.38 888.406C1212.21 888.406 1213.66 887.927 1214.72 886.969C1215.78 885.99 1216.31 884.677 1216.31 883.031Z" fill="#BBBBBB" fill-opacity="0.2"/>
<path d="M1216.31 275.031C1216.31 273.323 1215.83 271.969 1214.88 270.969C1213.94 269.948 1212.33 269.01 1210.06 268.156C1207.79 267.302 1205.83 266.458 1204.19 265.625C1202.54 264.771 1201.12 263.802 1199.94 262.719C1198.77 261.615 1197.85 260.323 1197.19 258.844C1196.54 257.365 1196.22 255.604 1196.22 253.562C1196.22 250.042 1197.34 247.156 1199.59 244.906C1201.84 242.656 1204.83 241.344 1208.56 240.969V234.281H1213.56V241.062C1217.25 241.583 1220.14 243.125 1222.22 245.688C1224.3 248.229 1225.34 251.531 1225.34 255.594H1216.31C1216.31 253.094 1215.79 251.229 1214.75 250C1213.73 248.75 1212.35 248.125 1210.62 248.125C1208.92 248.125 1207.59 248.615 1206.66 249.594C1205.72 250.552 1205.25 251.885 1205.25 253.594C1205.25 255.177 1205.71 256.448 1206.62 257.406C1207.54 258.365 1209.24 259.344 1211.72 260.344C1214.22 261.344 1216.27 262.292 1217.88 263.188C1219.48 264.062 1220.83 265.062 1221.94 266.188C1223.04 267.292 1223.89 268.562 1224.47 270C1225.05 271.417 1225.34 273.073 1225.34 274.969C1225.34 278.51 1224.24 281.385 1222.03 283.594C1219.82 285.802 1216.78 287.104 1212.91 287.5V293.719H1207.94V287.531C1203.67 287.073 1200.35 285.562 1198 283C1195.67 280.417 1194.5 276.99 1194.5 272.719H1203.53C1203.53 275.198 1204.11 277.104 1205.28 278.438C1206.47 279.75 1208.17 280.406 1210.38 280.406C1212.21 280.406 1213.66 279.927 1214.72 278.969C1215.78 277.99 1216.31 276.677 1216.31 275.031Z" fill="#BBBBBB" fill-opacity="0.2"/>
<path d="M1216.31 52.0312C1216.31 50.3229 1215.83 48.9688 1214.88 47.9688C1213.94 46.9479 1212.33 46.0104 1210.06 45.1562C1207.79 44.3021 1205.83 43.4583 1204.19 42.625C1202.54 41.7708 1201.12 40.8021 1199.94 39.7188C1198.77 38.6146 1197.85 37.3229 1197.19 35.8438C1196.54 34.3646 1196.22 32.6042 1196.22 30.5625C1196.22 27.0417 1197.34 24.1562 1199.59 21.9062C1201.84 19.6562 1204.83 18.3438 1208.56 17.9688V11.2812H1213.56V18.0625C1217.25 18.5833 1220.14 20.125 1222.22 22.6875C1224.3 25.2292 1225.34 28.5312 1225.34 32.5938H1216.31C1216.31 30.0938 1215.79 28.2292 1214.75 27C1213.73 25.75 1212.35 25.125 1210.62 25.125C1208.92 25.125 1207.59 25.6146 1206.66 26.5938C1205.72 27.5521 1205.25 28.8854 1205.25 30.5938C1205.25 32.1771 1205.71 33.4479 1206.62 34.4062C1207.54 35.3646 1209.24 36.3438 1211.72 37.3438C1214.22 38.3438 1216.27 39.2917 1217.88 40.1875C1219.48 41.0625 1220.83 42.0625 1221.94 43.1875C1223.04 44.2917 1223.89 45.5625 1224.47 47C1225.05 48.4167 1225.34 50.0729 1225.34 51.9688C1225.34 55.5104 1224.24 58.3854 1222.03 60.5938C1219.82 62.8021 1216.78 64.1042 1212.91 64.5V70.7188H1207.94V64.5312C1203.67 64.0729 1200.35 62.5625 1198 60C1195.67 57.4167 1194.5 53.9896 1194.5 49.7188H1203.53C1203.53 52.1979 1204.11 54.1042 1205.28 55.4375C1206.47 56.75 1208.17 57.4062 1210.38 57.4062C1212.21 57.4062 1213.66 56.9271 1214.72 55.9688C1215.78 54.9896 1216.31 53.6771 1216.31 52.0312Z" fill="#BBBBBB" fill-opacity="0.2"/>
<path d="M1080.31 724.031C1080.31 722.323 1079.83 720.969 1078.88 719.969C1077.94 718.948 1076.33 718.01 1074.06 717.156C1071.79 716.302 1069.83 715.458 1068.19 714.625C1066.54 713.771 1065.12 712.802 1063.94 711.719C1062.77 710.615 1061.85 709.323 1061.19 707.844C1060.54 706.365 1060.22 704.604 1060.22 702.562C1060.22 699.042 1061.34 696.156 1063.59 693.906C1065.84 691.656 1068.83 690.344 1072.56 689.969V683.281H1077.56V690.062C1081.25 690.583 1084.14 692.125 1086.22 694.688C1088.3 697.229 1089.34 700.531 1089.34 704.594H1080.31C1080.31 702.094 1079.79 700.229 1078.75 699C1077.73 697.75 1076.35 697.125 1074.62 697.125C1072.92 697.125 1071.59 697.615 1070.66 698.594C1069.72 699.552 1069.25 700.885 1069.25 702.594C1069.25 704.177 1069.71 705.448 1070.62 706.406C1071.54 707.365 1073.24 708.344 1075.72 709.344C1078.22 710.344 1080.27 711.292 1081.88 712.188C1083.48 713.062 1084.83 714.062 1085.94 715.188C1087.04 716.292 1087.89 717.562 1088.47 719C1089.05 720.417 1089.34 722.073 1089.34 723.969C1089.34 727.51 1088.24 730.385 1086.03 732.594C1083.82 734.802 1080.78 736.104 1076.91 736.5V742.719H1071.94V736.531C1067.67 736.073 1064.35 734.562 1062 732C1059.67 729.417 1058.5 725.99 1058.5 721.719H1067.53C1067.53 724.198 1068.11 726.104 1069.28 727.438C1070.47 728.75 1072.17 729.406 1074.38 729.406C1076.21 729.406 1077.66 728.927 1078.72 727.969C1079.78 726.99 1080.31 725.677 1080.31 724.031Z" fill="#BBBBBB" fill-opacity="0.2"/>
<path d="M1080.31 1015.03C1080.31 1013.32 1079.83 1011.97 1078.88 1010.97C1077.94 1009.95 1076.33 1009.01 1074.06 1008.16C1071.79 1007.3 1069.83 1006.46 1068.19 1005.62C1066.54 1004.77 1065.12 1003.8 1063.94 1002.72C1062.77 1001.61 1061.85 1000.32 1061.19 998.844C1060.54 997.365 1060.22 995.604 1060.22 993.562C1060.22 990.042 1061.34 987.156 1063.59 984.906C1065.84 982.656 1068.83 981.344 1072.56 980.969V974.281H1077.56V981.062C1081.25 981.583 1084.14 983.125 1086.22 985.688C1088.3 988.229 1089.34 991.531 1089.34 995.594H1080.31C1080.31 993.094 1079.79 991.229 1078.75 990C1077.73 988.75 1076.35 988.125 1074.62 988.125C1072.92 988.125 1071.59 988.615 1070.66 989.594C1069.72 990.552 1069.25 991.885 1069.25 993.594C1069.25 995.177 1069.71 996.448 1070.62 997.406C1071.54 998.365 1073.24 999.344 1075.72 1000.34C1078.22 1001.34 1080.27 1002.29 1081.88 1003.19C1083.48 1004.06 1084.83 1005.06 1085.94 1006.19C1087.04 1007.29 1087.89 1008.56 1088.47 1010C1089.05 1011.42 1089.34 1013.07 1089.34 1014.97C1089.34 1018.51 1088.24 1021.39 1086.03 1023.59C1083.82 1025.8 1080.78 1027.1 1076.91 1027.5V1033.72H1071.94V1027.53C1067.67 1027.07 1064.35 1025.56 1062 1023C1059.67 1020.42 1058.5 1016.99 1058.5 1012.72H1067.53C1067.53 1015.2 1068.11 1017.1 1069.28 1018.44C1070.47 1019.75 1072.17 1020.41 1074.38 1020.41C1076.21 1020.41 1077.66 1019.93 1078.72 1018.97C1079.78 1017.99 1080.31 1016.68 1080.31 1015.03Z" fill="#BBBBBB" fill-opacity="0.2"/>
<path d="M1080.31 407.031C1080.31 405.323 1079.83 403.969 1078.88 402.969C1077.94 401.948 1076.33 401.01 1074.06 400.156C1071.79 399.302 1069.83 398.458 1068.19 397.625C1066.54 396.771 1065.12 395.802 1063.94 394.719C1062.77 393.615 1061.85 392.323 1061.19 390.844C1060.54 389.365 1060.22 387.604 1060.22 385.562C1060.22 382.042 1061.34 379.156 1063.59 376.906C1065.84 374.656 1068.83 373.344 1072.56 372.969V366.281H1077.56V373.062C1081.25 373.583 1084.14 375.125 1086.22 377.688C1088.3 380.229 1089.34 383.531 1089.34 387.594H1080.31C1080.31 385.094 1079.79 383.229 1078.75 382C1077.73 380.75 1076.35 380.125 1074.62 380.125C1072.92 380.125 1071.59 380.615 1070.66 381.594C1069.72 382.552 1069.25 383.885 1069.25 385.594C1069.25 387.177 1069.71 388.448 1070.62 389.406C1071.54 390.365 1073.24 391.344 1075.72 392.344C1078.22 393.344 1080.27 394.292 1081.88 395.188C1083.48 396.062 1084.83 397.062 1085.94 398.188C1087.04 399.292 1087.89 400.562 1088.47 402C1089.05 403.417 1089.34 405.073 1089.34 406.969C1089.34 410.51 1088.24 413.385 1086.03 415.594C1083.82 417.802 1080.78 419.104 1076.91 419.5V425.719H1071.94V419.531C1067.67 419.073 1064.35 417.562 1062 415C1059.67 412.417 1058.5 408.99 1058.5 404.719H1067.53C1067.53 407.198 1068.11 409.104 1069.28 410.438C1070.47 411.75 1072.17 412.406 1074.38 412.406C1076.21 412.406 1077.66 411.927 1078.72 410.969C1079.78 409.99 1080.31 408.677 1080.31 407.031Z" fill="#BBBBBB" fill-opacity="0.2"/>
<path d="M1080.31 184.031C1080.31 182.323 1079.83 180.969 1078.88 179.969C1077.94 178.948 1076.33 178.01 1074.06 177.156C1071.79 176.302 1069.83 175.458 1068.19 174.625C1066.54 173.771 1065.12 172.802 1063.94 171.719C1062.77 170.615 1061.85 169.323 1061.19 167.844C1060.54 166.365 1060.22 164.604 1060.22 162.562C1060.22 159.042 1061.34 156.156 1063.59 153.906C1065.84 151.656 1068.83 150.344 1072.56 149.969V143.281H1077.56V150.062C1081.25 150.583 1084.14 152.125 1086.22 154.688C1088.3 157.229 1089.34 160.531 1089.34 164.594H1080.31C1080.31 162.094 1079.79 160.229 1078.75 159C1077.73 157.75 1076.35 157.125 1074.62 157.125C1072.92 157.125 1071.59 157.615 1070.66 158.594C1069.72 159.552 1069.25 160.885 1069.25 162.594C1069.25 164.177 1069.71 165.448 1070.62 166.406C1071.54 167.365 1073.24 168.344 1075.72 169.344C1078.22 170.344 1080.27 171.292 1081.88 172.188C1083.48 173.062 1084.83 174.062 1085.94 175.188C1087.04 176.292 1087.89 177.562 1088.47 179C1089.05 180.417 1089.34 182.073 1089.34 183.969C1089.34 187.51 1088.24 190.385 1086.03 192.594C1083.82 194.802 1080.78 196.104 1076.91 196.5V202.719H1071.94V196.531C1067.67 196.073 1064.35 194.562 1062 192C1059.67 189.417 1058.5 185.99 1058.5 181.719H1067.53C1067.53 184.198 1068.11 186.104 1069.28 187.438C1070.47 188.75 1072.17 189.406 1074.38 189.406C1076.21 189.406 1077.66 188.927 1078.72 187.969C1079.78 186.99 1080.31 185.677 1080.31 184.031Z" fill="#BBBBBB" fill-opacity="0.2"/>
<path d="M944.312 592.031C944.312 590.323 943.833 588.969 942.875 587.969C941.938 586.948 940.333 586.01 938.062 585.156C935.792 584.302 933.833 583.458 932.188 582.625C930.542 581.771 929.125 580.802 927.938 579.719C926.771 578.615 925.854 577.323 925.188 575.844C924.542 574.365 924.219 572.604 924.219 570.562C924.219 567.042 925.344 564.156 927.594 561.906C929.844 559.656 932.833 558.344 936.562 557.969V551.281H941.562V558.062C945.25 558.583 948.135 560.125 950.219 562.688C952.302 565.229 953.344 568.531 953.344 572.594H944.312C944.312 570.094 943.792 568.229 942.75 567C941.729 565.75 940.354 565.125 938.625 565.125C936.917 565.125 935.594 565.615 934.656 566.594C933.719 567.552 933.25 568.885 933.25 570.594C933.25 572.177 933.708 573.448 934.625 574.406C935.542 575.365 937.24 576.344 939.719 577.344C942.219 578.344 944.271 579.292 945.875 580.188C947.479 581.062 948.833 582.062 949.938 583.188C951.042 584.292 951.885 585.562 952.469 587C953.052 588.417 953.344 590.073 953.344 591.969C953.344 595.51 952.24 598.385 950.031 600.594C947.823 602.802 944.781 604.104 940.906 604.5V610.719H935.938V604.531C931.667 604.073 928.354 602.562 926 600C923.667 597.417 922.5 593.99 922.5 589.719H931.531C931.531 592.198 932.115 594.104 933.281 595.438C934.469 596.75 936.167 597.406 938.375 597.406C940.208 597.406 941.656 596.927 942.719 595.969C943.781 594.99 944.312 593.677 944.312 592.031Z" fill="#BBBBBB" fill-opacity="0.2"/>
<path d="M944.312 883.031C944.312 881.323 943.833 879.969 942.875 878.969C941.938 877.948 940.333 877.01 938.062 876.156C935.792 875.302 933.833 874.458 932.188 873.625C930.542 872.771 929.125 871.802 927.938 870.719C926.771 869.615 925.854 868.323 925.188 866.844C924.542 865.365 924.219 863.604 924.219 861.562C924.219 858.042 925.344 855.156 927.594 852.906C929.844 850.656 932.833 849.344 936.562 848.969V842.281H941.562V849.062C945.25 849.583 948.135 851.125 950.219 853.688C952.302 856.229 953.344 859.531 953.344 863.594H944.312C944.312 861.094 943.792 859.229 942.75 858C941.729 856.75 940.354 856.125 938.625 856.125C936.917 856.125 935.594 856.615 934.656 857.594C933.719 858.552 933.25 859.885 933.25 861.594C933.25 863.177 933.708 864.448 934.625 865.406C935.542 866.365 937.24 867.344 939.719 868.344C942.219 869.344 944.271 870.292 945.875 871.188C947.479 872.062 948.833 873.062 949.938 874.188C951.042 875.292 951.885 876.562 952.469 878C953.052 879.417 953.344 881.073 953.344 882.969C953.344 886.51 952.24 889.385 950.031 891.594C947.823 893.802 944.781 895.104 940.906 895.5V901.719H935.938V895.531C931.667 895.073 928.354 893.562 926 891C923.667 888.417 922.5 884.99 922.5 880.719H931.531C931.531 883.198 932.115 885.104 933.281 886.438C934.469 887.75 936.167 888.406 938.375 888.406C940.208 888.406 941.656 887.927 942.719 886.969C943.781 885.99 944.312 884.677 944.312 883.031Z" fill="#BBBBBB" fill-opacity="0.2"/>
<path d="M944.312 275.031C944.312 273.323 943.833 271.969 942.875 270.969C941.938 269.948 940.333 269.01 938.062 268.156C935.792 267.302 933.833 266.458 932.188 265.625C930.542 264.771 929.125 263.802 927.938 262.719C926.771 261.615 925.854 260.323 925.188 258.844C924.542 257.365 924.219 255.604 924.219 253.562C924.219 250.042 925.344 247.156 927.594 244.906C929.844 242.656 932.833 241.344 936.562 240.969V234.281H941.562V241.062C945.25 241.583 948.135 243.125 950.219 245.688C952.302 248.229 953.344 251.531 953.344 255.594H944.312C944.312 253.094 943.792 251.229 942.75 250C941.729 248.75 940.354 248.125 938.625 248.125C936.917 248.125 935.594 248.615 934.656 249.594C933.719 250.552 933.25 251.885 933.25 253.594C933.25 255.177 933.708 256.448 934.625 257.406C935.542 258.365 937.24 259.344 939.719 260.344C942.219 261.344 944.271 262.292 945.875 263.188C947.479 264.062 948.833 265.062 949.938 266.188C951.042 267.292 951.885 268.562 952.469 270C953.052 271.417 953.344 273.073 953.344 274.969C953.344 278.51 952.24 281.385 950.031 283.594C947.823 285.802 944.781 287.104 940.906 287.5V293.719H935.938V287.531C931.667 287.073 928.354 285.562 926 283C923.667 280.417 922.5 276.99 922.5 272.719H931.531C931.531 275.198 932.115 277.104 933.281 278.438C934.469 279.75 936.167 280.406 938.375 280.406C940.208 280.406 941.656 279.927 942.719 278.969C943.781 277.99 944.312 276.677 944.312 275.031Z" fill="#BBBBBB" fill-opacity="0.2"/>
<path d="M944.312 52.0312C944.312 50.3229 943.833 48.9688 942.875 47.9688C941.938 46.9479 940.333 46.0104 938.062 45.1562C935.792 44.3021 933.833 43.4583 932.188 42.625C930.542 41.7708 929.125 40.8021 927.938 39.7188C926.771 38.6146 925.854 37.3229 925.188 35.8438C924.542 34.3646 924.219 32.6042 924.219 30.5625C924.219 27.0417 925.344 24.1562 927.594 21.9062C929.844 19.6562 932.833 18.3438 936.562 17.9688V11.2812H941.562V18.0625C945.25 18.5833 948.135 20.125 950.219 22.6875C952.302 25.2292 953.344 28.5312 953.344 32.5938H944.312C944.312 30.0938 943.792 28.2292 942.75 27C941.729 25.75 940.354 25.125 938.625 25.125C936.917 25.125 935.594 25.6146 934.656 26.5938C933.719 27.5521 933.25 28.8854 933.25 30.5938C933.25 32.1771 933.708 33.4479 934.625 34.4062C935.542 35.3646 937.24 36.3438 939.719 37.3438C942.219 38.3438 944.271 39.2917 945.875 40.1875C947.479 41.0625 948.833 42.0625 949.938 43.1875C951.042 44.2917 951.885 45.5625 952.469 47C953.052 48.4167 953.344 50.0729 953.344 51.9688C953.344 55.5104 952.24 58.3854 950.031 60.5938C947.823 62.8021 944.781 64.1042 940.906 64.5V70.7188H935.938V64.5312C931.667 64.0729 928.354 62.5625 926 60C923.667 57.4167 922.5 53.9896 922.5 49.7188H931.531C931.531 52.1979 932.115 54.1042 933.281 55.4375C934.469 56.75 936.167 57.4062 938.375 57.4062C940.208 57.4062 941.656 56.9271 942.719 55.9688C943.781 54.9896 944.312 53.6771 944.312 52.0312Z" fill="#BBBBBB" fill-opacity="0.2"/>
<path d="M430.312 592.031C430.312 590.323 429.833 588.969 428.875 587.969C427.938 586.948 426.333 586.01 424.062 585.156C421.792 584.302 419.833 583.458 418.188 582.625C416.542 581.771 415.125 580.802 413.938 579.719C412.771 578.615 411.854 577.323 411.188 575.844C410.542 574.365 410.219 572.604 410.219 570.562C410.219 567.042 411.344 564.156 413.594 561.906C415.844 559.656 418.833 558.344 422.562 557.969V551.281H427.562V558.062C431.25 558.583 434.135 560.125 436.219 562.688C438.302 565.229 439.344 568.531 439.344 572.594H430.312C430.312 570.094 429.792 568.229 428.75 567C427.729 565.75 426.354 565.125 424.625 565.125C422.917 565.125 421.594 565.615 420.656 566.594C419.719 567.552 419.25 568.885 419.25 570.594C419.25 572.177 419.708 573.448 420.625 574.406C421.542 575.365 423.24 576.344 425.719 577.344C428.219 578.344 430.271 579.292 431.875 580.188C433.479 581.062 434.833 582.062 435.938 583.188C437.042 584.292 437.885 585.562 438.469 587C439.052 588.417 439.344 590.073 439.344 591.969C439.344 595.51 438.24 598.385 436.031 600.594C433.823 602.802 430.781 604.104 426.906 604.5V610.719H421.938V604.531C417.667 604.073 414.354 602.562 412 600C409.667 597.417 408.5 593.99 408.5 589.719H417.531C417.531 592.198 418.115 594.104 419.281 595.438C420.469 596.75 422.167 597.406 424.375 597.406C426.208 597.406 427.656 596.927 428.719 595.969C429.781 594.99 430.312 593.677 430.312 592.031Z" fill="#BBBBBB" fill-opacity="0.2"/>
<path d="M430.312 883.031C430.312 881.323 429.833 879.969 428.875 878.969C427.938 877.948 426.333 877.01 424.062 876.156C421.792 875.302 419.833 874.458 418.188 873.625C416.542 872.771 415.125 871.802 413.938 870.719C412.771 869.615 411.854 868.323 411.188 866.844C410.542 865.365 410.219 863.604 410.219 861.562C410.219 858.042 411.344 855.156 413.594 852.906C415.844 850.656 418.833 849.344 422.562 848.969V842.281H427.562V849.062C431.25 849.583 434.135 851.125 436.219 853.688C438.302 856.229 439.344 859.531 439.344 863.594H430.312C430.312 861.094 429.792 859.229 428.75 858C427.729 856.75 426.354 856.125 424.625 856.125C422.917 856.125 421.594 856.615 420.656 857.594C419.719 858.552 419.25 859.885 419.25 861.594C419.25 863.177 419.708 864.448 420.625 865.406C421.542 866.365 423.24 867.344 425.719 868.344C428.219 869.344 430.271 870.292 431.875 871.188C433.479 872.062 434.833 873.062 435.938 874.188C437.042 875.292 437.885 876.562 438.469 878C439.052 879.417 439.344 881.073 439.344 882.969C439.344 886.51 438.24 889.385 436.031 891.594C433.823 893.802 430.781 895.104 426.906 895.5V901.719H421.938V895.531C417.667 895.073 414.354 893.562 412 891C409.667 888.417 408.5 884.99 408.5 880.719H417.531C417.531 883.198 418.115 885.104 419.281 886.438C420.469 887.75 422.167 888.406 424.375 888.406C426.208 888.406 427.656 887.927 428.719 886.969C429.781 885.99 430.312 884.677 430.312 883.031Z" fill="#BBBBBB" fill-opacity="0.2"/>
<path d="M430.312 275.031C430.312 273.323 429.833 271.969 428.875 270.969C427.938 269.948 426.333 269.01 424.062 268.156C421.792 267.302 419.833 266.458 418.188 265.625C416.542 264.771 415.125 263.802 413.938 262.719C412.771 261.615 411.854 260.323 411.188 258.844C410.542 257.365 410.219 255.604 410.219 253.562C410.219 250.042 411.344 247.156 413.594 244.906C415.844 242.656 418.833 241.344 422.562 240.969V234.281H427.562V241.062C431.25 241.583 434.135 243.125 436.219 245.688C438.302 248.229 439.344 251.531 439.344 255.594H430.312C430.312 253.094 429.792 251.229 428.75 250C427.729 248.75 426.354 248.125 424.625 248.125C422.917 248.125 421.594 248.615 420.656 249.594C419.719 250.552 419.25 251.885 419.25 253.594C419.25 255.177 419.708 256.448 420.625 257.406C421.542 258.365 423.24 259.344 425.719 260.344C428.219 261.344 430.271 262.292 431.875 263.188C433.479 264.062 434.833 265.062 435.938 266.188C437.042 267.292 437.885 268.562 438.469 270C439.052 271.417 439.344 273.073 439.344 274.969C439.344 278.51 438.24 281.385 436.031 283.594C433.823 285.802 430.781 287.104 426.906 287.5V293.719H421.938V287.531C417.667 287.073 414.354 285.562 412 283C409.667 280.417 408.5 276.99 408.5 272.719H417.531C417.531 275.198 418.115 277.104 419.281 278.438C420.469 279.75 422.167 280.406 424.375 280.406C426.208 280.406 427.656 279.927 428.719 278.969C429.781 277.99 430.312 276.677 430.312 275.031Z" fill="#BBBBBB" fill-opacity="0.2"/>
<path d="M430.312 52.0312C430.312 50.3229 429.833 48.9688 428.875 47.9688C427.938 46.9479 426.333 46.0104 424.062 45.1562C421.792 44.3021 419.833 43.4583 418.188 42.625C416.542 41.7708 415.125 40.8021 413.938 39.7188C412.771 38.6146 411.854 37.3229 411.188 35.8438C410.542 34.3646 410.219 32.6042 410.219 30.5625C410.219 27.0417 411.344 24.1562 413.594 21.9062C415.844 19.6562 418.833 18.3438 422.562 17.9688V11.2812H427.562V18.0625C431.25 18.5833 434.135 20.125 436.219 22.6875C438.302 25.2292 439.344 28.5312 439.344 32.5938H430.312C430.312 30.0938 429.792 28.2292 428.75 27C427.729 25.75 426.354 25.125 424.625 25.125C422.917 25.125 421.594 25.6146 420.656 26.5938C419.719 27.5521 419.25 28.8854 419.25 30.5938C419.25 32.1771 419.708 33.4479 420.625 34.4062C421.542 35.3646 423.24 36.3438 425.719 37.3438C428.219 38.3438 430.271 39.2917 431.875 40.1875C433.479 41.0625 434.833 42.0625 435.938 43.1875C437.042 44.2917 437.885 45.5625 438.469 47C439.052 48.4167 439.344 50.0729 439.344 51.9688C439.344 55.5104 438.24 58.3854 436.031 60.5938C433.823 62.8021 430.781 64.1042 426.906 64.5V70.7188H421.938V64.5312C417.667 64.0729 414.354 62.5625 412 60C409.667 57.4167 408.5 53.9896 408.5 49.7188H417.531C417.531 52.1979 418.115 54.1042 419.281 55.4375C420.469 56.75 422.167 57.4062 424.375 57.4062C426.208 57.4062 427.656 56.9271 428.719 55.9688C429.781 54.9896 430.312 53.6771 430.312 52.0312Z" fill="#BBBBBB" fill-opacity="0.2"/>
<path d="M794.312 724.031C794.312 722.323 793.833 720.969 792.875 719.969C791.938 718.948 790.333 718.01 788.062 717.156C785.792 716.302 783.833 715.458 782.188 714.625C780.542 713.771 779.125 712.802 777.938 711.719C776.771 710.615 775.854 709.323 775.188 707.844C774.542 706.365 774.219 704.604 774.219 702.562C774.219 699.042 775.344 696.156 777.594 693.906C779.844 691.656 782.833 690.344 786.562 689.969V683.281H791.562V690.062C795.25 690.583 798.135 692.125 800.219 694.688C802.302 697.229 803.344 700.531 803.344 704.594H794.312C794.312 702.094 793.792 700.229 792.75 699C791.729 697.75 790.354 697.125 788.625 697.125C786.917 697.125 785.594 697.615 784.656 698.594C783.719 699.552 783.25 700.885 783.25 702.594C783.25 704.177 783.708 705.448 784.625 706.406C785.542 707.365 787.24 708.344 789.719 709.344C792.219 710.344 794.271 711.292 795.875 712.188C797.479 713.062 798.833 714.062 799.938 715.188C801.042 716.292 801.885 717.562 802.469 719C803.052 720.417 803.344 722.073 803.344 723.969C803.344 727.51 802.24 730.385 800.031 732.594C797.823 734.802 794.781 736.104 790.906 736.5V742.719H785.938V736.531C781.667 736.073 778.354 734.562 776 732C773.667 729.417 772.5 725.99 772.5 721.719H781.531C781.531 724.198 782.115 726.104 783.281 727.438C784.469 728.75 786.167 729.406 788.375 729.406C790.208 729.406 791.656 728.927 792.719 727.969C793.781 726.99 794.312 725.677 794.312 724.031Z" fill="#BBBBBB" fill-opacity="0.2"/>
<path d="M794.312 1015.03C794.312 1013.32 793.833 1011.97 792.875 1010.97C791.938 1009.95 790.333 1009.01 788.062 1008.16C785.792 1007.3 783.833 1006.46 782.188 1005.62C780.542 1004.77 779.125 1003.8 777.938 1002.72C776.771 1001.61 775.854 1000.32 775.188 998.844C774.542 997.365 774.219 995.604 774.219 993.562C774.219 990.042 775.344 987.156 777.594 984.906C779.844 982.656 782.833 981.344 786.562 980.969V974.281H791.562V981.062C795.25 981.583 798.135 983.125 800.219 985.688C802.302 988.229 803.344 991.531 803.344 995.594H794.312C794.312 993.094 793.792 991.229 792.75 990C791.729 988.75 790.354 988.125 788.625 988.125C786.917 988.125 785.594 988.615 784.656 989.594C783.719 990.552 783.25 991.885 783.25 993.594C783.25 995.177 783.708 996.448 784.625 997.406C785.542 998.365 787.24 999.344 789.719 1000.34C792.219 1001.34 794.271 1002.29 795.875 1003.19C797.479 1004.06 798.833 1005.06 799.938 1006.19C801.042 1007.29 801.885 1008.56 802.469 1010C803.052 1011.42 803.344 1013.07 803.344 1014.97C803.344 1018.51 802.24 1021.39 800.031 1023.59C797.823 1025.8 794.781 1027.1 790.906 1027.5V1033.72H785.938V1027.53C781.667 1027.07 778.354 1025.56 776 1023C773.667 1020.42 772.5 1016.99 772.5 1012.72H781.531C781.531 1015.2 782.115 1017.1 783.281 1018.44C784.469 1019.75 786.167 1020.41 788.375 1020.41C790.208 1020.41 791.656 1019.93 792.719 1018.97C793.781 1017.99 794.312 1016.68 794.312 1015.03Z" fill="#BBBBBB" fill-opacity="0.2"/>
<path d="M794.312 407.031C794.312 405.323 793.833 403.969 792.875 402.969C791.938 401.948 790.333 401.01 788.062 400.156C785.792 399.302 783.833 398.458 782.188 397.625C780.542 396.771 779.125 395.802 777.938 394.719C776.771 393.615 775.854 392.323 775.188 390.844C774.542 389.365 774.219 387.604 774.219 385.562C774.219 382.042 775.344 379.156 777.594 376.906C779.844 374.656 782.833 373.344 786.562 372.969V366.281H791.562V373.062C795.25 373.583 798.135 375.125 800.219 377.688C802.302 380.229 803.344 383.531 803.344 387.594H794.312C794.312 385.094 793.792 383.229 792.75 382C791.729 380.75 790.354 380.125 788.625 380.125C786.917 380.125 785.594 380.615 784.656 381.594C783.719 382.552 783.25 383.885 783.25 385.594C783.25 387.177 783.708 388.448 784.625 389.406C785.542 390.365 787.24 391.344 789.719 392.344C792.219 393.344 794.271 394.292 795.875 395.188C797.479 396.062 798.833 397.062 799.938 398.188C801.042 399.292 801.885 400.562 802.469 402C803.052 403.417 803.344 405.073 803.344 406.969C803.344 410.51 802.24 413.385 800.031 415.594C797.823 417.802 794.781 419.104 790.906 419.5V425.719H785.938V419.531C781.667 419.073 778.354 417.562 776 415C773.667 412.417 772.5 408.99 772.5 404.719H781.531C781.531 407.198 782.115 409.104 783.281 410.438C784.469 411.75 786.167 412.406 788.375 412.406C790.208 412.406 791.656 411.927 792.719 410.969C793.781 409.99 794.312 408.677 794.312 407.031Z" fill="#BBBBBB" fill-opacity="0.2"/>
<path d="M794.312 184.031C794.312 182.323 793.833 180.969 792.875 179.969C791.938 178.948 790.333 178.01 788.062 177.156C785.792 176.302 783.833 175.458 782.188 174.625C780.542 173.771 779.125 172.802 777.938 171.719C776.771 170.615 775.854 169.323 775.188 167.844C774.542 166.365 774.219 164.604 774.219 162.562C774.219 159.042 775.344 156.156 777.594 153.906C779.844 151.656 782.833 150.344 786.562 149.969V143.281H791.562V150.062C795.25 150.583 798.135 152.125 800.219 154.688C802.302 157.229 803.344 160.531 803.344 164.594H794.312C794.312 162.094 793.792 160.229 792.75 159C791.729 157.75 790.354 157.125 788.625 157.125C786.917 157.125 785.594 157.615 784.656 158.594C783.719 159.552 783.25 160.885 783.25 162.594C783.25 164.177 783.708 165.448 784.625 166.406C785.542 167.365 787.24 168.344 789.719 169.344C792.219 170.344 794.271 171.292 795.875 172.188C797.479 173.062 798.833 174.062 799.938 175.188C801.042 176.292 801.885 177.562 802.469 179C803.052 180.417 803.344 182.073 803.344 183.969C803.344 187.51 802.24 190.385 800.031 192.594C797.823 194.802 794.781 196.104 790.906 196.5V202.719H785.938V196.531C781.667 196.073 778.354 194.562 776 192C773.667 189.417 772.5 185.99 772.5 181.719H781.531C781.531 184.198 782.115 186.104 783.281 187.438C784.469 188.75 786.167 189.406 788.375 189.406C790.208 189.406 791.656 188.927 792.719 187.969C793.781 186.99 794.312 185.677 794.312 184.031Z" fill="#BBBBBB" fill-opacity="0.2"/>
<path d="M680.312 592.031C680.312 590.323 679.833 588.969 678.875 587.969C677.938 586.948 676.333 586.01 674.062 585.156C671.792 584.302 669.833 583.458 668.188 582.625C666.542 581.771 665.125 580.802 663.938 579.719C662.771 578.615 661.854 577.323 661.188 575.844C660.542 574.365 660.219 572.604 660.219 570.562C660.219 567.042 661.344 564.156 663.594 561.906C665.844 559.656 668.833 558.344 672.562 557.969V551.281H677.562V558.062C681.25 558.583 684.135 560.125 686.219 562.688C688.302 565.229 689.344 568.531 689.344 572.594H680.312C680.312 570.094 679.792 568.229 678.75 567C677.729 565.75 676.354 565.125 674.625 565.125C672.917 565.125 671.594 565.615 670.656 566.594C669.719 567.552 669.25 568.885 669.25 570.594C669.25 572.177 669.708 573.448 670.625 574.406C671.542 575.365 673.24 576.344 675.719 577.344C678.219 578.344 680.271 579.292 681.875 580.188C683.479 581.062 684.833 582.062 685.938 583.188C687.042 584.292 687.885 585.562 688.469 587C689.052 588.417 689.344 590.073 689.344 591.969C689.344 595.51 688.24 598.385 686.031 600.594C683.823 602.802 680.781 604.104 676.906 604.5V610.719H671.938V604.531C667.667 604.073 664.354 602.562 662 600C659.667 597.417 658.5 593.99 658.5 589.719H667.531C667.531 592.198 668.115 594.104 669.281 595.438C670.469 596.75 672.167 597.406 674.375 597.406C676.208 597.406 677.656 596.927 678.719 595.969C679.781 594.99 680.312 593.677 680.312 592.031Z" fill="#BBBBBB" fill-opacity="0.2"/>
<path d="M680.312 883.031C680.312 881.323 679.833 879.969 678.875 878.969C677.938 877.948 676.333 877.01 674.062 876.156C671.792 875.302 669.833 874.458 668.188 873.625C666.542 872.771 665.125 871.802 663.938 870.719C662.771 869.615 661.854 868.323 661.188 866.844C660.542 865.365 660.219 863.604 660.219 861.562C660.219 858.042 661.344 855.156 663.594 852.906C665.844 850.656 668.833 849.344 672.562 848.969V842.281H677.562V849.062C681.25 849.583 684.135 851.125 686.219 853.688C688.302 856.229 689.344 859.531 689.344 863.594H680.312C680.312 861.094 679.792 859.229 678.75 858C677.729 856.75 676.354 856.125 674.625 856.125C672.917 856.125 671.594 856.615 670.656 857.594C669.719 858.552 669.25 859.885 669.25 861.594C669.25 863.177 669.708 864.448 670.625 865.406C671.542 866.365 673.24 867.344 675.719 868.344C678.219 869.344 680.271 870.292 681.875 871.188C683.479 872.062 684.833 873.062 685.938 874.188C687.042 875.292 687.885 876.562 688.469 878C689.052 879.417 689.344 881.073 689.344 882.969C689.344 886.51 688.24 889.385 686.031 891.594C683.823 893.802 680.781 895.104 676.906 895.5V901.719H671.938V895.531C667.667 895.073 664.354 893.562 662 891C659.667 888.417 658.5 884.99 658.5 880.719H667.531C667.531 883.198 668.115 885.104 669.281 886.438C670.469 887.75 672.167 888.406 674.375 888.406C676.208 888.406 677.656 887.927 678.719 886.969C679.781 885.99 680.312 884.677 680.312 883.031Z" fill="#BBBBBB" fill-opacity="0.2"/>
<path d="M680.312 275.031C680.312 273.323 679.833 271.969 678.875 270.969C677.938 269.948 676.333 269.01 674.062 268.156C671.792 267.302 669.833 266.458 668.188 265.625C666.542 264.771 665.125 263.802 663.938 262.719C662.771 261.615 661.854 260.323 661.188 258.844C660.542 257.365 660.219 255.604 660.219 253.562C660.219 250.042 661.344 247.156 663.594 244.906C665.844 242.656 668.833 241.344 672.562 240.969V234.281H677.562V241.062C681.25 241.583 684.135 243.125 686.219 245.688C688.302 248.229 689.344 251.531 689.344 255.594H680.312C680.312 253.094 679.792 251.229 678.75 250C677.729 248.75 676.354 248.125 674.625 248.125C672.917 248.125 671.594 248.615 670.656 249.594C669.719 250.552 669.25 251.885 669.25 253.594C669.25 255.177 669.708 256.448 670.625 257.406C671.542 258.365 673.24 259.344 675.719 260.344C678.219 261.344 680.271 262.292 681.875 263.188C683.479 264.062 684.833 265.062 685.938 266.188C687.042 267.292 687.885 268.562 688.469 270C689.052 271.417 689.344 273.073 689.344 274.969C689.344 278.51 688.24 281.385 686.031 283.594C683.823 285.802 680.781 287.104 676.906 287.5V293.719H671.938V287.531C667.667 287.073 664.354 285.562 662 283C659.667 280.417 658.5 276.99 658.5 272.719H667.531C667.531 275.198 668.115 277.104 669.281 278.438C670.469 279.75 672.167 280.406 674.375 280.406C676.208 280.406 677.656 279.927 678.719 278.969C679.781 277.99 680.312 276.677 680.312 275.031Z" fill="#BBBBBB" fill-opacity="0.2"/>
<path d="M680.312 52.0312C680.312 50.3229 679.833 48.9688 678.875 47.9688C677.938 46.9479 676.333 46.0104 674.062 45.1562C671.792 44.3021 669.833 43.4583 668.188 42.625C666.542 41.7708 665.125 40.8021 663.938 39.7188C662.771 38.6146 661.854 37.3229 661.188 35.8438C660.542 34.3646 660.219 32.6042 660.219 30.5625C660.219 27.0417 661.344 24.1562 663.594 21.9062C665.844 19.6562 668.833 18.3438 672.562 17.9688V11.2812H677.562V18.0625C681.25 18.5833 684.135 20.125 686.219 22.6875C688.302 25.2292 689.344 28.5312 689.344 32.5938H680.312C680.312 30.0938 679.792 28.2292 678.75 27C677.729 25.75 676.354 25.125 674.625 25.125C672.917 25.125 671.594 25.6146 670.656 26.5938C669.719 27.5521 669.25 28.8854 669.25 30.5938C669.25 32.1771 669.708 33.4479 670.625 34.4062C671.542 35.3646 673.24 36.3438 675.719 37.3438C678.219 38.3438 680.271 39.2917 681.875 40.1875C683.479 41.0625 684.833 42.0625 685.938 43.1875C687.042 44.2917 687.885 45.5625 688.469 47C689.052 48.4167 689.344 50.0729 689.344 51.9688C689.344 55.5104 688.24 58.3854 686.031 60.5938C683.823 62.8021 680.781 64.1042 676.906 64.5V70.7188H671.938V64.5312C667.667 64.0729 664.354 62.5625 662 60C659.667 57.4167 658.5 53.9896 658.5 49.7188H667.531C667.531 52.1979 668.115 54.1042 669.281 55.4375C670.469 56.75 672.167 57.4062 674.375 57.4062C676.208 57.4062 677.656 56.9271 678.719 55.9688C679.781 54.9896 680.312 53.6771 680.312 52.0312Z" fill="#BBBBBB" fill-opacity="0.2"/>
<path d="M544.312 731.031C544.312 729.323 543.833 727.969 542.875 726.969C541.938 725.948 540.333 725.01 538.062 724.156C535.792 723.302 533.833 722.458 532.188 721.625C530.542 720.771 529.125 719.802 527.938 718.719C526.771 717.615 525.854 716.323 525.188 714.844C524.542 713.365 524.219 711.604 524.219 709.562C524.219 706.042 525.344 703.156 527.594 700.906C529.844 698.656 532.833 697.344 536.562 696.969V690.281H541.562V697.062C545.25 697.583 548.135 699.125 550.219 701.688C552.302 704.229 553.344 707.531 553.344 711.594H544.312C544.312 709.094 543.792 707.229 542.75 706C541.729 704.75 540.354 704.125 538.625 704.125C536.917 704.125 535.594 704.615 534.656 705.594C533.719 706.552 533.25 707.885 533.25 709.594C533.25 711.177 533.708 712.448 534.625 713.406C535.542 714.365 537.24 715.344 539.719 716.344C542.219 717.344 544.271 718.292 545.875 719.188C547.479 720.062 548.833 721.062 549.938 722.188C551.042 723.292 551.885 724.562 552.469 726C553.052 727.417 553.344 729.073 553.344 730.969C553.344 734.51 552.24 737.385 550.031 739.594C547.823 741.802 544.781 743.104 540.906 743.5V749.719H535.938V743.531C531.667 743.073 528.354 741.562 526 739C523.667 736.417 522.5 732.99 522.5 728.719H531.531C531.531 731.198 532.115 733.104 533.281 734.438C534.469 735.75 536.167 736.406 538.375 736.406C540.208 736.406 541.656 735.927 542.719 734.969C543.781 733.99 544.312 732.677 544.312 731.031Z" fill="#BBBBBB" fill-opacity="0.2"/>
<path d="M544.312 1022.03C544.312 1020.32 543.833 1018.97 542.875 1017.97C541.938 1016.95 540.333 1016.01 538.062 1015.16C535.792 1014.3 533.833 1013.46 532.188 1012.62C530.542 1011.77 529.125 1010.8 527.938 1009.72C526.771 1008.61 525.854 1007.32 525.188 1005.84C524.542 1004.36 524.219 1002.6 524.219 1000.56C524.219 997.042 525.344 994.156 527.594 991.906C529.844 989.656 532.833 988.344 536.562 987.969V981.281H541.562V988.062C545.25 988.583 548.135 990.125 550.219 992.688C552.302 995.229 553.344 998.531 553.344 1002.59H544.312C544.312 1000.09 543.792 998.229 542.75 997C541.729 995.75 540.354 995.125 538.625 995.125C536.917 995.125 535.594 995.615 534.656 996.594C533.719 997.552 533.25 998.885 533.25 1000.59C533.25 1002.18 533.708 1003.45 534.625 1004.41C535.542 1005.36 537.24 1006.34 539.719 1007.34C542.219 1008.34 544.271 1009.29 545.875 1010.19C547.479 1011.06 548.833 1012.06 549.938 1013.19C551.042 1014.29 551.885 1015.56 552.469 1017C553.052 1018.42 553.344 1020.07 553.344 1021.97C553.344 1025.51 552.24 1028.39 550.031 1030.59C547.823 1032.8 544.781 1034.1 540.906 1034.5V1040.72H535.938V1034.53C531.667 1034.07 528.354 1032.56 526 1030C523.667 1027.42 522.5 1023.99 522.5 1019.72H531.531C531.531 1022.2 532.115 1024.1 533.281 1025.44C534.469 1026.75 536.167 1027.41 538.375 1027.41C540.208 1027.41 541.656 1026.93 542.719 1025.97C543.781 1024.99 544.312 1023.68 544.312 1022.03Z" fill="#BBBBBB" fill-opacity="0.2"/>
<path d="M544.312 414.031C544.312 412.323 543.833 410.969 542.875 409.969C541.938 408.948 540.333 408.01 538.062 407.156C535.792 406.302 533.833 405.458 532.188 404.625C530.542 403.771 529.125 402.802 527.938 401.719C526.771 400.615 525.854 399.323 525.188 397.844C524.542 396.365 524.219 394.604 524.219 392.562C524.219 389.042 525.344 386.156 527.594 383.906C529.844 381.656 532.833 380.344 536.562 379.969V373.281H541.562V380.062C545.25 380.583 548.135 382.125 550.219 384.688C552.302 387.229 553.344 390.531 553.344 394.594H544.312C544.312 392.094 543.792 390.229 542.75 389C541.729 387.75 540.354 387.125 538.625 387.125C536.917 387.125 535.594 387.615 534.656 388.594C533.719 389.552 533.25 390.885 533.25 392.594C533.25 394.177 533.708 395.448 534.625 396.406C535.542 397.365 537.24 398.344 539.719 399.344C542.219 400.344 544.271 401.292 545.875 402.188C547.479 403.062 548.833 404.062 549.938 405.188C551.042 406.292 551.885 407.562 552.469 409C553.052 410.417 553.344 412.073 553.344 413.969C553.344 417.51 552.24 420.385 550.031 422.594C547.823 424.802 544.781 426.104 540.906 426.5V432.719H535.938V426.531C531.667 426.073 528.354 424.562 526 422C523.667 419.417 522.5 415.99 522.5 411.719H531.531C531.531 414.198 532.115 416.104 533.281 417.438C534.469 418.75 536.167 419.406 538.375 419.406C540.208 419.406 541.656 418.927 542.719 417.969C543.781 416.99 544.312 415.677 544.312 414.031Z" fill="#BBBBBB" fill-opacity="0.2"/>
<path d="M542.312 229.031C542.312 227.323 541.833 225.969 540.875 224.969C539.938 223.948 538.333 223.01 536.062 222.156C533.792 221.302 531.833 220.458 530.188 219.625C528.542 218.771 527.125 217.802 525.938 216.719C524.771 215.615 523.854 214.323 523.188 212.844C522.542 211.365 522.219 209.604 522.219 207.562C522.219 204.042 523.344 201.156 525.594 198.906C527.844 196.656 530.833 195.344 534.562 194.969V188.281H539.562V195.062C543.25 195.583 546.135 197.125 548.219 199.688C550.302 202.229 551.344 205.531 551.344 209.594H542.312C542.312 207.094 541.792 205.229 540.75 204C539.729 202.75 538.354 202.125 536.625 202.125C534.917 202.125 533.594 202.615 532.656 203.594C531.719 204.552 531.25 205.885 531.25 207.594C531.25 209.177 531.708 210.448 532.625 211.406C533.542 212.365 535.24 213.344 537.719 214.344C540.219 215.344 542.271 216.292 543.875 217.188C545.479 218.062 546.833 219.062 547.938 220.188C549.042 221.292 549.885 222.562 550.469 224C551.052 225.417 551.344 227.073 551.344 228.969C551.344 232.51 550.24 235.385 548.031 237.594C545.823 239.802 542.781 241.104 538.906 241.5V247.719H533.938V241.531C529.667 241.073 526.354 239.562 524 237C521.667 234.417 520.5 230.99 520.5 226.719H529.531C529.531 229.198 530.115 231.104 531.281 232.438C532.469 233.75 534.167 234.406 536.375 234.406C538.208 234.406 539.656 233.927 540.719 232.969C541.781 231.99 542.312 230.677 542.312 229.031Z" fill="#BBBBBB" fill-opacity="0.2"/>
</svg>
