<svg width="512" height="512" viewBox="0 0 512 512" fill="none" xmlns="http://www.w3.org/2000/svg">
<rect width="512" height="512" rx="50" fill="#009688"/>
<path d="M298.708 320.024C298.708 308.466 295.466 299.304 288.982 292.539C282.64 285.632 271.786 279.289 256.423 273.51C241.059 267.731 227.81 262.023 216.675 256.385C205.54 250.606 195.955 244.052 187.921 236.722C180.028 229.252 173.826 220.513 169.315 210.505C164.946 200.498 162.761 188.588 162.761 174.774C162.761 150.954 170.373 131.432 185.595 116.209C200.818 100.987 221.044 92.1069 246.274 89.5698V44.3247H280.103V90.2041C305.051 93.7279 324.572 104.158 338.667 121.495C352.763 138.691 359.81 161.032 359.81 188.517H298.708C298.708 171.603 295.184 158.988 288.137 150.672C281.23 142.215 271.927 137.986 260.229 137.986C248.671 137.986 239.72 141.299 233.377 147.923C227.035 154.407 223.863 163.428 223.863 174.986C223.863 185.698 226.964 194.296 233.166 200.78C239.368 207.264 250.855 213.888 267.628 220.654C284.542 227.419 298.426 233.833 309.279 239.894C320.132 245.813 329.294 252.579 336.765 260.19C344.235 267.661 349.944 276.259 353.89 285.984C357.837 295.569 359.81 306.775 359.81 319.601C359.81 343.563 352.34 363.014 337.399 377.955C322.458 392.895 301.879 401.705 275.663 404.383V446.457H242.046V404.594C213.151 401.493 190.74 391.274 174.812 373.938C159.026 356.46 151.133 333.273 151.133 304.378H212.235C212.235 321.152 216.181 334.049 224.075 343.069C232.109 351.949 243.596 356.389 258.537 356.389C270.941 356.389 280.737 353.147 287.925 346.664C295.114 340.039 298.708 331.159 298.708 320.024Z" fill="white"/>
</svg>
